<?xml version="1.0" standalone="no"?>
<!DOCTYPE svg PUBLIC "-//W3C//DTD SVG 1.1//EN" "http://www.w3.org/Graphics/SVG/1.1/DTD/svg11.dtd" >
<svg xmlns="http://www.w3.org/2000/svg" xmlns:xlink="http://www.w3.org/1999/xlink" version="1.1">
<metadata></metadata>
<defs>
<font id="manusregular" horiz-adv-x="790" >
<font-face units-per-em="2048" ascent="1536" descent="-512" />
<missing-glyph horiz-adv-x="403" />
<glyph horiz-adv-x="0" />
<glyph horiz-adv-x="682" />
<glyph horiz-adv-x="0" />
<glyph horiz-adv-x="0" />
<glyph unicode="&#xd;" horiz-adv-x="403" />
<glyph unicode=" "  horiz-adv-x="403" />
<glyph unicode="&#x09;" horiz-adv-x="403" />
<glyph unicode="&#xa0;" horiz-adv-x="403" />
<glyph unicode="!" horiz-adv-x="530" d="M96 66q12 12 15 24q5 3 0.5 7t-5.5 7q4 15 26 31.5t30 16.5q7 0 6 -2q2 -5 4 -5q4 0 6.5 3t4 6t4 10t3.5 10q9 -4 33 -2.5t37 -1.5q2 -3 8.5 -11.5t7.5 -13.5q2 -2 4.5 -6.5t4 -7.5t5.5 -6.5t9 -5.5q0 -4 -2 -7t-6 -7.5t-6 -6.5q14 -27 4 -73q-31 -38 -31 -39 q-24 -9 -53 -9q-7 0 -21.5 10t-21.5 21q-7 7 -14 22t-13 26.5t-12 11.5q-9 0 -16.5 -1t-10.5 -1zM197 510l174 651q13 0 20 10q1 1 -1.5 6.5t-4 11t1.5 11.5q17 33 44.5 91t50 100t53.5 86l14 -9q3 3 14.5 10.5t14.5 10.5q-3 12 12 31q6 -3 8 -5.5t3 -9.5t3 -12q12 0 25 23 q2 -2 9.5 -15.5t14 -22.5t16.5 -16t19 -4v-65q0 -17 -33.5 -103.5t-48.5 -115.5q-30 -47 -57.5 -116.5t-61 -170.5t-49.5 -144l-92 -196q-3 0 -4 3t-10 3q-14 0 -24 -14t-16 -33.5t-7 -20.5q-10 13 -13 13l-14 -13q0 1 0.5 5t-0.5 4.5t-3.5 2t-8.5 1.5q-17 0 -17 -9 q0 30 13 97q-14 -10 -21.5 -27t-11.5 -39.5t-6 -27.5q0 4 -3 9.5t-3 8.5z" />
<glyph unicode="&#x22;" horiz-adv-x="565" d="M119 924q0 38 4 49q31 88 132.5 203t166.5 124h16q0 -4 3 -16t3 -20t-7.5 -39t-14.5 -47l-25 -23q-4 -4 -4 -19t-4 -20q-7 -9 -36 -38t-42 -48q-65 -87 -82 -106q-14 -21 -22 -53.5t-4 -57.5q0 -4 -2 -4q-2 -2 -8 -2q-4 0 -4.5 -2.5t0.5 -7.5t1 -6q-3 0 -7 5t-13 5 q-15 0 -23.5 4.5t-19.5 23.5q-8 36 -8 95zM303 849.5v6.5q0 10 13 49t28 62q6 13 23 36.5t22 30.5q3 5 12 25t13 26l28 29q3 3 19.5 11.5t23.5 13.5q96 96 142 96h30q-8 -8 -8 -19t4 -26.5t4 -24.5q0 -4 -5.5 -26.5t-2.5 -30.5q-11 -14 -70.5 -86t-84.5 -111 q-4 -7 -29 -59.5t-43 -77.5q-10 0 -16 -6q-3 2 -24.5 22t-39.5 31q-2 0 -2 2v8q-2 2 -3 5.5t-2 5t-3.5 3t-7.5 1.5q-9 0 -9.5 -3t-3.5 -3q-2 2 -4 3.5t-2.5 1.5t-1 1.5t-0.5 3z" />
<glyph unicode="#" horiz-adv-x="1327" d="M82 367v18q3 0 9.5 6t14.5 6q7 0 11 6.5t5 13.5l1 7h20q8 8 -6 8q3 0 6 7t11 7q5 0 7 -1.5t1.5 -3.5t1 -3.5t6.5 -1.5q49 0 98 10q6 18 17 66q-12 3 -19.5 3t-19.5 -2.5t-17 -2.5h-17h-11.5t-7 0.5t-6.5 1.5t-6.5 4.5t-9 6.5t-13.5 10t-21 14q-12 7 -22.5 33.5 t-22.5 37.5q3 8 17 22.5t18 21.5q16 0 20 4q13 3 7 18q6 -6 39 -6q6 0 11.5 3t11.5 8t9 7q13 2 37.5 3.5t41 4.5t30.5 11q5 4 39 82q21 47 73 133q3 3 14.5 8.5t16.5 13.5q2 2 7 15.5t14 13.5q6 0 6 -1.5t-2.5 -4t0.5 -6.5l28 28q15 -19 15 -36q0 -13 -15 -43q-4 -4 0 -17.5 t0 -17.5q-4 -10 -20 -40.5t-16 -39.5v-55q3 -3 4.5 -6t3 -3h8.5q4 0 18.5 4t34.5 9.5t33 7.5q62 12 102 12q33 93 45 150q9 6 19 30t16 31q3 3 13 5.5t15 6.5t1 11q5 -4 20.5 -6.5t22.5 -6.5q3 -5 6 -16t6 -16q5 -21 7 -65.5t3.5 -76t6.5 -31.5q7 0 47 3q11 1 22.5 2 t17.5 1.5t9 0.5q61 0 131 -10.5t106 -30.5q3 -3 16 -23t23 -26h-16q0 -2 -1.5 -6.5t-2 -7t0 -6.5t2.5 -6.5t7 -4.5q-11 -9 -22.5 -22t-20 -19t-20.5 -6q-281 0 -347 -21q-13 -44 -30 -119q16 -18 88 -18q8 0 20 5t19 5q2 0 8.5 -0.5t19 -1.5t25.5 -2q14 -1 28.5 -2.5l29 -3 t20.5 -2.5q12 -5 23.5 -17t11.5 -22q0 -4 -3 -10t-9 -14.5t-7 -10.5v-2q0 -1 1 -4t1 -4v-8h-22q-12 -16 -56 -41q-8 -10 -38 -4l-3 -2q-2 -2 -2 -6q-16 -3 -94 -23q-14 -3 -31 -3t-40 1.5t-37 1.5q-27 -53 -27 -78q0 -21 -10 -86q-22 -118 -45 -168q-8 -5 -15 -22t-6 -29 q-5 4 -7.5 0.5t-2.5 -8.5q-4 0 -5.5 1.5t-3.5 5t-5 5.5q-15 -8 -16.5 -34.5t-8.5 -32.5q12 20 0 32q-23 51 -27 101q-16 6 -16 34q0 10 -2 33t-2 29q0 9 2 19.5t2 33.5q0 42 4 70q7 24 15 69q-3 2 -3 4.5t-1.5 3.5t-8.5 1q-3 0 -24.5 -3t-51 -6t-51.5 -4q-2 -2 -2.5 -4 t-0.5 -2.5t-2 -1t-7 -0.5q-8 0 -16 2t-15 2q-33 0 -41.5 -13.5t-13.5 -59.5q-8 0 -12 -7q-11 -78 -25 -112q-15 -15 -24 -33q-9 -20 -9 -68q-3 3 -3.5 15t-10.5 18q-6 26 -6 131v2q-2 2 -4 6q10 58 10 111q-19 6 -78 6q-6 0 -20.5 9.5t-34 24t-31.5 21.5q0 5 12 17 q-6 3 -12.5 16.5t-9.5 16.5zM420 463l6 -6h76q5 0 25.5 6t25.5 6q35 0 65 10q3 12 9.5 30.5t10.5 31t3 16.5v25q-28 -4 -77 -16t-66 -15q-4 0 -15 -1.5t-14 -2t-11.5 -2.5t-11.5 -4l-9 -6t-7.5 -9t-4.5 -12t-4 -17t-1 -22v-12z" />
<glyph unicode="$" horiz-adv-x="1032" d="M16 381q0 10 12 28.5t23 24.5q-5 -12 -10.5 -23t-7 -12.5t-3 -8.5t-1.5 -10v-18q0 -22 2.5 -30.5t11.5 -17.5t16 -21l13 12h-2q-1 0 -3.5 1t-3.5 1l9 12q-15 25 -15 33q0 6 19 39q13 -1 22 8.5t4 20.5l-10 -10q4 9 8.5 23t7 21.5t10 18t19.5 19.5q-1 -3 -4 -7.5t-3 -7 t3 -8.5q7 8 16.5 23.5t16.5 23.5q-2 -13 -6.5 -54t-9.5 -63q4 -4 7 -10.5t5 -9.5l10 10q4 -19 7 -60t5 -59l-4 -6q7 -4 14.5 -15.5t16.5 -28t16 -25.5q5 -8 27.5 -14t30.5 -15q4 3 8 16q10 55 34.5 173.5t44 209.5t19.5 97q0 2 -10 16.5t-22 33t-15 29.5q-13 21 -30 66.5 t-23 75.5q0 2 -8 14.5t-9 20.5q-12 40 -12 102q0 32 5 47t24 45q9 36 14 41q17 29 58.5 69t48.5 40q5 0 8 -2.5t8 -2.5t6.5 0.5t4.5 4t7 12.5v-4q0 -2 11 -2q32 0 60.5 18.5t0.5 44.5q6 -5 23 8q5 19 23 88.5t28 102.5q10 32 61 115q3 8 21 8q4 0 16.5 -4t22.5 -4 q-9 -35 12 -56q23 -23 23 -37q0 -8 -3.5 -9.5t-3.5 -4.5q6 -28 1 -52.5t-25 -82.5v-31l10 -10l21 -4q25 -16 77 -39.5t86 -48.5t62 -68q2 -2 10 -11.5t14 -17.5t9 -14q12 -44 12 -125q0 -18 -12 -44.5t-27 -26.5q-7 0 -38 6t-38 6q-12 0 -6 24q-10 4 -18.5 12t-17.5 20 t-15 18q2 2 6 5t7 5t5 5.5t2 6.5q0 14 -19.5 32.5t-41 31.5t-46.5 27t-28 16q-9 4 -26 6t-27 4l-121 -492q-3 -12 6 -24q70 -78 105 -111q8 -8 21.5 -32t21.5 -31q96 -126 96 -240q0 -208 -207 -287q-92 -22 -94 -22q-72 0 -107 -2h-2q-2 -2 -6 -4l-22 -191l8.5 8.5t12 9.5 t11.5 3q4 0 9.5 -3t9.5 -3q0 -8 -23 -37q-3 -3 -1.5 -12.5t2.5 -13.5t5 -14t5 -14q-9 -21 -15 -67q3 -8 10 -8q-17 -30 -26 -50q6 -6 8 -12t0.5 -13t-3.5 -12t-9 -13.5t-10 -12.5t-12 -13.5t-11 -11.5q-12 12 -12 23q-5 3 -8.5 3.5t-9.5 -0.5t-11 -1h-8q0 -2 2 -4 q-25 56 -29 63q-8 -8 -8 -34q-3 16 -10 45t-12 50t-5 27q0 4 2.5 33.5t7.5 72t9 69.5q0 -20 -5 -65t-3 -72.5t16 -41.5q5 35 10 176l-2 3q-3 0 -6 -3q0 1 4 5q0 4 4 8q3 18 9 68.5t12 78.5l-8 6q-10 -21 -14 -47t-5 -58.5t-4 -49.5q0 4 -8 2l-8 -2q4 33 13.5 93t10.5 69 q-11 6 -40.5 17.5t-43.5 20.5q-4 2 -2.5 7.5t0.5 7.5q-27 27 -71 90.5t-56 77.5v43q-1 5 -10 19t-12 22v34q0 13 -6.5 36t-6.5 26zM55 446l8 13l5 -2l-5 -13zM109 436l8 -2l6 21h-8zM109 500l28 20l6 -6l-28 -22zM121 469l6 -6l6 2l-8 8zM233 -449h7v-24h-7v24zM307 152 q12 19 12 47q-12 -12 -12 -25v-22zM414 967q0 -6 10.5 -35.5t11.5 -42.5q31 123 53 196q-34 -18 -54.5 -52.5t-20.5 -65.5zM432 125q14 6 64 6q11 0 43 19q1 1 1 2.5t0.5 3t3 3t5.5 1.5l6 -2q4 -2 6 -2q6 0 39 47.5t33 52.5q8 19 8 39q0 33 -16 60.5t-49.5 69t-55.5 79.5 q-39 -132 -88 -379z" />
<glyph unicode="%" horiz-adv-x="1159" d="M100 924q0 58 62.5 173t142 207.5t121.5 92.5q9 0 10 -7.5t4 -9.5q13 10 13 23q2 -8 9.5 -15.5t16.5 -7.5q8 0 13 2t8 2v-51q-13 -11 -35 -24q5 -9 27 -44t36.5 -64.5t14.5 -45.5q0 -17 -25 -94q-2 -2 -6 -2q0 -1 -2 -2t-6 -4q0 14 -2 16q-9 -6 -12.5 -33.5t-4.5 -29.5 l-69 -72q-14 -13 -37 -64q-1 -4 -13 -19.5t-12 -23.5q-10 -3 -40.5 -18.5t-39.5 -15.5q-7 0 -14.5 -2.5t-15.5 -2.5h-33q-4 0 -12 6t-18 14.5t-17 12.5q-9 -9 -6 -14v-14q-8 0 -28.5 32t-20.5 45q0 10 -4.5 29t-4.5 25zM188 -57q0 12 9 12l4 4q2 10 6 48.5t10 58.5 q22 73 56 156.5t60.5 141t72.5 150.5q19 42 79 153t78 146q19 42 99 197q14 23 75 105t80 124q1 6 15.5 13t17.5 10q1 2 21 30.5t26 44.5q6 -8 22 -15.5t17 -8.5t22 -43q-3 -4 -4 -7.5t-1 -9t-1 -8.5l9 -6q0 -8 -3.5 -14t0.5 -8v-9q-34 -81 -67 -141q-50 -92 -62 -119 q-33 -55 -83.5 -151t-113 -218t-83.5 -163q-5 -2 -1.5 -10t3.5 -9q-31 -37 -67.5 -124.5t-59.5 -120.5q-21 -72 -47 -119l-4 -3q-4 -3 -8 -6.5t-7 -7.5q-12 -17 -12 -116q0 -3 -3 -7.5t-3.5 -11t2.5 -26.5q-5 -2 -30.5 -11.5t-35.5 -15.5q-3 24 -20 34.5t-38.5 19.5 t-29.5 26v35zM264 924h31q26 0 93 58.5t67 96.5v82h-25q-8 1 -11.5 -6.5t-10.5 -7.5q-10 0 -21 8q8 4 11.5 14.5t7.5 14.5h-21q-80 -144 -102 -203q0 -1 -9.5 -14t-9.5 -19v-24zM639 240q0 8 12.5 42t16.5 48q14 34 41 67.5t63.5 70t48.5 50.5q5 2 29.5 15.5t32.5 13.5 q5 0 5 -2q4 -2 7 -2q8 0 15 8.5t10 9.5q8 8 34 8q17 0 41 -24q2 -2 8.5 -16.5t14.5 -14.5q5 0 10 1t8 2t6.5 0.5t6.5 -3.5q-4 -5 -8.5 -16.5t-8.5 -16.5q28 -22 49 -28q5 -14 22.5 -36.5t22.5 -35.5q15 -24 15 -76q0 -22 -10 -48.5t-33 -68.5t-25 -47q-9 -16 -26 -25 t-25 -16t-4 -22q-104 -80 -162 -80q-9 0 -30 -3t-25 -3q-10 0 -33 7.5t-35 16.5q-46 33 -65 70q-13 30 -23 88q-6 56 -6 66zM825 182q51 25 90 66.5t39 77.5v53q-23 -16 -76 -77.5t-53 -82.5v-37zM958 381l9 -2l8 14l-8 2z" />
<glyph unicode="&#x26;" horiz-adv-x="1361" d="M117.5 227q3.5 24 8 33t14.5 30.5t16 45.5q5 10 11.5 42.5t20.5 55.5q97 133 123 180q60 52 158 187q-1 4 -10 24t-10 31q4 -19 22 -29q4 7 0 35q0 13 -39 127q-16 42 -43 72l4 4l4 8q-3 20 -6 25t-5.5 7.5t-10.5 47.5t-21 137q-2 9 6 26t17.5 30.5t26.5 35.5t22 29 q10 14 41 14q12 2 86 -12q4 -1 9.5 -7t10.5 -9q40 -2 97 -28t100 -75q20 -12 55.5 -67t40.5 -80q3 -10 -6 -51q-10 -45 -20 -60q-10 -21 -22.5 -36.5t-36 -36.5t-29.5 -27q-11 -13 -39.5 -43.5t-52 -59.5t-42.5 -63l226 -491q21 21 30 22q5 0 3.5 -6.5t3.5 -5.5q8 0 55 29.5 t53 31.5q7 0 0 -6q-5 -4 -2 -4h4q11 0 41 27q25 23 41 28q7 0 6 -2q2 -4 4 -4q11 6 64 44t78 63q3 4 18.5 10t22.5 10q14 8 24 29l8 18q6 -3 33 0q8 1 38 26.5t38 26.5q8 2 8 1q2 -2 4 -3q-2 0 -16 -20v-2q59 31 108 43q-15 -13 -49.5 -35t-46.5 -31q-15 -10 -40 -41 t-36 -41q-7 -4 -20.5 -11.5t-21 -12t-17.5 -12t-16 -15.5q3 -4 5.5 -5t3.5 -1.5t4.5 1t4.5 1.5q-71 -51 -246 -190l2 -4l1 -1q1 -2 1 -6q-71 -45 -122 -104q68 -106 102 -147q3 -3 17 -13t18 -16q3 -5 3.5 -34.5t14.5 -35.5q-9 -4 -32.5 -19t-32.5 -16q-10 0 -38 11t-46 26 q-45 34 -146 152q-31 -27 -96 -55q-3 0 -9 -5t-14.5 -14t-15.5 -14q-12 -13 -70 -25l-124 -16q-34 -4 -99.5 19t-95.5 44q-19 12 -52 47t-59 70q-9 12 -15.5 43.5t-6.5 44.5q-7 29 -3.5 53zM123 246h8l4 14l-6 2zM315 150q3 -23 13 -33q5 -1 15 -9t13 -10q22 -14 42 -14 t38 5t27 3q20 -4 41 -4q50 7 108 34t90 52l-167 365q11 9 12 20.5t-4 20t-12 20t-9 18.5q-45 -62 -45 -77q-32 -19 -100.5 -178t-61.5 -213zM511.5 1199q0.5 -23 1.5 -50.5t1 -30.5q23 -70 43 -178q4 5 27 32.5t35 43.5t28.5 41.5t23 46t3.5 37.5q-2 31 -25.5 65.5 t-62.5 46.5q-26 11 -47 7q-8 0 -16 -5.5t-11 -5.5q-1 -27 -0.5 -50zM1020 377l27 18l6 -10l-31 -16z" />
<glyph unicode="'" horiz-adv-x="299" d="M96 743l6 35q2 4 74 174q0 2 -0.5 8t-0.5 9.5t1 7.5t4 6q5 19 13.5 42t15 37.5t18.5 39.5t15 31q5 9 18 14.5t19 3.5q4 -13 15.5 -22t22.5 -11q0 -4 -2.5 -19t-1.5 -20q2 -9 7.5 -24t9 -26t2.5 -15q0 -18 -20 -87.5t-42 -111.5q-12 -24 -31.5 -47t-33.5 -31 q-5 -12 -30.5 -20t-39.5 -6q-3 1 -10 7t-16.5 14t-12.5 11z" />
<glyph unicode="(" horiz-adv-x="645" d="M29 188v68q-11 110 5 221t60 254q3 27 41 86q68 186 293 469q5 7 25.5 22t27.5 23q11 15 15 33q69 36 92 39q6 0 39 -14v-33l-15 -2q-12 -20 -46.5 -57t-49.5 -68q0 -4 3.5 -5.5t4.5 -4.5q-15 -55 -49 -107q-3 -7 -5.5 -29.5t-6.5 -35.5q-9 0 -24.5 -18t-4.5 -30 q-17 -4 -18 -10q-18 -29 -21 -61q-15 -15 -28 -54t-17 -47q-76 -150 -115 -268t-45 -237q-2 -16 -3 -42t-0.5 -47.5l1 -43t0.5 -23.5q21 -107 125 -200t224 -97q-6 -2 -20 -18.5t-15 -26.5l-15 12q-2 0 -2 -4l2 -8q-39 3 -84 -14q-1 -3 2 -12.5t3 -14.5q-2 3 -3 7.5t-3.5 6 t-8.5 0.5q-5 -3 -5 -4q2 -2 -1 -3q-2 -1 -4 -1q-5 0 -14.5 13t-14.5 12q-7 -1 -12.5 -8.5t-13.5 -8.5q-23 -4 -106 60.5t-89 76.5q-26 13 -61 108t-43 146z" />
<glyph unicode=")" horiz-adv-x="647" d="M57 -131q24 5 35 16q104 80 192 230t109 274q0 26 17 57q-5 12 1 68.5t-10 65.5q10 4 11.5 16t-2 28.5t-2.5 22.5h4q5 0 2 8l-31 172q0 4 -5 21.5t-13 42t-11 33.5q-47 159 -137 325q-6 9 -7 37.5t-3 40.5q-1 4 -12.5 17.5t-14.5 23.5q-5 11 -14.5 40.5t-11.5 33.5 q0 8 12 20q-1 2 -4.5 6t-2.5 8.5t9 12.5q0 -7 10 -18t21 -17q3 9 0 29q6 -3 17.5 -10.5t16.5 -8.5q19 -9 37 -20t35.5 -28t30 -28.5t29 -35.5t24 -34t24 -39.5t20 -35.5t21 -38.5t17.5 -33.5q14 -25 32 -74.5t30.5 -87t15.5 -40.5q3 -15 -6 -27q35 -124 37 -194q1 -23 6 -93 t5.5 -94.5t-0.5 -71t-7 -86.5q-4 -18 -21.5 -73.5t-23.5 -83.5q-8 -37 -54 -142q0 -12 -93 -132.5t-120 -127.5q-14 -3 -14 -8l-22 -4q3 8 -5 16l-67 -32l2 2q0 1 1 4t1 4q-8 3 -23.5 9t-26 9t-16.5 2q-5 -1 -9.5 -4t-8.5 -4q-3 3 -1.5 13t-2.5 14l-8 -15q-2 7 -6.5 13.5 t-8.5 5.5z" />
<glyph unicode="*" horiz-adv-x="673" d="M14 1190l6 4q5 3 9 4q0 8 13.5 23.5t16.5 23.5q60 0 91 2q6 -8 32 -8h31q-12 82 -12 131q0 85 49 115q4 4 7 8t6 8.5l5 7.5q26 -52 27 -61q3 -19 4.5 -63.5t5.5 -71.5l2 -1q2 -1 8 -1q7 0 24.5 18t29.5 37q31 31 66.5 75.5t35.5 59.5q20 0 25 4q0 -10 2 -17t4 -11t8 -13 t10 -16v-16q-9 0 -18 -9q-12 -32 -62 -88t-53 -82h-4q-2 0 -6 4q-3 -3 -3 -5t-3 -5v-6q6 -2 18 -2q5 0 29 -4t28 -4q8 0 39 4t35 4q3 0 22.5 -2t44.5 -4.5t38 -3.5q1 0 10 -5t14 -5q-3 -3 -6.5 -10.5t-7.5 -10.5q0 -7 18 -10q-3 -3 -17 -10.5t-18 -12.5q-2 -3 -5.5 -11 t-8.5 -11q-25 -6 -37 -35q-18 -3 -88 -17t-110 -14q-2 -2 -2 -18q0 -6 19.5 -72t19.5 -72q0 -7 -11 -36q-17 0 -45 14q-2 -2 -2 -14q-4 6 -15.5 18t-20.5 23t-13 22q-10 24 -24 72t-19 63q-14 -13 -39 -40.5t-35 -37.5q-27 -38 -47 -38q-5 0 -18 10.5t-21 13.5q9 19 24.5 54 t20.5 46q-36 6 -57 19.5t-47 42.5v2v8q0 8 -14 8q0 16 -9 25z" />
<glyph unicode="+" horiz-adv-x="1155" d="M143 467q2 15 27 57q15 15 45 21q4 4 16 24q32 3 57.5 2t56 -4.5t34.5 -3.5q20 0 47 17q2 19 4 72.5t8 82.5q1 3 9 46.5t17.5 70t24.5 41.5q11 15 26.5 21t26 6t17 8t4.5 28q2 -2 6 -2q4 -4 9 -4q-2 -21 10 -49q3 3 5.5 11t6.5 12q0 -4 -2.5 -15.5t-1.5 -17.5l14 10 q23 -52 23 -70l-23 -114q-22 -114 -22 -142q0 -14 12 -20q15 -3 52 -6t55 -6q181 -34 290 -43q2 -5 45 -29q-9 -9 -28.5 -35.5t-30.5 -38.5q-3 -3 -13 -7.5t-14 -8.5v-2q0 -6 2 -8q-32 -10 -97.5 -20.5t-78.5 -10.5q-6 0 -68.5 3t-66.5 3q-27 0 -76 -12q-8 -3 -8 -21l2 -227 q-4 0 -10 -2.5t-11.5 -10.5t-4.5 -20q-16 3 -19 -14q-6 -1 -21.5 -4.5t-23.5 -3.5q-7 0 -17 5t-14 5q-20 35 -25.5 85t-6 113t-6.5 99q-3 -6 -19 -6q-5 0 -10 -3t-12 -3q-56 0 -113 25t-92 81q0 2 -1 8.5t-1.5 10t-4.5 8.5t-10 8z" />
<glyph unicode="," horiz-adv-x="364" d="M14 -209q0 6 37 52t43 61q23 40 37 76t24.5 74t14.5 50q1 2 7 8t11 15q5 10 5 49q4 2 55 19q3 -3 3.5 -8t-0.5 -12.5t-1 -10.5q4 -3 3 -5t0 -2.5t7 -0.5q8 0 8 2q3 4 6 4q18 0 27 -25q21 -41 21 -96q0 -39 -54 -178q-2 -5 -16 -24.5t-14 -35.5q-1 0 -16 -5t-25.5 -10 t-23.5 -17.5t-19 -28.5q0 13 -9 22q-19 -11 -22 -28v4q1 5 -1 6.5t-11 1.5q-18 0 -27 -22q-1 1 -6.5 6t-10.5 7.5t-12 2.5q-6 0 -10.5 -2t-6.5 -4l-3 -2l12 33q-9 14 -24 2q0 3 -4.5 8.5t-4.5 13.5z" />
<glyph unicode="-" horiz-adv-x="729" d="M115 489q18 18 18 37q14 1 30 17t25 20q5 -2 15.5 -11t19.5 -9q3 0 24 2t34 2q16 3 29 4t26 4q44 14 55 14t43 -4q4 0 19.5 2.5t28.5 3t40 -3.5q3 -1 15.5 -3.5t17.5 -4t16.5 -4.5t18 -6.5t16 -9t17 -12.5t14.5 -15q-6 -6 -6.5 -15t2 -16t6.5 -18.5t6 -18.5q-1 0 -2 2 q-1 1 -1 1.5t-1 1.5l-6 2q-2 -2 -5.5 -14.5t-10.5 -21.5t-21 -9l-350 -33q-36 0 -52.5 6t-22 15.5t-21 38t-37.5 56.5z" />
<glyph unicode="." horiz-adv-x="288" d="M31 88q0 24 8 37q3 4 11 13.5t15 17.5t14.5 16t14 13t10.5 5q7 0 7 -3t8 -3q4 0 21.5 20t29.5 25q-4 -17 16.5 -31t34.5 -8q0 -15 -6 -18q39 -39 39 -55q0 -7 -1.5 -14t-3.5 -13.5t-3 -9.5q-10 -8 -30.5 -35t-35.5 -37q-32 -18 -69 -18q-44 0 -62 29.5t-18 68.5z" />
<glyph unicode="/" horiz-adv-x="712" d="M25 47q0 11 26.5 90.5t44.5 124.5q8 20 32 71t30 66q6 17 16 38t17.5 35.5t24 43.5t22.5 41q50 94 221 391q5 11 38 85.5t48 94.5q1 4 14.5 16.5t18.5 22.5q8 11 0 35q8 9 11.5 27t4.5 20q1 1 7 10.5t11.5 14t12.5 4.5t22 -11.5t19 -11.5q9 0 9 1v3q-1 3 -1 5 q0 -19 9 -55.5t9 -41.5q0 -13 -10.5 -62t-22.5 -81q-34 -88 -149 -309q-17 -34 -78.5 -144t-89.5 -168q-50 -89 -168 -370q-3 -5 -2.5 -8.5t2.5 -12.5t2 -14q0 -7 -3 -29.5t-3 -34.5h-4q-4 0 -8 7q-3 -5 -9 -12t-9 -13.5t-3 -13.5q-4 3 -12 12.5t-12 13.5q-9 0 -9 -22 q-3 3 -7 10.5t-9 12.5t-12 5h-6h-1q3 -2 3 -6q0 4 -4 7t-10 7t-9 7q-1 15 -12.5 53.5t-11.5 44.5zM676 1174l6 16h8l-8 -23z" />
<glyph unicode="0" horiz-adv-x="720" d="M43 354q0 72 18.5 150t35.5 119t46 106q4 11 20.5 29.5t33 34t34.5 32t21 19.5q16 18 28 29t24.5 18.5t19 10t22.5 8t25 8.5q12 15 12 20l18 -14q29 10 37 28q20 -4 39 -27.5t25 -50.5q-27 -27 -25 -34q1 -3 -2 -31q15 -15 72 -33q28 -17 74 -62t57 -79q6 -25 6 -27 t-6 -14q16 -46 16 -88q0 -82 -65.5 -203.5t-167 -216t-189.5 -94.5q-6 0 -39 13t-43 13q-7 0 -7 -2q-7 -4 -9 -4q-14 0 -41 41q-32 47 -53 64q-24 78 -30.5 125t-6.5 112zM205 315q0 -1 10 -53q7 -36 23 -67q4 0 12.5 -5.5t17.5 -5.5q8 0 23.5 9.5t34.5 23.5t28 19 q13 8 20 31t13 26q50 46 78 113q31 73 31 110q0 103 -146 141q-7 -11 -40 -60.5t-51.5 -80t-33 -73.5t-6.5 -72q-14 -25 -14 -56z" />
<glyph unicode="1" horiz-adv-x="567" d="M37 715v30q17 6 27.5 42t19.5 47q5 6 13 11.5t14.5 8.5t18.5 7.5t17 6.5q15 12 15 23q23 18 112 65q80 41 162 41q10 0 34.5 -12.5t35.5 -23.5q10 -13 25.5 -43.5t19.5 -36.5l-197 -664q1 -2 4.5 -11t6.5 -15l7.5 -15t10 -15.5t12.5 -10.5q-10 -10 -11.5 -25t1.5 -27.5 t0 -27.5q-5 -23 -35 -49.5t-39 -26.5q-8 0 -44 10t-48 10q-20 20 -49 84t-29 92q0 38 16 95.5t40 103.5q0 4 -3 12t-3.5 12.5t2.5 10.5q37 81 47 125q5 17 18 71t23 85q2 6 2 40q-43 -29 -47 -30q-11 -4 -25 -15q-41 -32 -80 -45l-49 -2q0 3 1.5 6t0 4t-9.5 5q0 4 -2.5 8.5 t-7 10t-8 9.5t-10.5 10.5t-9 8.5z" />
<glyph unicode="2" horiz-adv-x="839" d="M27 72q4 -2 4 -6q6 11 9.5 60.5t16.5 68.5q20 37 115.5 169.5t130.5 190.5l7 6q7 6 15.5 15t18.5 24q16 27 62 86q40 52 16 92q-71 -59 -100 -104q-30 -43 -76 -43q-25 0 -32.5 9t-13.5 27.5t-22 32.5q-10 17 -10 56q-1 3 -6.5 12.5t-5.5 13.5q4 0 13 -3t13 -3 q15 49 64 98l82 76q5 4 16.5 19.5t25 26t31.5 10.5q9 0 34.5 -3.5t33.5 -3.5h20q24 -22 59.5 -23.5t43.5 -6.5q31 -25 59.5 -58.5t28.5 -56.5q-10 -39 -33 -90.5t-44.5 -93t-63 -109t-61.5 -98.5t-67.5 -103.5t-56.5 -85.5q-4 -11 -22.5 -41.5t-22.5 -42.5l10 -14 q53 21 175 25q84 8 186 8q7 0 24.5 -4t24.5 -4q11 -11 8 -19q7 -7 33 -18q23 -23 41 -33q-4 -6 -5 -14t-0.5 -17t-0.5 -14q-4 -6 -19 -20t-20 -23q-3 0 -16 -8q-213 -15 -349 -37q-24 -4 -100 -25q-61 -18 -78 -18q-6 0 -45 5.5t-57 6.5q-3 0 -8 3.5t-12 9t-13 8.5 q0 21 -16 37q-15 -6 0 -33q-2 2 -6.5 41t-28.5 39h-8h-2z" />
<glyph unicode="3" horiz-adv-x="632" d="M31 788q0 13 17 25.5t42 20.5q2 2 8.5 9.5t12.5 8.5q5 2 20.5 4t20.5 8q27 6 18 31h4l6 -4q24 -9 51 12q-4 0 -4 2q-3 1 -4 2.5t-1 2.5t-1 1q5 1 87.5 31t103.5 25q11 -1 17.5 -12t8.5 -13q7 -4 64 -19t82 -49q5 -5 13.5 -23t10.5 -22q5 -12 0 -57q-3 -59 -37 -86 q-20 -16 -75 -82q-12 -16 -28 -34t-40 -41t-39 -37.5t-49 -45.5t-47 -43q8 -20 29 -30q98 -56 135 -111q63 -164 57 -223q-4 -38 -29 -91t-62.5 -103.5t-90 -84.5t-103.5 -30q-5 1 -17.5 1t-21 1.5t-12.5 5.5q-5 6 -29 22.5t-34 30.5q-3 4 -6.5 30.5t-8.5 39.5q9 15 -6 39.5 t-16 29.5q16 16 49 70q-3 -10 12 -37q5 12 11.5 34t11.5 34q5 -20 17.5 -35.5t25.5 -15.5l26 -3q12 -4 39 31l52 60l8 36q3 45 -35.5 85t-87.5 63t-92.5 44.5t-46.5 31.5q-1 13 -7.5 54.5t-5.5 51.5q1 17 12 36.5t23 32t36.5 36t35.5 34.5q104 113 137 148 q-23 2 -108.5 -27.5t-86.5 -29.5q-6 1 -14 6t-20 14.5t-21 15.5q16 16 -2 43q-19 29 -16 45z" />
<glyph unicode="4" horiz-adv-x="860" d="M31 430q0 26 13.5 75.5t27.5 76.5q30 69 99.5 191t104.5 196q1 0 9 4t18 4q9 0 12.5 -6t12.5 -6q5 0 8.5 0.5t6 1.5t3.5 2l4 4l4 4q-5 -8 10 -30.5t27 -22.5q8 0 10 0.5t0 3.5t-2 6q0 -4 5.5 -16t5.5 -17q0 -48 -36.5 -131t-82.5 -172.5t-58 -130.5l3 -10q26 5 82.5 18 t82.5 17q50 116 82 233q37 125 119 244q14 2 47 2q25 41 49 41q16 0 45 -51q-7 -11 0 -21q3 -10 11 -10l10 -2q3 -3 -8 -21q14 -46 -19 -123q-21 -40 -37.5 -87t-34.5 -106.5t-30 -92.5q2 -5 52 -3t63 1q14 -14 16 -15q5 -2 32.5 -5t43.5 -11q-3 -5 -2 -18t-2 -17l16 -16 q-5 -3 -17.5 -22.5t-25.5 -24.5q-39 -17 -118.5 -30t-114.5 -28q-11 -7 -34.5 -121t-23.5 -139q0 -41 10 -86q2 -8 8 -26.5t10.5 -33t4.5 -20.5q0 -10 -10 -26t-13 -25q0 16 -14 27q-2 -2 -2 -31q-4 0 -9.5 5t-15.5 5q-7 0 -2 -6t-2 -6t-29 13.5t-34 13.5q6 14 -10 51 q-1 4 -6.5 4.5t-6.5 5.5q-5 7 -7.5 21.5t-6.5 19.5q-4 10 -9 25q-10 28 -9 34q2 9 2 21q0 7 -13 57q-12 46 -6 84q0 4 4 26.5t0 30.5q-20 8 -61.5 -4t-52.5 -12q-18 0 -65.5 11t-76.5 26q-26 10 -47 76q-20 62 -20 100z" />
<glyph unicode="5" horiz-adv-x="854" d="M33 434q0 10 31 83.5t57 115.5q47 98 168 266q7 11 20 25t33.5 33.5t24.5 23.5q6 5 33.5 10.5t35.5 24.5q12 -5 39 -24.5t39 -24.5q3 -1 6 -10t8 -13h418q5 -4 5.5 -7.5t-0.5 -9.5t-1 -9q3 -3 7 -5t7 -3t5 -3.5t2 -5.5q-32 -6 -41 -24q0 -11 26 -17q-16 -8 -34 -26v-5 q0 -1 1 -4t1 -6v-8q-27 0 -60 -10q15 -15 15 -17q-15 0 -50.5 -13t-42.5 -13t-15.5 3t-16.5 3q-10 0 -78 -16.5t-76 -16.5q-33 0 -97.5 -10.5t-103.5 -34.5q-27 -20 -52.5 -83t-35.5 -79q20 -6 71.5 -19.5t87 -24.5t71.5 -27q4 -4 11 -22.5t11 -22.5q47 -72 47 -142 q0 -119 -30 -170q-5 -9 -20 -34t-23.5 -39t-24 -37t-28 -36.5t-28 -28t-31.5 -21t-32 -6.5q-32 0 -53 -9q-8 11 -28 31t-31.5 36.5t-8.5 31.5q-2 0 -4.5 4t-11.5 4h-8t-4.5 -1t-2 -1.5t0 -3.5t0.5 -4q0 2 1 6t1.5 6.5t-0.5 6.5t-4 7q27 3 39 45q10 37 22 66q3 0 6 -2 t4.5 -4.5t5 -7t5.5 -7.5q62 55 97.5 125t29.5 131q-30 17 -43 17q-34 0 -116 -49.5t-97 -49.5q-7 0 -31.5 7.5t-36.5 7.5t-24.5 26t-14.5 41q-6 6 -20 37q-9 3 -29 23q0 2 -2 6t-2 14z" />
<glyph unicode="6" horiz-adv-x="724" d="M31 156v168q0 21 16 53q2 10 5 44t9 52q13 55 58 152q146 295 381 544q15 8 55 34t57 36q2 6 23 27q3 -10 3 -22t-1.5 -26t-1.5 -22l8 -8q0 -39 -3.5 -55t-9 -17.5t-16.5 -21t-22 -58.5q-13 -23 -104 -179.5t-136 -238.5q14 -6 21 2.5t8 8.5q7 0 43.5 -14.5t44.5 -14.5 q9 0 9 4t9 4q13 0 43.5 -31.5t36.5 -44.5q5 -4 25 -11t26 -11q39 -25 62 -84q10 -33 10 -61q0 -47 -45 -121q-43 -76 -98 -119q-4 -3 -11.5 -21t-15.5 -26q-10 -11 -22.5 -21t-33.5 -24.5t-24 -16.5q-36 -18 -80 -34q-49 -19 -59 -19h-47q-43 0 -92 29.5t-74 75.5 q-6 -9 -6 -21q-3 6 -18 50t-33 59zM209 162q3 0 7 -2t7 -2l4 -2q9 2 49 11t63.5 18t41.5 24q47 31 95 86.5t48 69.5q0 24 -37 45q-36 22 -51 22q-34 0 -98 -35q-23 -15 -59.5 -46.5t-51.5 -41.5q-18 -14 -18 -39v-108z" />
<glyph unicode="7" horiz-adv-x="866" d="M20 319q3 5 14.5 7t16.5 4q4 5 18 17.5t19 21.5q27 3 82 11t78 10.5t73 6.5t68 0q5 0 12 10t7 17q4 23 25 88.5t26 93.5q9 22 -6 31q12 28 12 45q0 141 -76 141q-11 0 -67 -9t-64 -9q-9 0 -19 2t-18 2q-7 0 -38 -12.5t-38 -12.5h-34l-2 2q-9 9 -11 9v47q3 5 8 18.5t12 25 t17 21.5q-10 10 -10 21q6 1 96 30t131 29q8 0 46 -4.5t55 -5.5q66 -21 88 -45q81 -75 96 -144q14 -63 14 -131q0 -102 -45 -251q35 -5 81 -5t86 2.5t88.5 -8.5t88.5 -39q-1 -1 -12 -23t-25 -30q-35 8 -75 -18q-42 -28 -76 -31q-15 -9 -10 -14l-97 -25q-55 -12 -69 -12 q-26 0 -41 6q-66 -187 -156 -395q-9 -17 -32.5 -47.5t-39.5 -42.5q-4 0 -6 2t-3 6t-3 6q-6 -6 -15 -18t-15.5 -17.5t-14.5 -5.5t-14.5 4t-14.5 4q-9 0 -14.5 5t-7.5 5q0 22 -8.5 34t-17.5 15.5t-9 6.5q0 5 17 56.5t40.5 124.5t34.5 114q4 18 49 106q-49 9 -116 0 q-9 0 -28.5 -4t-27.5 -4q-10 0 -30.5 12.5t-34.5 24.5q0 14 -2 18q-16 19 -43 19q-4 17 -4.5 23t3 22.5t3.5 19.5q-1 5 -8 8.5t-7 7.5z" />
<glyph unicode="8" horiz-adv-x="768" d="M27 258q0 41 2.5 65t16.5 62t42 80q10 14 38 39t50.5 44.5t22.5 26.5v207q0 4 24 97q7 4 16.5 8t12.5 7.5t8 14.5q0 11 -4 15l-14 -11q4 3 4 16t10 13t11.5 -4t4.5 -4q0 4 -3 6t-3 12q0 7 25 36.5t47 51.5q18 15 66.5 30.5t58.5 19.5q1 -1 18 -16t25 -15q9 0 10.5 3 t9.5 3q11 0 64 -23l33 -18q35 -18 58.5 -41t34.5 -50.5t15 -52t4 -55.5q0 -76 -28 -164t-70 -153q-4 -8 -15 -30.5t-22 -42.5t-22 -34q-8 -11 -29 -22.5t-33 -11.5t-65 47q0 8 -11.5 28t-11.5 27q0 21 30.5 93.5t60.5 155t30 126.5q0 84 -49 84q-6 0 -47 -35.5t-41 -42.5 q-28 -59 -35.5 -93t-7.5 -91q0 -129 59 -271q15 -59 32 -159t17 -117q0 -35 -28.5 -105t-51.5 -102q-11 -7 -51 -21q-38 -14 -55 -14q-8 0 -33.5 3t-34.5 3q-4 0 -15 7t-24.5 16t-19.5 12q-42 25 -77.5 83.5t-43.5 104.5q-4 24 -10 82t-6 70zM199 225q0 -51 16 -89t51 -44 q-5 46 -17 135.5t-16 120.5q-17 -36 -24.5 -58.5t-8.5 -32.5t-1 -32zM215 770q1 7 4 27t2 28q-2 -4 -6 -55zM221 834l10 -7l11 33l-9 2z" />
<glyph unicode="9" horiz-adv-x="800" d="M20 371q0 42 15 86.5t47 93.5t55.5 80t65.5 82q-10 10 -15 10l-10 2q18 23 31 45q86 86 213 168q0 5 5 10.5t5 9.5q0 -10 6 -16q4 3 12.5 19t12.5 22q60 -13 100 -10q8 -6 18 -15t14 -12.5t13 -8.5t14 -3.5t17 2.5q0 -7 3.5 -31.5t-1.5 -30.5q14 -14 35 -14q6 0 16 10 t-6 15q7 2 11 1.5t13.5 -3.5t12.5 -4q1 -8 15.5 -22t17.5 -19q18 -24 18 -45q0 -16 -24 -58q-55 -76 -95 -209q-45 -169 -47 -227q-43 -162 -98 -500q-4 -17 3.5 -56t6.5 -54q-15 -85 -16 -115q-45 -35 -62 -35q-36 0 -71 21q-6 3 -15 24t-18 21q-8 0 -9 -2t2 -6t3 -7 q-16 11 -24 37.5t-8.5 42t-0.5 49.5l135 682v52l-14 10q-10 -8 -21 -20.5t-25.5 -31t-21.5 -26.5q-3 -3 -2 -14.5t-2 -20.5q-8 -7 -31 -28.5t-34 -31t-31.5 -26.5t-34.5 -25.5t-32.5 -17.5t-34.5 -12q-6 -2 -1 -7.5t5 -8.5q-34 2 -54.5 10t-25.5 16.5t-9 15.5t-10 7 q-9 0 -14 -2q-9 24 -16 67t-7 64zM74 573l47 78l10 -6l-51 -76zM131 668l25 30l10 -6l-25 -30zM205 432q33 27 92.5 85.5t79.5 76.5q44 34 90 91.5t53 105.5q-79 -47 -166.5 -149t-148.5 -210z" />
<glyph unicode=":" horiz-adv-x="395" d="M90 195q1 2 7.5 13t11.5 15q17 17 48 33t44 16q7 0 21.5 -12.5t32 -29t26.5 -21.5q20 -14 20 -68q0 -49 -8 -65q-21 -35 -55 -35q-43 0 -68.5 24t-46.5 69.5t-33 60.5zM135 770q17 -5 30 8.5t13 24.5q3 0 7 -1t14 -1q7 0 25 13t28 13q8 0 18.5 -7.5t14.5 -8.5 q11 -26 34 -45q25 -15 25 -80q0 -3 2 -6.5t2 -13.5q0 -20 -24.5 -43t-42.5 -23q-6 0 -32.5 6t-39.5 6q-21 21 -40 53t-7 52q-6 11 -23 18q0 26 -4 35z" />
<glyph unicode=";" horiz-adv-x="352" d="M16 -170q0 3 16.5 25.5t37 49.5t26.5 38q26 51 38 80.5t22.5 67t15.5 52.5q0 3 2.5 5.5t7.5 7t8 8.5q4 8 4.5 16t-0.5 19t-1 16l55 18q4 -3 5 -7.5t0 -13t-1 -9.5q3 -3 2 -5t0.5 -2.5t7.5 -0.5q7 0 7 2l1 3q2 1 6 1q18 0 27 -25q21 -41 21 -100q0 -45 -54 -174 q-1 -2 -15.5 -23t-14.5 -37q-1 0 -16 -5t-26 -10t-24.5 -17.5t-19.5 -28.5q0 13 -9 22q-17 -11 -20 -28v4q1 5 -1 6.5t-11 1.5q-17 0 -27 -23q-2 1 -7 6.5t-10 8t-12 2.5q-8 0 -14.5 -4t-9.5 -4l16 32q-10 10 -24 2q0 3 -4.5 9t-4.5 14zM160 668v67q34 0 67 17h25 q-5 -8 1.5 -22.5t16.5 -14.5q9 0 9.5 5t3.5 5q3 -4 11.5 -12.5t12.5 -16.5q10 -38 10 -73q0 -44 -8 -54q-2 -1 -9.5 -9t-15 -13.5t-14.5 -5.5l-8 8q-2 5 -6.5 0.5t-11.5 -4.5q-4 0 -39 20q-3 0 -6.5 4.5t-9 11.5t-9.5 11q0 5 17 22q-12 18 -25 15l8 14z" />
<glyph unicode="&#x3c;" horiz-adv-x="655" d="M55 414q0 8 9 25.5t20 27.5v16t4 19q68 74 92 92q3 3 16.5 10t20.5 12q18 18 53 43q7 5 31.5 21t38 25.5t29.5 23.5t22 25q12 22 37.5 38.5t34.5 16.5q5 0 7 -2t7 -2q4 0 39 17.5t55 21.5q2 -2 7.5 -13t13.5 -14q18 -13 33 -22q3 -8 -4 -35q0 -4 11 -9t3 -24 q0 -6 -19 -25q0 -3 -6 -7.5t-14.5 -9t-11.5 -7.5q-25 -22 -62 -45q-44 -35 -110 -95.5t-109 -93.5q-10 -6 -49 -45q32 -24 76.5 -69.5t58.5 -57.5q15 -7 37.5 -25t44.5 -30l68 -41q0 -1 11.5 -13.5t23.5 -27.5t21 -30.5t7 -22.5q0 -6 -5.5 -11.5t-6.5 -7.5q-3 -5 2 -15.5 t4 -14.5q-2 -2 -7 -10t-10.5 -12.5t-11.5 -4.5q-7 0 -15 -1t-15 -1q-6 0 -22.5 5.5t-43 16t-39.5 15.5l-14 14q-16 24 -84 70q-60 41 -115 86q-2 6 -12 16q-16 7 -34.5 25.5t-45 51t-31.5 38.5q-4 6 -13 17.5t-14 18.5t-9.5 17t-4.5 19z" />
<glyph unicode="=" horiz-adv-x="892" d="M20 332q0 9 8.5 15.5t10.5 10.5t-12 25q42 59 61 59q7 0 6 -2q2 -4 4 -4q4 0 16.5 5.5t28.5 13t25 10.5q6 0 -8 -14q2 -2 3 -4.5t1 -3t2 -1t8 -0.5q7 0 23 8.5t24 8.5q7 0 23 -6.5t20 -6.5q7 0 62.5 6.5t62.5 6.5q5 0 35 -4.5t71 -10t66 -8.5q14 -2 53 -11l71.5 -16.5 t37.5 -7.5h20l-4 5q-1 3 -3.5 4t-7 1t-7.5 1l-2 2q-3 0 -5 2t-5 2q20 9 39 -19q21 -24 43 -24q-7 0 -29 -13q0 -16 12 -16q-22 -10 -6 -22q-5 -2 -28.5 -17t-39.5 -20q-6 -2 -12 -19q-9 0 -38.5 -3t-37.5 -3h-331q-8 0 -11 -3.5t-6 -4.5q-22 0 -80.5 -7t-60.5 -7 q-23 0 -63 35t-40 57zM59 668q9 9 9 18q17 -5 36 16t31 21q13 0 25 -10q2 2 5 5.5t5 5.5t5.5 3.5t8.5 1.5q14 0 47 -14q10 -1 26 1.5t22 2.5t111.5 2t111.5 2q33 0 80.5 -2.5t120 -9.5t121 -25.5t48.5 -44.5q0 -19 -24 -49q-23 -14 -39 -14q-63 0 -80 -3q4 -4 11.5 -6 t11.5 -6q-167 0 -209 -4q-91 -14 -127 -14t-47 -4q-26 -6 -58 -8.5t-53.5 -2.5t-53.5 1t-42 1q-4 0 -17 7t-31.5 16.5t-31.5 13.5q3 3 4 9.5t-4 13.5l6 4q0 7 -5 18.5t-12.5 27.5t-11.5 26zM684 426l6 4l15 -12l-7 -6zM842 616l8 -8l6 6l-8 9z" />
<glyph unicode="&#x3e;" horiz-adv-x="604" d="M16 74q0 4 8.5 19.5t19.5 34.5t15 28q20 24 83 64t71 46q126 87 166 131q2 2 3 3.5t1 3t-1 3t-3 4t-5 5.5t-7.5 9t-8.5 13q-78 99 -276 297q-29 52 -29 72q0 1 -1 5.5t0 8.5t4.5 11t13.5 18t26 24q8 -3 37 4t33 7q3 -6 10 -13q16 -16 33 -16q13 -13 61.5 -60t78.5 -78.5 t57 -64.5l8 -18q94 -92 132 -150.5t38 -126.5q0 -38 -21 -49q-99 -81 -252 -188l-194 -131q-2 2 -3 4l-1.5 3t-3.5 2t-9 1t-11 -3t-7 -3v6q0 6 2 8l-6 6q-4 -4 -10 -7.5t-9 -6.5q-4 1 -10 15t-14 14t-9 -2t-3 -2q0 16 8 32q-2 2 -8.5 5.5t-6.5 11.5z" />
<glyph unicode="?" horiz-adv-x="839" d="M137 80v78q8 3 13.5 3t17 -2.5t16.5 -2.5q8 0 35 18q27 21 37 21q9 0 17 -7t10 -8q3 -4 6.5 -21t5.5 -24q8 -6 20 -10q9 -36 9 -39q0 -24 -6 -47.5t-24.5 -43.5t-45.5 -20q-9 0 -26.5 7t-28.5 18q-2 2 -6.5 11t-9.5 14.5t-9 5.5l-15 -2h1l12 10q-9 21 -29 41zM137 578 q0 20 18 53.5t43.5 68t58 73.5t57.5 67t47 52l22 23q4 4 21 20.5t22 25.5q5 6 21.5 33t29.5 40q2 2 19 14.5t20 18.5q10 10 22.5 37.5t16.5 34.5l4 6v12q0 17 -21.5 36t-29.5 19q-70 0 -143 -36q-5 -2 -35.5 -23.5t-46.5 -17.5q-5 -6 0 -17q-4 0 -4 -4v-8q-8 7 -20 9t-19 -3 l-13 10q-7 -10 -28 -10l-11 14q-3 3 0 7t10 10.5t9 9.5q-1 3 -3 9.5t-3.5 13.5t-1.5 14q0 25 77.5 73t94.5 48q34 11 93.5 20.5t74.5 9.5q32 0 96 -28t80 -58q7 -12 16.5 -50t9.5 -60q0 -48 -17 -96t-50.5 -98t-65 -88.5t-81 -95.5t-76.5 -91q-17 -21 -48 -52.5t-53.5 -61 t-38.5 -66.5q29 -16 45 -29q0 -7 8.5 -25.5t8.5 -25.5q0 -9 -3 -14t-3 -7l-1 -5q-1 -6 -1 -11q-7 -4 -21 -15t-25.5 -19.5t-15.5 -8.5h-27q-12 0 -46.5 23.5t-47.5 41.5q-18 38 -31.5 90t-13.5 87zM238 1090v8h18v-8h-18z" />
<glyph unicode="@" horiz-adv-x="1306" d="M59 123q0 2 12.5 70t12.5 96q0 4 10.5 19.5t11.5 25.5q11 34 38.5 82t50.5 71q1 4 0.5 7t-1.5 5t-1 3q70 82 116.5 134t118 117t135.5 103q7 4 29.5 13t36.5 18q3 1 8 13.5t14 12.5q6 0 6 -1q3 -3 5 -3q7 0 13.5 9t6.5 16q8 0 18 -2t17 -2q8 0 32 11t31 11q8 0 44.5 -13 t43.5 -13q15 0 15 12q21 -8 47 -8q12 0 16 4t-2 10q82 -40 156.5 -110t105.5 -142q14 -28 30.5 -90t16.5 -76q0 -4 -11.5 -33.5t-14.5 -46.5q-4 -10 -10 -38.5t-11 -42.5q-10 -19 -29 -58.5t-37 -73.5t-36 -63v-16q-18 -37 -70 -74q-43 -33 -76 -51q-9 -2 -14 -17 q-54 -14 -100 -14q-14 0 -38 16t-36 21q-29 15 -49.5 38.5t-30.5 53.5t-14.5 53t-7.5 53q-11 -6 -22 -27l-11 -20q-80 -74 -107 -88q0 -4 2 -8t2 -8q-2 0 -10.5 4t-17.5 4q-8 0 -11 -3.5t-6 -4.5q-17 20 -51 47v-16q-37 76 -37 102q0 32 20.5 74.5t24.5 60.5q36 24 119 121 q14 18 55 59q6 6 52 35t61 53l6 -6h11q4 0 26 11.5t29 11.5q9 0 21 -3t16 -3q-15 -18 -35 -27q6 -2 23 -10t27 -11t17 -3q8 0 15 1t10 1q-1 -6 0.5 -13.5t4 -16t3.5 -11.5q0 -3 3 -15.5t3 -21.5q0 -36 -24 -107q-44 -107 -47 -116q-3 -4 -3 -11t1.5 -16t1.5 -14 q0 -2 -1 -13.5t-0.5 -19t2.5 -17.5t9 -15t18 -5q10 0 36.5 13t33.5 28q-3 7 6 16q43 24 84 117t41 158q0 47 -8 55q-9 9 -21 39q-1 4 5.5 19t3.5 20q-2 3 -13 13.5t-14 19.5q-3 3 -4 6.5t-1 8t-1 7.5q-2 3 -12 20.5t-19 26.5q-3 1 -40 23t-50 22q-9 0 -21 -4t-16 -4 q-68 0 -139.5 -39t-112.5 -90q-3 -4 -17.5 -9.5t-17.5 -8.5q-29 -29 -94 -115l-61 -57q-45 -58 -56 -78q-47 -78 -49 -80q-6 -11 -10.5 -31t-3.5 -33q-3 -10 -8 -17.5t-5 -9.5t3 -18q-5 0 -10.5 -5t-6.5 -11q-14 -42 -14 -64q0 -59 44.5 -136t113.5 -124q1 -1 8.5 -2.5 t17 -5t13.5 -6.5q13 -7 46.5 -27t49.5 -28q26 -12 65.5 -23.5t51.5 -11.5q4 0 36 -4t39 -4q33 0 64 -8q-4 -4 -14.5 -18.5t-20.5 -22t-22 -7.5h-50q0 -2 -2.5 -5.5t-4 -5.5t1.5 -4.5t12 -4.5q-4 0 -15 -5t-16 -5q-4 0 -19 1t-20 1q-4 0 -5 -0.5t-3.5 -3t-5.5 -4.5 q-13 -1 -47 -7t-39 -6q-7 0 -36 5.5t-36 5.5q-5 0 -35 16t-35 16q-8 0 -10.5 -5t-5.5 -5q0 9 -10 12q-3 3 -15.5 6t-17.5 7q-11 8 -44.5 33.5t-44.5 34.5t-34 29t-39 39.5t-33 43.5q-30 37 -55 123.5t-25 132.5z" />
<glyph unicode="A" horiz-adv-x="929" d="M2 496q0 4 5 10.5t12.5 13.5t9.5 10q10 -10 22 -10q11 0 42 9.5t50 19.5q68 3 103 16q33 70 120.5 271t137.5 297q28 62 94 184q5 8 40.5 55.5t53.5 79.5q13 21 13 72l2 2q6 6 10 6q7 0 17.5 -3t17.5 -3l11 -2q11 -2 11 2q6 -17 19 -17q7 0 6 1q2 3 4 3q9 0 27 -19 t22 -36q16 -36 16 -151q0 -3 -1.5 -15t-3.5 -27t-3 -22q-4 -8 -0.5 -34.5t2.5 -37.5q-30 -245 -35 -344l-32 -235q8 -4 22 -4q71 -10 168 -10q0 -15 10 -15l-10 -12q3 -18 29 -33q-48 -19 -170 -53q-23 -6 -49 -8q-5 -9 -11.5 -33.5t-7.5 -28.5q-7 -12 4 -41q-3 -4 -7 -5.5 t-5 -4.5q-2 -18 -2 -102t-10 -127q-6 -31 -6 -54q0 -9 2 -17q4 -26 0 -63.5t-23 -76.5q-8 -19 -8 -49q-3 0 -6.5 -3.5t-7.5 -3.5q-16 -3 -19 -16q-6 6 -29.5 16t-29.5 13q-18 26 -25.5 57t-7 53t3 59.5t2.5 57.5q-4 5 -1 38t3 38l4 266h-76q-21 0 -112.5 -25.5t-97.5 -31.5 q-12 -23 -42.5 -90.5t-54.5 -108.5q-21 -21 -26 -35q-26 -53 -37 -102q-3 0 -4.5 2t-2.5 6t-3 6q-11 -15 -11 -31q-2 0 -4.5 -1t-4.5 -0.5t-5 4.5l-10 -11q-3 6 -18.5 12.5t-20.5 10.5q-11 5 -17 21.5t-6 29.5q0 39 45 145q9 27 47 113q-17 12 -52 34t-46 30q-9 13 -28 47 t-19 41zM430 586q17 0 51 -4.5t57 -5.5h6q23 0 66 6l35 452q-52 -81 -128.5 -254t-86.5 -194z" />
<glyph unicode="B" horiz-adv-x="714" d="M4 270q0 4 4 34.5t11.5 72.5t13.5 67l98 486q22 123 62 278q-7 10 0 21q3 19 19.5 64.5t16.5 49.5q0 5 -15 28t-15 30q0 11 39 45q5 3 15.5 3t14.5 3q80 55 209 55q3 0 20 -1.5t38.5 -3.5t31.5 -3h6l13 4q0 -4 8 -12q68 -25 78 -25q5 0 5.5 1t-0.5 4.5t-1 5.5 q9 -15 36.5 -24.5t32.5 -12.5q32 -16 62 -43q1 -5 18 -33q7 -12 15 -35.5t8 -34.5q0 -6 -11.5 -30t-11.5 -27q-7 -26 -19 -50t-30.5 -47.5t-31 -38t-36.5 -39t-32 -32.5q-23 -24 -225 -194q-13 -7 -33 -18t-52.5 -37.5t-31.5 -43.5q0 -5 32 -36t77.5 -76t68.5 -74 q26 -33 37 -59t20 -66q9 -30 9 -86q0 -48 -9 -74q-12 -67 -32 -108q-17 -36 -56 -88q-5 -12 -47 -54q-15 -15 -62 -39t-53 -24q-5 0 -17 -5t-17 -5q-7 0 -29 8t-27 8q-7 0 -9 -3t-9 -3q-6 0 -7 2.5t0 5.5t-3 4q-43 11 -79 63t-50 105q-3 2 -12.5 9.5l-19 15t-17.5 14.5 q-19 59 -19 98zM147 268l29 25q0 -4 -1.5 -10.5t-0.5 -10.5q7 4 15.5 6t11.5 5q0 -19 3 -58.5t3 -60.5q12 12 16 8q-13 -34 -13 -60q0 -5 1 -10q6 2 19 7t21 8t18 8.5t16 11.5q2 2 24.5 25t36.5 31q1 1 2 5t4 9q4 8 23.5 34.5t25.5 45.5q15 42 17 80l2 28l1.5 21t0.5 10 q0 76 -39 127q-48 62 -133 131q-9 -41 -26.5 -109t-22.5 -88q-8 -52 -41 -157q-1 -5 -6 -7t-7 -4v-51zM326 1015q-1 -20 6 -32q6 24 45 37q85 79 153 158q5 4 7 14l2 10q5 5 21 19t20 20q62 66 84 119q-32 12 -50 12q-5 0 -7 -1.5t-2.5 -3.5t-2 -3.5t-4.5 -1.5q-5 0 -15.5 2 t-15.5 2q-26 0 -50.5 -5t-59.5 -16t-56 -16q-12 -3 -28.5 -14.5t-20.5 -11.5q-6 -64 -20 -254q-5 -14 -6 -34z" />
<glyph unicode="C" horiz-adv-x="761" d="M8 440q0 155 92 406q4 14 28.5 57t31.5 58q4 7 8 17.5t8 23.5t6 18q57 105 152 229.5t158 153.5q30 24 38 24q7 0 16.5 -7t16.5 -7t6 2q5 2 6 2q27 0 70 -16q8 -1 25 -15.5t28 -19.5l11 -5.5l12 -6t10.5 -6t10.5 -7t9 -7t9 -8.5t7 -9.5t7 -11.5q19 -39 19 -101 q0 -20 -9.5 -31.5t-11.5 -19.5q-7 -36 -12 -49q-5 -14 -45 -76q-8 -3 -18 -16t-15 -13q-3 0 -11.5 2t-17 2t-16.5 -4q-5 1 -2.5 9.5t2.5 9.5q-3 4 -11 4h-10q-35 35 -43 39q7 21 20.5 55.5t23.5 59.5t10 30v27v4h-2q-1 0 -2 1t-2 1q-18 0 -68.5 -56t-50.5 -65 q-6 -10 -29.5 -45.5t-32.5 -54.5q-12 -22 -46 -75.5t-48 -84.5q-10 -26 -29.5 -88t-33.5 -96q-3 -12 -13.5 -43.5t-13.5 -48.5q-3 -12 -10 -44.5t-11 -50.5t-9 -44.5t-7 -49t-2 -41.5q0 -4 -4 -16t-4 -19t5 -18t5 -16q0 -33 2 -47q0 -19 31.5 -89.5t62.5 -70.5q13 0 13 14 q1 -1 4 -5.5t7 -6.5t11 -2h37q20 8 72.5 23t77.5 24q17 6 57.5 25.5t56.5 25.5q5 1 13.5 11t11.5 12q15 10 31 18.5t38.5 18.5t30.5 14q22 9 31 31q2 2 22 2q3 0 4.5 -1.5t1.5 -3.5t0.5 -5t2.5 -5l16 12q17 12 26 17.5t24 15t27 14t21 5.5q3 1 7 9.5t8 12.5q31 18 37 -10 l-33 -25l8 -30q-62 -43 -84 -74q-22 -25 -74 -61q-14 -8 -26 -33q-78 -43 -179 -115q0 -2 1 -6q2 -8 -3 -8q-2 -2 -3 -4t-2 -3t-3.5 -2t-7.5 -1q-9 0 -9 1q-1 2 -3 5q-7 -7 -11 -19q-8 -2 -32 -8.5t-44.5 -12t-23.5 -5.5q-2 0 -17.5 -5t-17.5 1q-3 -4 -2 -7.5t-0.5 -5.5 t-7.5 -2q-8 0 -35 4t-30 4q-7 0 -9.5 -4t-9.5 -4q-32 0 -103.5 54t-84.5 75q-5 8 -17.5 24.5t-23.5 33.5t-19 34q-16 26 -28 50t-21 50t-13.5 40t-12 42.5t-9.5 34.5q4 10 -1 44.5t-5 35.5zM756 217l6 -6l8 14l-8 4zM799 250l6 -4l16 10l-4 6z" />
<glyph unicode="D" horiz-adv-x="749" d="M0 305q0 6 1.5 6.5t3.5 -1.5t5 1q3 30 10 65t19 86t18 77q2 8 55 198.5t102.5 382t49.5 228.5q0 4 -3.5 23t-4.5 28q-1 3 -12 16t-11 19q0 16 13 16q17 -10 26 -10q12 0 78 -23l8 -8q7 -8 13 -8q14 0 67 -33q195 -116 269 -215q92 -134 92 -289q0 -16 -7.5 -77t-17.5 -91 q-11 -37 -61 -131q-4 -9 -11 -33.5t-12 -37.5q-22 -49 -86 -146q-119 -155 -131 -172q-6 -7 -16.5 -15.5t-25.5 -21t-25 -20.5q-71 -76 -105 -90q-4 -1 -7 -8t-5 -9q0 1 1 4.5t0 5.5t-5 5q-2 -3 -5.5 -10.5t-8.5 -15t-11 -11.5q-14 -13 -41 -28t-37 -15q-4 0 -15 2t-20 2 l-10 10v-2q0 -4 -6 -4q-5 0 -13.5 6t-16 12t-18.5 17t-15 14q-3 5 -2 8l2 4q-43 67 -43 90q0 3 12 30.5t12 35.5t-14.5 24t-16.5 21q-7 11 -10 29q-6 16 2 41q0 2 -5 6t-5 12zM110 134q0 -6 3 -13q5 3 11 9t9 7q2 -2 0 -8q2 -2 4 -2q6 0 7 11.5t3 13.5q3 -3 3 -5h3h5 q5 0 19 10.5t31 26.5t36 35t34 35t27 28l12 13q11 11 48 70q16 8 36 31t32.5 42.5t32 52.5t23.5 39q-31 -31 -59 -73q17 28 48.5 78t55.5 91.5t41 78.5q22 48 43 119t21 126q0 71 -24 137t-76 91l4 4q-6 5 -25.5 20.5t-31.5 24.5t-30 19.5t-32 15.5q2 -20 2 -41 q0 -52 -12 -114q-17 -87 -47 -188.5t-39 -148.5q-27 -74 -95 -324q-3 -6 -13.5 -28.5t-16.5 -35t-11.5 -30t-5.5 -28.5q-1 -3 -4 -3.5t-4 -3.5q-15 -90 -31 -145q-2 2 -2 14q-9 -15 -16 -22q0 -2 3.5 -11t-1.5 -10q-9 9 -18 9q0 -2 -1.5 -7t-1.5 -11z" />
<glyph unicode="E" horiz-adv-x="772" d="M6 317v138q8 8 8 12q7 42 17.5 84.5t18.5 68.5t13.5 51t4.5 44t-9 35q18 -6 27 14q48 135 107 313q2 5 9 19.5t12 26.5t5 18q0 10 -15.5 22t-29.5 17q0 4 -14 21t-17 30q-22 70 -26 84v14l2 2q3 6 10 6q3 0 4 -1t0 -2t0 -2t4 -1q8 0 12 5t5 5q130 36 172 45 q14 20 23.5 38t11 24.5t8 11.5t14 5.5t29.5 0.5q8 0 24 -12q2 -5 5 -9.5t8.5 -9t9.5 -7.5t11.5 -8.5t10.5 -8.5q8 -2 13 -2q2 0 54 7.5t79 8.5q40 2 99.5 2.5t107.5 -1t89.5 -2.5t43.5 -1q8 0 66.5 -13t92.5 -24q73 -23 99 -43q12 -9 14.5 -27t9.5 -26q-42 -26 -47 -26h-270 q-5 0 -17 -6.5t-16 -6.5q-13 -4 -47 -5.5t-45 -4.5q-17 -5 -135 -22l-10 -11q-12 4 -33.5 2.5t-32 -3.5t-32 -6.5t-34.5 -6.5v-4q0 -2 -4 -2q-6 0 -29 -4t-36 -4q-20 -9 -29 -23q-18 -39 -55 -172q-6 -16 -30 -89.5t-42 -113.5l8 -8q20 10 29 10q6 0 8 -1t3 -4t3 -5l15 14 l6 -4h6q8 0 181 39t181 39q5 0 7 -0.5t2 -1.5t0.5 -1.5t3.5 -0.5l137 31l-10 -8q14 -11 14 -31q0 -8 -7 -16t-9 -13q-1 -4 3.5 -9t4.5 -9q-14 -3 -40 -15.5t-38 -15.5q0 -2 -2 -4.5t-4 -4.5q-10 -11 2 -11q-22 0 -49 -15q2 -2 4.5 -3t4.5 -0.5t5.5 1t5.5 0.5l-303 -121 q-25 0 -110 -36q-49 -15 -103 -15q-7 0 -6 1q-2 3 -4 3q-21 0 -45 -159q-8 -43 -18.5 -114t-10.5 -83q0 -8 2 -12t2 -6q0 -1 -0.5 -13.5t4.5 -23.5t19 -29q2 0 10 -3t16 -3q7 0 10.5 5t10.5 5q8 0 17 -8t14 -8q7 0 20.5 3t20.5 3t55 18q49 15 113 49q9 5 40.5 30.5 t49.5 25.5q5 0 7.5 -5.5t6.5 -5.5q3 -9 0 -15.5t-1 -15t13 -16.5q-3 -3 -12 -21.5t-18 -27.5q0 -6 16 -6q-10 -6 -32.5 -30.5t-24.5 -30.5q-2 -2 -5.5 -8.5t-8 -12.5t-11.5 -10q-17 -14 -52 -31t-62 -27t-31 -10h-78q-8 0 -12.5 2.5t-6.5 3.5q-47 0 -106 48 q-105 71 -135 161q-9 23 -17 71t-8 60z" />
<glyph unicode="F" horiz-adv-x="849" d="M8 754q8 3 32.5 7.5t37.5 8.5q43 5 57 14q11 42 39.5 141t42.5 148q7 21 20.5 72t20.5 74q2 3 9.5 15t11.5 20t4 12q0 7 -9.5 34.5t-9.5 34.5v15q10 10 25 10q7 0 7 -3t7 -3q5 0 17 8t24 12q7 0 12 -8q58 3 166 18q12 3 32 9.5t35 11t21 4.5h13q3 0 45.5 6t102 14.5 t93.5 12.5q25 9 43 12q12 4 72 4h12h14.5t14 -0.5t15.5 -1t14.5 -2t15.5 -3.5t13.5 -5t14 -7t11.5 -9q-2 -5 0.5 -15t7.5 -14q-2 0 -2 -2v-8q0 -3 4 -7.5t4 -7.5q-22 0 -28 -2q-20 -8 -23 -22q-41 0 -74 -21q-4 -2 -49 -24q-38 -9 -114.5 -24.5t-98.5 -20.5q-3 0 -15 -9.5 t-20 -9.5q-24 0 -37 -4t-53 -22q-46 -17 -94 -17q-9 0 -23.5 -1.5t-32.5 -9t-22 -18.5q-32 -71 -68.5 -206t-46.5 -166l484 49q2 0 90.5 2t95.5 2q5 0 7.5 -0.5t3 -0.5t0.5 -0.5t1 -0.5q1 -2 4.5 -5.5t5.5 -6t3.5 -5.5t0 -5.5t-6.5 -4.5q0 -4 7.5 -9t14.5 -7q0 -11 12 -31 q-4 0 -17.5 -3t-18.5 -3q-7 -4 2 -22q-16 0 -25 -7q8 -4 10 -4q-7 1 -21.5 -10t-25.5 -14q-49 -19 -134.5 -39.5t-100.5 -20.5q-7 0 -11 3t-8 3t-20.5 -6.5t-41 -14.5t-44.5 -11q-49 -9 -107 -13q-6 -1 -43 -5t-60 -7t-57.5 -9.5t-60.5 -14.5q-4 -26 -13 -59t-21 -75 t-17 -59q-4 -19 -7.5 -60.5t-6.5 -56.5q0 -3 -7 -14.5t-8 -20.5q-3 -4 -4.5 -16t-2.5 -28.5t-3 -26.5q-3 0 -10 -10q-4 -85 -29 -162q3 18 -12 30q-4 -8 -7.5 -22.5t-7.5 -22.5q-4 3 -5.5 7.5t-4.5 7.5q-4 -3 -10 -4.5t-10 -5.5q-3 3 -11 10.5t-13 12.5t-11 12t-9 12.5 t-3 9.5q0 5 4 12t4 12q1 94 11 200.5t18 157.5t28 179q-43 28 -60 65.5t-22 90.5z" />
<glyph unicode="G" horiz-adv-x="983" d="M6 397q0 1 6 49q4 6 1.5 25t-1.5 25q67 267 213 512v16q16 24 57.5 90.5t67.5 102.5q-5 4 -20 4q56 73 112 129q11 23 50.5 54t44.5 50q12 12 26.5 17t33 7.5t26.5 4.5q2 1 3 6.5t9 5.5q7 0 6 -2q3 -4 6 -4q7 0 7.5 5t7.5 5q23 0 61 -24q4 3 5.5 7t4.5 7q75 -29 138 -84 t63 -113q0 -30 -13 -63.5t-32 -52.5q-3 -3 -8 -14t-11.5 -19t-13.5 -8q-6 0 -7 1.5t0 3.5t-3 5q-29 -42 -47 -72q-3 0 -9 5t-12 5t-8 -1.5t-1 -7.5l1 -5q-6 0 -16 10q-19 0 -19 -24q-12 16 -12 30t4 27.5t8.5 22.5t16 28.5t18.5 32.5q39 102 39 127q0 17 -9.5 29t-21.5 12 q-11 0 -57 -23q-27 -9 -52 -27t-38.5 -32.5t-42.5 -49t-43 -50.5q-9 -10 -24 -39.5t-19 -36.5q-4 -8 -22.5 -33t-26.5 -41q-7 -21 -11 -24q-3 -5 -14 -17.5t-14 -17.5q-87 -161 -160 -314q-27 -56 -53 -145q-3 -7 -4 -28t-4 -29q-13 -40 -15 -60q-18 -141 -18 -164 q0 -64 18 -93t76 -29h41q8 0 11.5 5.5t6.5 6.5q21 11 61 26t71 31.5t55 40.5q0 2 -2 4h10q5 0 21 16.5t24 20.5v4q0 2 -2 4q-5 -6 -16.5 -10t-14.5 -6q20 13 54.5 44.5t48.5 41.5q10 1 20.5 6.5t22 18.5t18 20t20 26t15.5 21q-2 2 -14 2q-6 0 -13.5 -2.5t-18 -7t-16.5 -6.5 q-7 -3 -30 -6t-31 -6q-139 -58 -143 -58t-17.5 8t-33.5 21.5t-27 17.5q-10 10 -13 19q9 13 0 33.5t-22 27.5q3 15 25 31q98 45 106 45q3 0 4.5 -1.5t2 -3.5t2.5 -3.5t7 -1.5q7 0 54 29.5t53 29.5q3 0 4.5 -1t1 -2t1.5 -2t7 -1q15 0 38.5 11.5t29.5 17.5q68 20 94 20 q7 0 13.5 -2t13.5 -2q86 0 129 -16q4 -4 22.5 -16t22.5 -15q18 -11 35.5 -37t17.5 -37q0 -7 -38.5 -61.5t-47.5 -63.5q-10 -11 -41.5 -50t-50.5 -58q-142 -131 -244 -207q-166 -107 -225 -107h-47q-108 0 -176 68q-25 0 -9 -14q-23 18 -42 39.5t-30 38t-22 41.5t-15.5 37.5 t-13 40.5t-10.5 36q-3 10 -3 26t1.5 38t1.5 34q0 8 -3 22t-3 19zM387 1276l4 -6l12 12l-4 6zM401 1290l9 -4l4 14l-8 3zM565 285l6 -6l17 16l-4 4zM590 309l6 -6l27 21l-5 6z" />
<glyph unicode="H" horiz-adv-x="1028" d="M6 618v17l13.5 13.5t21.5 17.5q25 9 81.5 23.5t72.5 19.5q41 149 51 202q11 46 102 480q1 8 1 30t1 31q-2 0 -2 2q-4 1 -6 8q2 1 7 9t13 8q7 0 7.5 -2t7.5 -2q6 0 8 1t1 6.5t-1 6.5q3 -4 8.5 -4.5t15.5 1t15 1.5q4 0 15 -6t16 -6q7 0 7 2t5 2q15 0 28.5 -12.5t21 -27 t13.5 -28t7 -14.5q0 -21 -6.5 -86t-16.5 -94q-4 -4 6 -17q-20 -53 -69.5 -242t-49.5 -202q0 -6 -1 -9v-1l3 -3q59 14 199 31l152 21l4 2l4 4q18 73 37 178l5 32q6 32 8 40.5t8 41.5t10 47.5t11.5 46.5t13.5 50.5t15 47t17.5 49t19.5 43.5t23 42q2 9 20 31q1 3 13.5 25.5 t11.5 31.5q3 -3 11.5 -8.5t12.5 -9.5q24 8 33 29q3 -5 8.5 -11t5.5 -7.5t-2 -8.5q10 -8 33 2q49 -68 49 -88q0 -6 -5.5 -29.5t-14 -56.5t-12.5 -51q-12 -46 -39 -111q-3 -10 -15.5 -73t-21.5 -93q-3 -13 -16.5 -45.5t-18.5 -48.5q-4 -30 -20 -55v-41q18 3 36.5 3t36.5 -3 q-7 -22 3.5 -38.5t35.5 -12.5q-4 -3 -12.5 -6.5t-11.5 -6.5q6 -16 34 -16q-12 -4 -41 -17.5t-36 -13.5q-6 0 -8 2t-5 2l-6 -12q1 -3 0 -8q-1 -6 2 -6q-6 1 -12 -2.5t-10 -6.5t-9 -9l-6 -7q-1 -1 -12.5 -6.5t-15.5 -13.5q-25 -56 -37 -156q-6 -45 -36.5 -237.5t-43.5 -284.5 q-34 -9 -45 -23q0 15 -4 19q-5 -3 -2 -19q0 1 1 4t-0.5 3.5t-8.5 0.5t-7.5 -4t-7.5 -4q-10 0 -28 14.5t-23 26.5q1 5 -3.5 12.5t-4.5 14.5q0 5 5 16.5t5 16.5v71q0 11 -0.5 36.5t-0.5 46t1 36.5q0 4 6 27.5t6 38.5q0 18 -8 24q11 25 12.5 80t2.5 63q16 88 16 103q0 1 1 8.5 t1 14t-1.5 13.5t-5.5 11.5t-11 3.5l-363 -63q-2 -2 -2 -9q0 -2 2 -2q-12 -19 -14 -47q-69 -253 -78 -387q0 -2 -4 -10t-4 -14q0 -14 20 -23q0 -4 -5 -17t-5 -16q1 -4 7.5 -15.5t6.5 -16.5q0 -6 -16 -54q-33 19 -55 19q-6 0 -7 -1q-5 -3 -6 -3q-18 0 -49 53.5t-31 68.5 q0 20 -3 62.5t-3 46.5t4 34t9.5 73t7.5 61q3 26 17 77.5t18 69.5q-71 35 -111 60q-5 7 -12 39q-6 29 -23 32zM1012 733q5 0 11.5 4t6.5 8q-6 9 -18 9v-21z" />
<glyph unicode="I" horiz-adv-x="903" d="M4 121q0 5 5.5 19t6.5 22q6 5 31.5 10.5t42.5 5.5l20 -8q19 -8 33 -4q26 -8 57 -10q13 -1 27 0q19 0 40 1q36 2 52 1l3 4l43 291q3 9 9.5 41.5t16.5 52.5q0 14 -6 14q14 23 23 70.5t10 50.5v2q0 2 -6 8l145 492q-6 6 -27 6q-8 0 -15.5 -6t-12.5 -8q-20 -5 -47 -5 q-5 0 -17.5 2.5t-17.5 2.5q-8 0 -35 -7.5t-31 -7.5q-17 0 -59 33q-15 15 -26.5 59.5t-14.5 51.5l18 4q17 4 21 18h29q24 0 24 2.5t-8 7.5q1 0 2 2.5t4.5 4.5t9.5 2q4 0 15.5 -3t25.5 -4q7 2 -4 7q16 0 37 -5q10 7 -4 7q8 0 29 -1t30 -1q4 1 23.5 5.5t32.5 4.5q3 8 -4 8 q6 -3 12.5 -4t11 -1t11 0.5t8.5 0.5q6 0 22.5 3t40 8t41.5 7q16 0 71 3t81 3q4 0 23 1t26 1q13 0 78 -7t108 -15l43 -29q6 -25 12 -35v-16q-8 -3 -21 -16t-18 -13q-7 0 -6 3q-3 4 -6 4q-5 0 -13 -7.5t-13 -7.5q-115 0 -283 -28q-1 0 -10 -7q-4 -50 -16 -89t-31 -88.5 t-31 -94.5q-4 -12 -15.5 -35t-15.5 -35q0 -1 -1 -12.5t-5 -19.5q-30 -64 -59.5 -167.5t-44.5 -135.5q-5 -13 -9 -38t-6 -34q0 -6 4 -6q-3 0 -4.5 -7t-5.5 -8q0 -2 -39 -176q-16 -50 -16 -78v-36q16 0 48 2t34 2l358 -31h-2q-4 0 -8 -4q0 -8 18 -8q3 0 11.5 -1t11.5 -1v-19 q-3 -4 -7 -5.5t-14.5 -3.5t-19.5 -5q21 -13 29 -19q-15 0 -19 -4q0 -17 -18 -32q-30 -13 -56 -13q-5 0 -7 -1.5t-1.5 -3.5t-1 -3.5t-4.5 -1.5q-7 0 -3 5t-1 5q-6 0 -7.5 -1t-0.5 -4t0 -5q-74 0 -129 -8q-50 -6 -213 -10q-7 0 -14 -7.5t-7 -15.5q0 -7 9.5 -43t9.5 -43 q0 -4 -4 -9.5t-10.5 -13.5t-10.5 -14q-4 0 -14 3t-15 3l-14 25q-22 9 -42 51t-26 47q-30 5 -80.5 8t-90.5 9t-76 22q-39 23 -60 70q-12 9 0 37h-6q-2 0 -2 10zM309 1337v9h23v-9h-23z" />
<glyph unicode="J" horiz-adv-x="1042" d="M0 119v117q0 3 8 13t18 21.5t13 18.5q23 52 55 69q-6 -4 -10.5 -10t-8 -13.5t-5.5 -10.5v-2q0 -5 2 -7q3 3 24.5 30.5t36.5 41.5q8 8 25 15t22 10q0 -49 15 -54q-9 -6 -10.5 -22t-2.5 -19t-11 -13t-11 -19q8 -10 35 6q-12 -9 -35 -50t-23 -61q0 -8 6 -8.5t7 -3.5 q-18 -41 0 -41q6 0 7 2q0 2 3 2q-5 -20 -5 -42q0 -32 12 -67q20 -57 75 -104h2q45 -86 207 -86q36 0 67.5 16t52.5 39.5t41 58t32 64t27 65.5t25 54q4 9 10.5 40t15 73t11.5 57q0 5 12 25q11 44 19 151l14 156q3 9 2 11t-0.5 23.5t4.5 53.5q1 5 1 21t1 24q3 3 11 27 q4 118 13 222t22 212.5t16 144.5q4 0 14 2t17 2q4 0 17.5 -12.5t21.5 -13.5q5 -5 16 -17t21.5 -22.5t21.5 -18.5q27 -105 27 -114q0 -3 -4.5 -31.5t-4.5 -42.5q0 -1 -4 -25l4 -14q-3 -13 -7 -36t-7 -34q0 -1 3 -6.5t4.5 -9.5t0.5 -10t-6 -9q-7 -96 -8 -141q-3 -98 -12 -151 q-3 -3 -5.5 -28.5t-5.5 -33.5q0 -46 -14 -178q-10 -113 -23 -190q-12 -82 -47 -181q-56 -169 -110 -266q0 -14 -4 -18q-37 -84 -88 -121q-37 -23 -54 -23q-7 0 -9 5.5t-9 5.5q-4 0 -14 -5.5t-17 -5.5q-8 0 -19 5t-14 6q-151 17 -296 137.5t-205 269.5q-4 12 -16.5 39 t-12.5 35z" />
<glyph unicode="K" horiz-adv-x="1056" d="M4 164q0 72 25 179t50 189t25 93q0 7 -22 24l2 9q1 10 1.5 17t-4 14t-15.5 7q6 2 0.5 26.5t-5.5 29.5q8 5 33.5 13t44.5 19.5t25 28.5q50 117 63 219q16 107 54 230q3 11 9 39t12 49.5t13 33.5q3 5 -1.5 12t-4.5 9q8 17 14 45.5t12 62.5t9 48h29q12 0 2 10q15 -3 21.5 -2 t13 4.5t8.5 3.5q6 0 29 -10.5t36 -10.5q12 -24 24.5 -57t12.5 -43q0 -4 -5 -24t-5 -29q3 -18 3 -38.5t-3 -43.5q-6 -46 -12.5 -71.5t-20.5 -69.5q-11 -39 -28 -115q-9 -41 -33 -117l14 -12q14 25 51 41q44 29 160 84q115 56 176 92q58 34 107 55q4 2 17.5 12t28 17.5 t25.5 7.5q5 0 23 -7t26 -7q7 0 12.5 5t12.5 5q9 0 46.5 -31t41.5 -47q12 -36 12 -41q0 -10 -9 -19.5t-21.5 -16.5t-31 -14t-31 -10.5t-28 -8t-16.5 -4.5q-143 -64 -213 -115l-444 -238q-1 0 -6 -3l-7.5 -4.5t-7.5 -5t-8 -5.5t-7 -6t-6 -7t-3.5 -7.5t-1.5 -8.5q0 -8 13.5 -21 t34.5 -27.5t40.5 -27t37.5 -23t19 -11.5q21 -14 48 -33.5t63.5 -46t60.5 -43.5q8 -7 36 -21.5t36 -21.5q97 -67 198 -168q122 -122 140 -211q-5 0 -14 -5t-17 -5q-3 0 -14 5t-19 5q-47 0 -55 6q-22 19 -66 69.5t-75 75.5q-88 92 -214 180t-298 191q-5 -4 -21 -43 q-7 0 -10 -6q-7 -27 -26 -94t-29.5 -109.5t-20.5 -107t-10 -121.5q0 -30 4 -39q27 -20 27 -35q0 -23 -19 -53q-8 4 -33 6.5t-39 7.5q-12 6 -32.5 27.5t-32.5 40.5q0 1 -1.5 5t-3 9.5t-1.5 9.5q-31 20 -31 150z" />
<glyph unicode="L" horiz-adv-x="800" d="M4 248q0 44 20 110.5t60.5 167t42.5 105.5q53 173 63 200q1 2 6.5 12.5t6.5 16.5q5 19 30 97t39.5 136.5t18.5 110.5q16 26 20 76q3 16 12.5 56t12.5 61q2 10 2 51h31q18 0 24 -2q31 -14 51.5 -32.5t29 -40.5t11 -39t2.5 -40q0 -4 -3 -23t-3 -26q-13 -108 -24 -143 q-19 -67 -42.5 -164t-45 -175t-50.5 -157q-78 -209 -135 -399v-12l422 38h180q3 0 44 7t59 8v-2q3 -3 14 -18.5t19 -20.5q0 -1 1 -15t5 -20q-2 -2 -9.5 -6.5t-15 -10t-14.5 -12.5q0 -12 10 -12q-13 -4 -33.5 -15t-35.5 -19.5t-19 -8.5q-7 0 -8 3t-8 3q-3 0 -25 -6.5t-50 -14 t-42 -10.5q-57 -6 -200 -34.5t-212 -28.5q-12 0 -59 8.5t-76 18.5q-18 10 -46 39.5t-46 56.5q-13 22 -27 94q-8 8 -8 31z" />
<glyph unicode="M" horiz-adv-x="1570" d="M0 51q9 7 16 27l7 4q7 4 10 8q-2 4 -2 9.5t-2 8.5t-9 3q-4 0 -5 1v-1q0 -1 -3 -5l13 13q3 7 0.5 28.5t1.5 28.5q27 105 108 295q3 16 29 49v25q2 10 21 49t14 59q11 0 16 -8l1 -6q0 -6 5 -10q4 3 7.5 13.5t7.5 14.5q-3 -8 -9 -29.5t-11.5 -37t-12.5 -29.5v-2q0 -2 2 -2 q7 4 10 12l84 201v4q0 2 -2 4q-8 -8 -14.5 -21t-15 -33.5t-13.5 -31.5h-2q-2 0 -6 4q-2 -1 -8 -5t-11 -9q0 -14 -6 -29q-4 0 -6 2q-1 0 -3 1t-3 1q3 8 12.5 34t15.5 41.5t15.5 34.5t17.5 28q4 8 12.5 35.5t12.5 35.5l3 4q2 4 4.5 6.5t6.5 2.5q-4 -4 -9.5 -21t-8.5 -20 q-1 -4 0 -6.5t2.5 -4t1.5 -2.5q-10 -26 -23 -39q0 -4 1 -9t1 -9q-10 10 -14 10q0 -27 -10 -82q22 46 49 111q0 -3 -2 -8t-2 -8l6 -9q4 5 9 16.5t9 16.5q-10 10 -18 2q0 4 2 6q0 1 2 4t2 4h2q2 0 6 -4l232 463l-6 6l-19 -14q15 19 15 23q0 -2 4 -2h6q3 2 9.5 16t14.5 20l-6 4 q-2 -2 -7 -4.5t-7 -4.5t-2 -5q0 2 3 4.5t-3 5.5q-3 -3 -12.5 -17t-18.5 -19v-5q0 -2 2 -4l-61 -98q0 -14 8 -22q0 2 -4 6q-13 -20 -27 -49t-27 -51t-32 -40q9 19 31.5 78.5t37.5 85.5q1 2 51 91.5t70 134.5l15 12q6 -1 9.5 -10t4.5 -11l10 11q5 0 14.5 -2.5t14.5 -2.5 q4 3 4 6t-2 7t-2 6q11 -8 24.5 -15t20.5 -13.5t14 -20.5h8q4 2 2 8t-2 8q20 -12 31 -33t18 -48t13 -38q3 -15 13.5 -64.5t13.5 -70.5q16 -192 16 -223v-170q0 -55 -14 -270l8 -9q18 6 18 25v-2q0 -3 6 -6q3 1 4 2.5t3.5 5t5.5 6.5q-6 -6 2 -20q3 9 16 22v21q0 6 -13 0 q-12 -6 -1 -11q0 -2 -2 -2h-9q31 36 62 90q-2 -6 -9.5 -19.5t-13 -26t-8.5 -23.5v-2q0 -2 2 -4q4 5 13 17t14 19.5t10.5 18.5t8.5 20q0 -10 3 -14q17 17 17 39l-8 -10q34 49 41 63q2 4 6.5 12t7 13t2.5 11t-6 9q6 3 11.5 10t9 12.5t9 15t7.5 12.5q67 94 104 151 q31 54 80 154q1 3 8 6t10 8l72 102q8 13 19.5 43t19.5 43l10 7q10 7 15.5 12t12.5 16t9 23q-3 0 -7 -2t-7 -2q2 3 13 10t19 17t5 24q0 -8 2 -10q2 3 6 6.5t6 5.5t4 5.5t2 6.5q0 4 -18 4q-6 0 -11 -4t-11 -13t-7 -11q11 41 59 100h17v-2l-4 -8q5 -3 18.5 -2.5t22.5 -3.5 q2 2 2 6v16q6 -3 20.5 -10t18.5 -10q10 -11 18 -13q5 0 18 -6l13 -6q4 -3 8 -14t8 -15q24 -42 29 -57q8 -28 8 -106q0 -20 -11.5 -73t-11.5 -54q-1 -4 -1 -15t-1.5 -20t-5.5 -15l-6 -12t-6 -14q0 -2 2 -2q0 -4 6 -4q-4 -3 -6.5 -7t-5.5 -11.5t-6 -12.5q-84 -357 -115 -510 q0 8 -4 16q-4 -7 -4 -14.5t2 -16.5t2 -14v2q0 3 -6 9q0 -6 -5 -22.5t1 -22.5l2 2q2 2 2 6q0 -1 -3 -12.5t1 -14.5q-2 0 -2 2l-1 2q-1 3 -5 4q-5 -19 -17 -116l1 -3q0 -3 0.5 -9.5t1 -17.5t0.5 -32.5t-3 -48.5q1 -16 3.5 -32t7 -37.5t6.5 -30.5q18 -36 18 -45v-29 q0 -10 -13 -21.5t-24 -11.5q-5 0 -13 2t-13 2q-10 0 -43 29q0 6 -3 12q-44 41 -59 107q-10 38 -16 102t-6 86q0 5 8 65.5t8 65.5v23h4q6 0 8 2q4 25 3.5 32t-4 10.5t-3.5 6.5q0 4 5.5 20t13 37.5t10.5 34.5q6 21 6 61q-12 0 -12 -18q-2 14 4.5 38.5t19.5 41.5v27 q-3 -3 6 -17q3 3 3.5 4t-0.5 3t-1 5q0 4 3.5 19t3.5 24l2 4q2 4 3.5 9.5t0.5 9.5l-2 2h-4q0 22 9 70t9 51q0 4 0.5 7t0.5 4t-0.5 2t-2.5 3q-3 -3 -11.5 -7.5t-14 -8.5t-5.5 -8l-10 10q-3 -3 -5.5 -8t-6.5 -8q0 -9 8 -9q-4 -16 -21 -43q0 3 2.5 9t2.5 10q-24 -13 -48 -66 q-5 -8 -17 -22t-13 -15q-2 -15 -29 -63q-3 -6 -3.5 -22t-4.5 -23q-56 -115 -135 -256q-15 -15 -21 -25q-17 -30 -49 -101t-53 -102q-19 -37 -50.5 -129.5t-56.5 -132.5q-6 -4 -29 -8t-36 -4q-4 0 -12.5 11t-12.5 14q-79 42 -82 94l-16 14q-3 16 -3 48.5t-1 39.5 q-13 50 -13 70q0 6 6 10t7 6q-1 9 0.5 26.5t1.5 22.5l10 11q-14 20 -14 60l1 30q0 25 -1 45l4 325q0 6 -3 6q-2 0 -3 3q-4 6 1 19t5 15q0 7 -17 58q-1 8 0.5 26t1.5 23q0 89 -12 141q-23 -16 -35 -51q-17 -42 -67 -160t-78 -185.5t-67.5 -168t-67.5 -180.5q-5 -15 -24 -61 t-27 -70q-37 -120 -64 -254q-1 -1 -3.5 -27.5t-16.5 -36.5q-2 0 -12.5 -9t-18.5 -9q-5 0 -13 1.5t-15.5 1.5t-14.5 -3q-4 13 -25.5 38t-29.5 40q-16 26 -2 59l-19 16q-2 5 1 10.5t3 10.5t-10 12zM8 94l4 8l13 -4l-5 -8zM178 483h8l11 37h-9zM186 565l7 -6l8 14l-8 5z M205 610l8 -2l8 21h-8zM225 692v17h11v-17h-11zM334 928q6 15 6 30l6 -8q-2 -4 -12 -22zM340 963q4 17 12 26l10 10q0 9 -10 9l4 4q4 4 4 8q0 -25 5 -33q11 2 30 33l-37 -82q3 5 2 16.5t2 16.5q-5 5 -22 -8zM365 1014l8 12l8 -2l-8 -14zM623 90l6 2l6 -14h-6zM795 432h10v12 h-10v-12zM811 467l6 -4l8 12l-8 4zM910 651l3 15h9l-7 -19zM934 690l18 49h9l-23 -51zM971 750q1 17 18 46.5t31 43.5q-9 -13 -26 -46t-23 -44zM1034 874l4 13l9 -2l-7 -17zM1044 903l13 12l4 -4l-12 -12zM1075 961q31 23 31 28q0 -2 -9 -15.5t-10 -21.5q-2 0 -4 2 q-1 0 -1 1q-1 3 -5 3q-2 0 -2 3zM1110 979l8 12l6 -2l-6 -12zM1110 1004l8 18l6 -2l-10 -21zM1139 1069h4q3 0 6 -6l2 2q4 4 4 6q0 -5 -3 -9.5t-3 -8.5q-10 10 -10 16zM1169 1087q0 4 2.5 13.5t2.5 13.5q0 -19 -5 -27zM1241 1198v8q0 11 6 17q0 -17 -6 -25zM1249 215h11 l6 -31h-9zM1270 1255l8 13l6 -2l-6 -13zM1292 1298q16 10 41 41q-3 -7 -14 -22.5t-14 -24.5q-5 0 -7 2q-2 0 -6 4zM1327 983q12 0 12 14zM1331 1346l27 36q-10 -20 -10 -39q-3 3 -17 3zM1341 997q9 9 18.5 23.5t12.5 17.5q-23 -16 -31 -41zM1354 881h6v12h-6v-12zM1405 1421 q16 26 16 37q-2 0 -6 4q-4 0 -6 2q0 -8 -2 -23t-2 -20z" />
<glyph unicode="N" horiz-adv-x="1112" d="M2 160q0 32 18 73q3 12 6 42.5t7 48.5q90 319 125 424v30q12 51 88 334l59 207q5 23 2 41q-1 5 -1 19t-1 22q4 11 8 20.5t9.5 17.5t9 13t11 11l10 8t10.5 7.5t10 6.5l18 -4q18 18 31 18q16 0 33 -14q1 0 18 -1t27 -5q26 -13 43 -47q1 -5 0 -20t0 -19q0 -33 -11 -90 q-3 -14 10 -44.5t15 -41.5q0 -28 4 -33q13 -44 41.5 -134.5t40.5 -134.5q91 -331 107 -387q1 -2 20 -26q8 7 12 15.5t7.5 23t5.5 20.5q-9 -27 -9 -51q0 -12 2 -23q38 156 48 187l114 477q6 18 16.5 34t15 26.5t1.5 25.5q5 10 21 62.5t30 62.5q3 11 51 141q-5 4 -8.5 2 t-3.5 -8q0 13 10 23q0 -12 7 -15q6 6 6 23q0 18 -13 28q12 -3 35 -2t37 -2q8 5 8 13q-5 8 -20 2l20 4q6 -3 13.5 -3t13.5 -3t12 -13q6 0 17 15q8 -13 8 -31q20 -15 24 -16q0 -20 17.5 -33t17.5 -25q0 -3 -15.5 -33.5t-36 -73t-30.5 -67.5q-2 -6 -18.5 -52t-22.5 -69 q-5 -6 -10 -49q-3 -10 -20 -53.5t-26 -76.5t-9 -58q0 -2 -13 -25q-17 -61 -20 -114q-10 -19 -19.5 -52.5t-9.5 -44.5q0 -14 -18 -84q0 -1 6 -10q-3 -26 -15.5 -85t-15.5 -79q-4 -4 -6.5 -4t-5.5 -4q0 -2 2 -2q0 -2 4 -2q-3 -42 -16 -74q0 -2 8 -10q-26 -186 -35 -334 q-34 -24 -47 -24h-51q-8 0 -31 14q-16 8 -31 20.5t-34 32t-25 25.5q-26 23 -39 61q-4 11 -25 79.5t-36 100.5q4 4 4 9q-7 7 -13.5 23t-13.5 39.5t-8 27.5q3 3 0 12q-3 10 -8 10q-6 10 0 19q-52 134 -68 190q-53 179 -78 270q-3 9 -14 17l-6 -2q-47 -218 -90 -355 q-4 -14 -19 -26q-11 -30 -30 -94t-21 -70q-1 -3 -2 -4t-3.5 -2.5t-4.5 -3.5q-1 -4 -8.5 -30t-8.5 -44q-11 -14 -12 -20q-7 -31 -21 -75t-21.5 -75.5t-4.5 -56.5v-21.5t2.5 -29.5t9.5 -15q-10 -10 -16 0q-2 -3 -4.5 -7.5t-3.5 -7.5t-4 -5t-8 -2q-7 0 -20.5 -2t-20.5 -2 q-4 0 -14.5 8t-18.5 8q-5 0 -10 -4q-7 17 -56 92q6 10 4 12q-1 8 -6.5 33t-5.5 29zM29 250l8 -4l4 12l-4 4zM37 276l14 11q0 4 -1 15t-1 15q-12 -32 -12 -41zM53 344h8l5 23h-7zM106 508q5 15 11.5 46.5t7.5 35.5q-5 -15 -11.5 -46.5t-7.5 -35.5zM131 600q21 47 21 59 q0 8 -3.5 10.5t-3.5 4.5q0 -16 -14 -74zM1024 1395l8 26h8l-8 -26h-8zM1044 1448l9 12l6 -2l-6 -12z" />
<glyph unicode="O" horiz-adv-x="995" d="M4 481q0 59 10 152q14 73 35 129q3 5 4.5 22t5.5 25q7 22 26 72t26 75q13 8 26 48q14 53 81 168t158 220t150 105q7 0 33 -10t33 -10q3 0 20.5 7t26.5 7q17 0 55 -10q7 -4 18 -5.5t24 -1.5t18 -1q12 -3 27 -9.5t22 -10t27 -15.5t22 -13q24 -16 57.5 -49t38.5 -37 q0 -1 -1 -7t-0.5 -10t3.5 -7q41 -70 62 -94q3 -13 13 -53t15 -62q11 -32 11 -72q0 -31 -7 -67q9 -9 9 -25q-1 -7 -5.5 -18.5t-8 -20t-1.5 -20.5t13 -23q10 10 12 10q-2 -4 -7 -21.5t-11.5 -28.5t-16.5 -15q11 -11 8 -21q-68 -189 -183.5 -376t-234.5 -306q-12 -13 -53 -34 q-2 -2 -6 -8.5t-9 -12t-11 -8.5q-63 -43 -85.5 -51t-78.5 -8h-78q-14 0 -41 24q-2 1 -20.5 7t-26.5 14q-57 47 -100 100q-17 25 -54 88q-3 10 -11 32.5t-13 37t-10 35t-7 36.5q-10 51 -10 127zM180 375q0 -55 21.5 -150.5t50.5 -113.5h5q29 1 69 21q42 22 76 48.5t83.5 78.5 t69.5 75.5t63 73.5q7 8 11.5 25t9.5 20q3 4 17 18t20 23q3 4 5.5 19t6.5 19q1 4 3 7t7.5 6t8 4.5t10.5 4t10 3.5q0 2 -1.5 8.5t-0.5 9.5q6 12 27.5 51.5t30 56.5t26.5 52.5t28.5 59t23.5 55t22 59.5q21 115 35 138q-3 0 -15 12q0 59 -16 153q0 7 -13 40.5t-39 69.5t-51 36 q-13 0 -24 -2.5t-19 -5t-21 -11t-19.5 -13.5t-25.5 -19.5t-30 -22.5q-18 -10 -35 -16q-14 -11 -40.5 -44.5t-45.5 -45.5q-4 -3 -7 -12t-7 -13l-6.5 6.5t-5 3.5t-6.5 -2q-18 -31 -31 -31q-3 0 -4 1t0 2.5t0 2.5t-4 1q-7 0 -10.5 -7.5t-10.5 -7.5q-5 0 -6 4t-6 4 q-14 0 -43 -53v-18q-20 -52 -47 -107q-8 -17 -19.5 -54t-15.5 -46q-5 -13 -20 -38t-19 -38q-10 -32 -22 -91t-17 -77q-13 -40 -31 -172q-6 -48 -6 -61z" />
<glyph unicode="P" horiz-adv-x="825" d="M6 96q0 22 24.5 72t26.5 61q14 53 50 180.5t53 194.5q39 164 164 653q3 14 6 53.5t6 57.5q-45 19 -66 71q-17 42 -17 79q0 9 1 18q24 14 33 16q33 11 73 11q31 2 54 2q7 -1 7 -3t1 -3q12 0 29 -5.5t29.5 -11t34.5 -16t28 -13.5q3 -3 20 -8t21 -8q362 -234 362 -467 q0 -16 -18 -86q-3 -8 0 -14q-20 -70 -67.5 -149t-110.5 -138q-79 -68 -168.5 -127t-149.5 -82q-3 -4 -27.5 0t-27.5 4q-9 0 -31.5 -9t-26.5 -9q-21 0 -24 10v4q-21 -10 -25 -39q-7 -17 -16.5 -66.5t-17.5 -72.5q-3 -9 -19.5 -48t-19.5 -58q-2 -12 -4 -34.5t-4 -36 t-9.5 -35.5t-19.5 -44l-19 -25q-2 0 -8 -2t-14 -2q-4 0 -14 6.5t-15 6.5q-8 0 -12.5 -4.5t-7.5 -4.5q-2 3 -3.5 10.5t-4.5 12t-9 4.5q-8 0 -9 -1t-3 -1q0 2 2 3t2 9q0 6 -5.5 14t-15.5 21t-16 23q4 1 1 10.5t-3 15.5zM350 629q31 0 68 14q-7 9 -3 16t10 10l16 8t14 9l2 -6 v-2q-3 -6 10 -6q48 38 53 45l-2 -1q-2 -1 -6 -1h-4q-4 4 -1 6t3 4q108 52 196.5 186.5t88.5 243.5q0 35 -53 91t-121.5 98t-110.5 42q-2 0 -2 2q-1 3 -4 3q-5 0 -15 -2.5t-14 -2.5v-24q0 -6 9 -42.5t8 -51.5q-7 -62 -31 -191q-12 -50 -38 -150t-34 -132q-3 -17 -20.5 -78 t-18.5 -88z" />
<glyph unicode="Q" horiz-adv-x="1001" d="M4 332q0 123 36.5 237t113.5 269v10q3 9 15 26t15 23q9 11 9 29q12 6 22 16q-4 3 -5.5 3.5t-4 -0.5t-4.5 -1q11 17 32 53.5t36.5 60t31.5 38.5q5 18 4 20q8 6 31 29q59 109 203 246t217 137q7 0 8 -4t8 -4q5 0 7 1t1.5 3t1 3t4.5 1q4 0 19 -7.5t22 -7.5q5 0 5 3.5t8 3.5 q15 0 34 -6.5t36.5 -16t32 -18.5t26 -17.5t12.5 -9.5q23 -17 23 -29q0 -5 -5.5 -9t0.5 -17v-8v-5q-5 -4 -20.5 -6t-20.5 -6q-36 -36 -100 -127q6 6 6 19q-4 3 -7.5 3t-7 -1.5t-5.5 -1.5q10 29 26 63q19 43 19 49v17q-6 6 -23 6q-21 0 -81 -40t-76 -56q5 -5 21 -11t28 -6 l114 -82q82 -49 124 -121t42 -149q0 -11 -5 -31t-12.5 -43t-18 -51t-21 -53.5t-21.5 -52t-19 -44t-15 -32.5l-6 -15q-9 -13 -39.5 -55t-51 -73.5t-26.5 -49.5q0 11 -6 17l-5 -5t-5 -5.5t-4.5 -5t-3.5 -6t-1 -7.5q0 -6 8 -25q-4 -16 -2 -24q31 -129 39 -226q0 -5 17 -53 q11 -28 11 -45q0 -13 -5 -20q5 -6 10 -18.5t7.5 -21.5t8 -29t7.5 -26q-14 -16 2 -57q0 -5 -6 -13.5t-6.5 -14t10.5 -21.5q-29 11 -48 37q-27 38 -58.5 108.5t-51.5 128.5q-9 32 -32.5 89.5t-31.5 82.5q-9 -6 -21 -22.5t-15 -20.5q-5 -5 -20.5 -17.5t-30 -25t-25.5 -24.5 q-3 -1 -4 -11t-4 -14q-6 -4 -21 -16.5t-24 -16.5l8 13q-6 3 -12.5 -3t-8.5 -7q-5 -5 -26 -28t-31 -32q-5 -2 -33.5 -16t-56.5 -25.5t-41 -11.5q-2 0 -34.5 2t-53.5 2q-56 19 -98 61t-62.5 92.5t-29.5 95t-9 83.5zM168 207q0 -19 14 -82q5 0 14 -2t13 -2q8 0 8 2.5t2 3.5 q30 8 67.5 30.5t58.5 39t81 65.5q21 17 72 68q3 3 4.5 10.5t5.5 11.5q4 -4 6 -4h6q-8 8 0 17q7 9 31.5 34.5t34.5 40.5q3 -6 8 -6h2v8q-1 5 5.5 17.5t6.5 19.5q0 1 -10.5 42.5t-22 95.5t-14.5 85q-12 136 -12 162q0 11 3 22t14.5 22.5t31.5 11.5q32 0 37 -7q0 7 2 9q0 2 2 2 q11 -8 33.5 -23t39.5 -28t29 -27q4 -5 10.5 -19t10.5 -18q-5 -7 -15 -38t-10 -42q0 -22 19 -49q1 1 7.5 11t13.5 19t14 15q6 16 29 64t32 79q2 8 7.5 26t9 31t3.5 17q0 36 -17.5 99t-33.5 87q-18 36 -65 66.5t-80 30.5q-4 0 -14 -8t-25 -21.5t-23 -19.5q-2 2 -6 4t-6 4t-2 6 q-3 -5 -14 -10.5t-11 -8.5q-30 -30 -38 -49q-13 -33 -60 -98.5t-67 -112.5q0 -3 -6 -5t-7 -5q-99 -173 -152.5 -296.5t-64.5 -244.5q-3 -9 -12 -18v-135z" />
<glyph unicode="R" horiz-adv-x="921" d="M4 145q0 200 127 756q7 23 52 150t65 188q-9 3 -26 6t-30.5 7.5t-25.5 11.5q-7 6 -15.5 28t-23.5 25v2q0 4 -4 8q0 3 4 10t4 11q4 7 5 14t0.5 15.5t0.5 13.5q8 7 16.5 16t19 19.5l15.5 15.5q22 16 54 20q4 0 8.5 7.5t9.5 7.5q141 18 150 18q77 0 214 -54.5t177 -101.5 q6 -18 6 -20q32 -28 49 -57t31 -70q0 -1 4 -9t7 -16t3 -14q0 -17 -12 -49q-9 -42 -39 -92q-6 -9 -24 -26.5t-23 -22.5q0 -9 -12 -25l-54 -51q-78 -70 -145 -117q-114 -75 -133 -86q-9 -7 -40 -18t-44 -19q-5 -7 -27 -20q27 -27 86.5 -87.5t102.5 -102.5t101 -93.5t115 -89.5 t111 -61q18 -8 59.5 -27t68 -31.5t59 -30t51.5 -32.5q10 -10 10 -45q0 -3 -3.5 -6.5t-6.5 -5.5t-2 -3q-12 -12 -25 -12h-43q-16 0 -92 23q-5 1 -14.5 1t-17 1t-11.5 4q-229 93 -479 352q-12 13 -28 28t-41 35.5t-38 30.5t-47 36t-39 30q-3 0 -4.5 -2t-3.5 -5.5t-4 -5.5 q-31 -155 -41 -231q-3 -8 -6 -21.5t-6 -21.5q2 -16 2 -45q0 -9 -2.5 -20.5t-5 -18.5t-7 -19.5t-6.5 -17.5q-4 -19 1 -63q3 -24 3 -42q0 -14 -2 -24q-17 -14 -37 -14q-10 0 -32 22q-2 1 -12 7t-18.5 12.5t-12.5 13.5q-11 22 -19 54.5t-8 45.5zM315 836q9 10 19 0q0 10 24 28 q27 19 78.5 50.5t93 61t78.5 66.5v19q117 117 133 180q-42 45 -128 79t-162 34q-5 0 -16 -3t-13 -3q22 -55 22 -72q0 -65 -8 -98q-6 -29 -18 -65t-27.5 -75.5t-19.5 -52.5z" />
<glyph unicode="S" d="M2 432q0 8 3 13t3 8q3 0 6.5 -6t8.5 -9q0 6 -2 18t-2 24t4 24q2 0 12 -17q3 8 3 18q0 21 -11 52q3 0 3.5 5t8.5 5t8 -2q1 -2 4 -2q0 7 4 20t4 21q0 -3 -3.5 -21t1.5 -22q1 -5 5 -5l4 -1q2 -1 4.5 -21.5t15.5 -21.5q3 -21 12 -45l11 10q0 -41 17 -96t34 -72q5 -5 14 -21 t17 -28t14 -12q5 0 5 1t-1.5 4t-1.5 5q11 -28 86.5 -57t122.5 -29q12 0 24 4l11 -8q3 3 20 9t21 9q36 22 47 58q4 11 4 51q-1 10 -4 10q5 41 0 55q-71 234 -154 410q0 2 -29 94t-58.5 201t-29.5 152q0 18 2 45q2 26 11 67q9 50 61 141q0 3 -3 6t-3 7q8 3 23 15.5t20 12.5 q7 0 4 -5t2 -5q7 0 35 23.5t37 23.5q18 1 48 3l52.5 3.5t28.5 1.5q3 0 22.5 -7t44 -15.5t35.5 -11.5q3 -2 18.5 -11t29 -15t24.5 -7q32 -4 59.5 -43t43.5 -92t25 -103t9 -82q0 -29 -12 -75l-7.5 -15t-9.5 -22q-8 0 -18 10l-16 -18h2q0 4 2 6v2q0 2 -2 4q-16 -6 -35 -25 q0 15 -2 21q-15 7 -49 45l-5 14l1 14q2 15 6 21h-4q-7 0 -7 6q0 34 4 43h4.5t4.5 4l6 10q-1 2 0.5 2.5t1.5 8.5q0 31 -16 83t-35 66q-13 12 -38.5 26.5t-33.5 14.5q-7 0 -6 -2q-5 -2 -6 -2q-8 0 -13 5.5t-8 6.5q-2 2 -20 2q-14 0 -64 -33t-55 -42q-34 -57 -41 -95 q-8 -16 -8 -38q0 -64 8 -95q0 -5 8.5 -20t9.5 -23q3 -10 4.5 -32.5t6.5 -41.5t16 -34l47 -148q0 -1 14 -24q11 -31 27.5 -82.5t33 -98t38.5 -100.5q19 -35 36 -127.5t17 -152.5q0 -46 -16 -99q-1 -3 1.5 -13.5t-1.5 -14.5q-11 -47 -66 -86q-1 -1 -7.5 -8l-13 -14t-12.5 -11 q-10 0 -16 -2q-52 -27 -111 -27h-45q-7 0 -53 17.5t-53 17.5t-6 -2q-2 -4 -4 -4q-5 0 -17.5 12t-17.5 21q-5 5 -44 28t-57 43q-78 90 -88 140q-4 7 -14.5 30t-19.5 37q0 2 4.5 9t1.5 10q-1 2 -13 14q3 12 3 21.5t-2.5 26t-2.5 22.5q0 4 -6 11t-6 15z" />
<glyph unicode="T" horiz-adv-x="817" d="M2 1409q0 21 16 21q8 0 34.5 -4.5t29.5 -4.5q54 0 68 19l2 -2q0 -4 4 -4q8 -3 25.5 -4.5t25.5 -4.5l463 60q23 4 112 4v6q0 4 11 4h63h60t52 -0.5t55 -2t51 -3.5t58.5 -6t60 -9t72 -12t78.5 -16q-7 -7 3 -14q2 -5 -17 -21q17 -17 21 -18q-30 -13 -81.5 -30t-60.5 -17 q-8 0 -11 5t-7 5t-29 -11.5t-35 -11.5q-217 -25 -317 -55q0 -1 -7.5 -62t-13.5 -92q-1 -2 -20 -75q-2 -11 -13.5 -58.5t-15.5 -72.5q-5 -27 -21.5 -102.5t-27 -137.5t-10.5 -104l-84 -564q-16 -6 -39 -28l-10 10q-5 -5 -10.5 -13.5t-10.5 -13t-12 -4.5q-9 0 -88 64 q4 6 12.5 15t14.5 16.5t6 13.5q3 40 7 116.5t7 116.5l4 131q9 86 29.5 250.5t28.5 233.5l73 321q-44 0 -71 -2q-13 -2 -62 -11t-101.5 -17t-88.5 -11q-2 0 -11 1t-18 1l-8 -10q-16 3 -28.5 2.5t-30.5 -3.5t-23 -3q-8 0 -26.5 10t-41.5 24.5t-30 18.5q-8 6 -16 16.5t-12 17.5 t-12 21.5t-10 18.5q-8 15 -10.5 48.5t-5.5 43.5z" />
<glyph unicode="U" horiz-adv-x="1210" d="M4 260q0 13 5 69.5t11 90.5q1 9 8 32.5t9 32.5v15l110 364l154 365q11 4 18 16.5t13 31t12 28.5q23 17 25 34q3 8 4 26.5t4 27.5q0 -2 2 -2q2 -2 10 -2q6 0 8 -1.5t3.5 -3.5t5.5 -2q5 0 12.5 7.5t11.5 7.5q7 0 8 -4t8 -4q4 0 7.5 2t11.5 2q27 0 39 -20.5t12 -39.5 q0 -42 -42 -170q-21 -60 -25 -55q-1 -4 1 -9t1 -9q-31 -89 -103 -261q-4 -9 -6.5 -34t-5.5 -33l-66 -176l-6 -49q-3 -7 -26 -63t-31 -85q-6 -43 -12.5 -115.5t-6.5 -85.5v-8.5v-8.5t0.5 -7t1.5 -7t3 -5.5t5 -5t7 -2.5t10 -1q23 0 59.5 22.5t61.5 49.5q2 2 12 2 q21 25 75 83.5t93.5 107.5t69.5 100q29 44 112 149q1 0 1.5 4.5t2.5 10t5 8.5q61 77 92 135q9 15 31.5 59t42 76t34.5 39q-3 14 8 34t28.5 43.5t21.5 31.5q2 4 28.5 68.5t38.5 99.5q21 47 37 73q4 -3 13.5 2t15.5 5q5 0 4 -5.5t4 -5.5t7.5 1t2 2.5t-0.5 2.5l-1 2 q3 -5 24.5 -1t24.5 4q4 0 19 -15.5t35 -38t28 -30.5q2 -8 2 -37q0 -45 -33.5 -173.5t-37.5 -160.5q-1 -7 -15 -45.5t-10 -54.5q-23 -98 -37 -189q-4 -32 -13.5 -85.5t-16.5 -92t-7 -43.5v-123q0 -7 -5 -8t-5 -8q0 -58 35 -113q8 -10 19.5 -18.5t27 -17t22.5 -13.5 q2 -11 27 -43q-3 -3 -4.5 -10t-2.5 -12.5t-3.5 -10t-7.5 -4.5h-21q-3 -3 6 -12q-4 0 -12.5 -6.5t-13.5 -6.5q-7 0 -10.5 4.5t-10.5 4.5t-43 20q-33 19 -59 37q-7 4 -15.5 13t-17.5 19t-12 13q-2 1 -6.5 4.5t-6.5 4t-6 -2.5v6q0 2 4 6q-7 8 -13 18.5t-11.5 26t-8.5 26 t-8.5 31.5t-7.5 30q0 12 2 14q-1 6 -6.5 21.5t-5.5 23.5v315q-1 4 -0.5 5.5t0 3t-3.5 4.5q-36 -48 -92.5 -131t-102 -147t-101.5 -134t-118 -122.5t-125 -82.5q-6 -3 -14 0q-22 -16 -135 -16q-17 0 -48 29.5t-40 29.5q-3 0 -4 -1t0 -2t0 -2t-4 -1q-9 0 -35 29q-24 30 -33 51 q-11 19 -16 33q-1 3 -2 10t-2.5 15.5t-4.5 15.5q-6 8 -10 28q0 2 -1 14.5t-1 20.5z" />
<glyph unicode="V" horiz-adv-x="681" d="M2 1327q0 7 6.5 20t7.5 21q8 5 30 10.5t34 5.5t41 -19.5t33 -31.5q1 -2 12 -35t16 -51q15 -77 19 -268q1 -26 5.5 -108t4.5 -113q0 -21 -2.5 -74t-2.5 -86q0 -5 -1 -10q0 -30 3 -72q3 -50 11 -94q21 15 43 56.5t27 47.5q4 7 18.5 22t22.5 27q2 5 7.5 21t8.5 22q1 2 18 19 t23 31q95 174 164 276q8 15 39 56.5t43 62.5q56 85 92 135q1 1 4 1.5t6 2.5t4 6q5 10 90 142h7q84 75 104 135q16 0 25 20q18 0 18 -8q0 -4 4 -12h2q5 -13 5 -14.5t-5 -10.5v-4q8 3 17 0l20 19q-2 -10 -19.5 -29.5t-13.5 -32.5h2q1 0 3 2t3 2q-5 -7 -14 -4q-4 -9 -17 -30.5 t-20 -34.5v-2q0 -5 2 -7q3 3 10 11t13.5 14t13.5 10q-1 -2 -8 -14.5t-9 -19.5t3 -13q-4 -5 -35 -47t-37 -57q-13 -41 -49.5 -89.5t-42.5 -70.5q-1 -5 -10 -17.5t-10 -17.5q-4 -34 -13 -49q-8 -15 -43 -70q-9 -10 -21.5 -39.5t-19.5 -40.5q-8 -17 -33 -50t-34 -50 q-9 -15 -2 -29q-7 -8 -10.5 -14t-8 -18.5t-6.5 -18.5q-23 -3 -33 -26q5 -5 15 -5q-13 -25 -31 -40q-4 -1 -1.5 -7.5t1.5 -7.5q-3 -1 -5 -0.5t-3 0t-2 -3.5q-20 -43 -67.5 -131.5t-63.5 -120.5q-16 -42 -29 -57q-3 -3 -9.5 -10t-10.5 -12t-5 -9q-13 -28 -40 -100.5 t-46 -108.5q-7 -7 -29 -17.5t-32 -10.5q-4 0 -10 3.5t-14 9.5t-13 9q-8 2 -20 2q-6 5 -30.5 34t-53.5 40q2 18 2 42t-2 53q-4 59 -11.5 141t-9.5 137q-6 35 -6 116q0 42 -3 140.5t-6 180.5t-3 85zM764 1276l12 18l4 -6l-8 -16zM883 1425l8 13l6 -4l-12 -13zM913 1466l13 13 l6 -6l-12 -13zM932 1327q12 0 12 12zM952 1509l43 39l4 -4l-41 -39zM963 1401l6 -2l6 12l-6 2zM975 1507v9l10 6l2 -6z" />
<glyph unicode="W" horiz-adv-x="1400" d="M5.5 184q-4.5 29 0.5 49q3 225 115 508q62 159 219 456q12 22 18 34v3q1 2 1.5 5t-0.5 7t-3 7q6 1 9.5 3.5t5 5.5t4 9.5t4.5 10.5q2 17 24 39q1 3 1.5 9.5t1.5 12t4 9.5q7 12 21.5 35.5t22.5 37t22.5 32t29.5 32.5q6 7 16.5 10.5t27 6t25.5 5.5q22 -22 42 -61.5t20 -71.5 q0 -3 -19 -47t-46.5 -102.5t-45.5 -91.5q-8 -17 -31 -57t-32 -58q-35 -60 -45 -109l-10 -20q-19 -50 -58.5 -141t-69 -167t-47.5 -141q-49 -167 -49 -182v-90v-4q0 -2 9 -2q4 0 13 11.5t21.5 28.5t18.5 23q29 35 64.5 88.5t81 125t71.5 110.5q4 4 10 25q3 6 -4 6h4q2 0 4 -2 q4 6 7.5 20t7.5 23.5t10 9.5l3 -1q-4 -4 -1 -7q6 9 21.5 24t21.5 21q6 10 13.5 30t16 35.5t23.5 26.5q2 0 2 2q0 4 -4 4q-8 0 -9 -1t-3 -1q2 3 6.5 12.5t8 15t7.5 5.5q4 -1 3 -3q-2 -4 1 -7q5 7 6 15.5t5 12.5q4 -4 12 -4q3 4 5 11.5t7 15.5t15 20q1 3 -1.5 12t1.5 13 q0 -9 4 -13q17 13 8 37v-2q0 -4 4 -8l3 6q12 21 7 21q-1 0 -4 -2q7 4 12.5 10.5t11.5 15.5t11 15q-10 0 3 18q8 11 17 16l-8 -10v-2q0 -2 2 -4q12 13 23 16q0 11 -11 11q13 -5 56 0q4 -1 10.5 -9t9.5 -8q7 0 7 1l3 3q12 0 56 -22q11 -1 25 -23t20 -39q16 -67 16 -71 l-24 -395q0 -1 3 -35.5t4 -65.5v-21q0 -21 -1 -44q2 -2 2.5 -5t0.5 -4t2 -1.5t7 -0.5q13 0 45 47.5t66 106.5t39 66q3 3 7 22.5t9 28.5q21 21 37 53q4 8 9 35.5t9 36.5q4 17 19.5 48.5t19.5 45.5l21 51q7 21 10.5 45t5.5 54.5t4 45.5q10 3 10 15q2 14 12.5 82.5t18.5 101.5 q14 42 25 64q13 0 19 -23.5t9 -23.5q23 0 29 2q4 -5 9.5 -25.5t8.5 -28.5q3 -6 14 -10t13 -6q1 -6 1 -31.5t3 -40.5q9 10 17 27q-4 -17 -4 -35q0 -23 6 -49q0 -1 3 -3.5t3 -10.5q0 -134 -8 -189l-29 -90q-1 -5 2 -21t2 -24q-7 -37 -21 -68.5t-41 -77.5t-36 -63 q-9 -12 -6 -37q0 -5 -10.5 -15t-14.5 -18q-1 -2 -0.5 -4l1.5 -6t1 -6q-45 -99 -100 -154q-5 -15 -17 -36q-24 -31 -62.5 -70t-62.5 -45q-10 -8 -47 -8h-39q-11 0 -47.5 16t-56.5 29q-5 5 -16.5 19.5t-23.5 27.5t-24 20q-34 72 -34 213q0 3 -5.5 50.5t-5.5 52.5v145 q0 2 2.5 13t3.5 19.5t-2 18.5q-55 -49 -94 -100q-122 -174 -186 -305q-1 -3 -8.5 -10t-10.5 -11q-18 -50 -41 -90q0 -4 -33.5 -53.5t-77.5 -100.5t-65 -51q-5 0 -20.5 8.5t-20.5 8.5t-11 -5t-9 -5q-73 67 -107.5 110.5t-38.5 83.5q-10 20 -14.5 49zM584 713l6 -6l12 18l-6 4 zM633 848l12 12l4 -6l-12 -12z" />
<glyph unicode="X" horiz-adv-x="987" d="M4 121q0 9 43.5 82.5t87.5 140.5q228 332 289 424q6 9 6 27l-88 600q4 3 18.5 9.5t18.5 12.5q2 -2 7.5 -9t11.5 -12.5t12 -9.5q7 -3 24 -10.5t25 -11.5q22 -14 76 -76q2 -2 2 -14q6 -8 11.5 -16.5t10 -19t8 -18.5t6.5 -21.5t4.5 -21t4 -23t3 -21t3 -22.5t2.5 -21 q3 -3 12 -3q0 -3 -3 -8.5t-3 -13.5q0 -5 16 -37q77 88 195 236q12 27 86.5 118t99.5 91q10 0 36 -8.5t40 -16.5q-2 0 -2 -2q-2 -2 -2 -8q6 -13 15 -26.5t13.5 -22.5t4.5 -21t-35 -90l4 -8q-44 -56 -83.5 -117t-79 -127t-56.5 -92q-50 -59 -92 -113q-94 -114 -94 -145 q0 -5 4 -13.5t4 -13.5q1 -32 4.5 -56t7 -35t12.5 -38q-1 -4 -4.5 -10.5t-3.5 -9.5q14 -12 21 -64l24 -76q38 -109 88 -215q14 -28 47.5 -85.5t34.5 -59.5q7 -15 25.5 -36t36.5 -32q3 -1 3 -4q-1 -2 0 -3t5 -1q15 0 55 15q-6 -4 -6 -19q4 -3 10.5 -5.5t10 -4t3.5 -4.5 q3 -5 8.5 -14t9 -16t3.5 -13q0 -11 -16.5 -27t-24.5 -16q-7 0 -17.5 2t-17.5 2h-26q-4 0 -14.5 6.5t-24.5 17t-19 13.5q-52 31 -114 101.5t-86 123.5q-3 4 -8.5 8t-8.5 8q-99 177 -117 213q-2 5 -19 52.5t-32 62.5q0 12 -6 33q-13 -2 -29 -23q-15 -21 -31.5 -40t-36.5 -40 t-30 -32q-12 -14 -33 -51.5t-39 -55.5q-37 -38 -60.5 -68.5t-45.5 -65.5t-33 -50v4q0 3 -6 6q-15 -9 -31 -35q-21 9 -55 0q-11 11 -14 25q0 10 -21 10q-6 10 -18 27t-19.5 29t-7.5 18z" />
<glyph unicode="Y" horiz-adv-x="958" d="M2 465q0 3 3 26.5t3 32.5q0 40 6.5 80.5t22 104t18.5 77.5q25 83 64 177q-2 0 -2 4q0 1 -1 2t-1 2q15 29 70.5 157t98 211.5t60.5 83.5q28 0 64 -12q4 -12 21 -36.5t17 -31.5q0 -25 -20 -65q0 -4 8 -12q-5 -12 -28.5 -64.5t-36 -84.5t-17.5 -50q-11 -33 -24 -59 q-52 -104 -82 -224q-49 -149 -58 -202q-1 -4 -4.5 -11t-9 -16.5t-8.5 -15.5q-7 -21 -11 -45t-6.5 -57t-5.5 -52q25 19 103 102q17 6 26 17q26 29 56 60.5t49 51t53.5 53.5t48.5 48q234 234 387 538q6 12 4 29t-8 23q9 12 19 12q6 0 20 -7.5t17 -8.5q4 -1 15.5 -1t21.5 -2 t18 -6q2 -2 6.5 -8.5t10 -12t11.5 -9.5q3 -3 18.5 -10.5t18.5 -16.5q13 -13 13 -45q0 -9 -26.5 -146t-45.5 -221l-80 -262q-1 -1 -8.5 -39.5t-22.5 -54.5q-3 -71 -55 -225q-25 -83 -31 -111q-41 -208 -73 -334q-1 -8 -9.5 -27t-9.5 -28q-10 -48 -26 -166q14 6 20 21 q-9 -18 -2 -29l10 8q-9 -20 8 -37q-4 -4 -4 -18v-2q0 -4 4 -4q-4 -4 -4 -21l6 -2q0 -12 -14 -35q3 -3 4.5 -3.5t4 0.5t5.5 1q-4 -16 -32 -104q-7 -13 8 -19l-10 1q-10 1 -15 1q-7 0 -12 -2t-12 -2t-21.5 7.5t-21.5 7.5q-3 0 -4 -1t0 -2t0 -2t-4 -1q-15 0 -43.5 40t-28.5 50 q-19 64 -21 90l86 452q72 306 97 398q4 17 29.5 100.5t31.5 130.5q1 4 1 35t3 49q13 34 23 80l-2 18q-82 -117 -172 -182q-8 -8 -26.5 -29.5t-31.5 -33.5q-5 -6 -20 -15.5t-17 -11.5q-6 -6 -49 -59t-85.5 -102t-96 -91.5t-88.5 -42.5q-10 0 -39 8.5t-39 18.5q-41 31 -78 129 q-10 27 -10 92z" />
<glyph unicode="Z" horiz-adv-x="978" d="M-2 37l2 2l4 6q1 6 4.5 20t3.5 23q-2 -2 -2 0q-4 0 -4 10q0 4 4 8.5t12 11t13 11.5q1 3 3 6.5t3.5 5t1.5 2.5q101 153 180 246q9 13 33.5 42t32.5 42q143 178 329 451q1 1 1.5 5t2.5 9.5t5 9.5q10 15 24 35t33 46.5t31 43.5q1 2 1.5 6t1 7t1.5 4q27 42 37 69q4 7 21 22 t22 23q18 26 49.5 84.5t34.5 63.5q-10 12 -56 12q-48 0 -120 -14.5t-117 -30.5q-83 -28 -156 -64q-9 -5 -43 -24.5t-56 -31t-30 -11.5h-31q-9 0 -38 33q-1 14 -12 41t-11 34t4 12t12.5 13t14.5 18l18 54q1 0 12 -11l156 60q8 2 25 20q1 -1 3 -4.5t3.5 -5t3.5 -3t5 -2.5t7 -1 q19 0 31 12q-5 6 -37 -6q13 17 47 29t45 12q5 0 8 -6t11 -6q6 0 41.5 16.5t56.5 20.5q4 0 8 2q2 0 9.5 2t15.5 2q-1 -4 -11 -8t-14 -9q45 0 98 9q3 0 17 8t22 8q7 0 16.5 -9.5t16.5 -9.5q4 0 17.5 2.5t21.5 2.5q19 0 53 -22t37 -28q2 -8 20.5 -47.5t18.5 -64.5 q0 -44 -20.5 -85t-53.5 -89.5t-49 -87.5v2q0 2 -4 6q-5 -3 -5.5 -16t-4.5 -17l-39 -43q-10 -11 -19 -26t-18 -33t-14 -27q-1 -1 -8.5 -5.5t-11.5 -9t-7 -10.5q-4 -3 -4.5 -14t-3.5 -14q-24 -43 -45 -56q5 -4 -1.5 -14.5t-15.5 -15.5h-2q-6 0 -6 -6q-3 -17 -30.5 -52.5 t-32.5 -52.5q-22 -20 -60 -74q0 -18 -6 -24q-26 -37 -104 -131q-1 -1 -17 -39q-26 -37 -58.5 -78.5t-74 -93t-63.5 -78.5q2 -2 14.5 -2.5t18.5 -15.5q2 0 2 2q0 4 2 6l106 22l2 2l6 4q17 3 32.5 6.5t22 5t17 2.5t25.5 1q24 1 75.5 11t57.5 11q16 0 65 5.5t54 5.5 q3 0 12.5 -5.5t17.5 -5.5q5 0 17.5 5.5t17.5 5.5q8 0 22 -3.5t21 -3.5q2 0 10.5 1.5t23.5 3t30 2.5t24.5 2t13.5 1.5t7 0.5q7 0 59 -11.5t59 -11.5t10.5 4t10.5 4q4 0 28 -1t29 -1h13q16 0 53 -14q-9 3 -25 0q2 -4 5.5 -18t9.5 -23q-7 3 -14.5 3t-15.5 -1.5t-13 -1.5 q-13 0 -13 -8q-5 0 -16 14q-1 0 -4.5 1t-5.5 -3q8 -8 8 -12q-4 3 -15.5 2t-19.5 2q-2 0 -2 -2l-6 -6q0 -3 3 -10.5t3 -10.5q-4 0 -15 -3t-18 -3q-6 0 -6 1.5t2.5 3.5t-0.5 5q-2 0 -10 -8q-55 0 -78 -10t-55 -10q-5 0 -16.5 -6.5t-16.5 -6.5q-108 -18 -139 -30 q-48 -8 -132.5 -19t-109.5 -16l-145 -51q-11 -1 -24.5 -6.5t-22.5 -11t-20.5 -13.5t-14.5 -10q-14 -8 -45 -17t-43 -16q-1 0 -43 -16q-19 -5 -80 -5l-8 9q-9 8 -20.5 16t-18.5 8q-20 14 -22.5 61.5t-6.5 53.5zM268 1364l15 4l-2 8l-13 -6v-6zM526 1464l13 4l-4 9l-9 -7v-6z M592 1491q0 2 2 4q0 5 6 8q4 -5 0.5 -8.5t-8.5 -3.5zM631 1493v8l12 4l2 -6zM651 1499h17v6h-17v-6zM670 1503h12v8h-12v-8zM805 1518v8h22v-8h-22z" />
<glyph unicode="[" horiz-adv-x="786" d="M55 -57q0 7 6.5 27t6.5 28q-1 16 -7 50t-6 42l105 739q-2 6 5.5 55t17 117t10.5 107l8 133q3 38 2 73t-3.5 76t-2.5 42q-4 19 18 73q4 -1 5 -5.5t5 -8.5q6 11 6 55l29 -2q13 0 21 -31q4 -1 12 -6t16 -6q5 1 20.5 4t29 5t20.5 1q27 -4 113 11q14 0 41 -1t40 -1v6q0 4 11 0 q7 1 10.5 -1.5t11.5 -2.5l23 -2q5 0 14 -14.5t16 -14.5q9 0 13.5 3t7.5 3q3 -4 6.5 -6.5t4.5 -4t1 -5.5q-4 -17 -8 -21q0 -6 -0.5 -7.5t5 -3.5t11.5 -2.5t17 -4.5t22 -10l2 -21l-12 -8q-8 -2 -36 -22.5t-52 -12.5q4 -16 10 -22q-27 0 -87 -5.5t-64 -5.5q-8 0 -35.5 5.5 t-34.5 5.5q-39 0 -68 -11l-6 -80q-2 -31 -2 -55l-8 -151q0 -7 -13.5 -134.5t-13.5 -134.5q0 -8 -20 -172q-21 -171 -31 -233q0 -2 2.5 -7.5t1.5 -9.5q-25 -140 -30 -186q-16 -39 -23 -90l-2 -55q15 -6 53 -10t47 -5q6 -3 21 -5t35.5 -4.5t32.5 -4.5q4 -12 15.5 -18.5t29 -10 t20.5 -4.5q10 -13 14 -39q3 -6 20 -11.5t21 -8.5l-84 -62q-3 0 -13.5 -4t-18.5 -4q-37 3 -124 15t-108 12q-16 0 -33 4t-36.5 10t-26.5 8q-27 24 -27 58z" />
<glyph unicode="\" horiz-adv-x="632" d="M20 1200v9v8t0.5 7t2 8.5t3.5 8.5t6 10.5t9 12.5q-3 27 18 61q4 -6 36 -17t40 -26q13 -17 25 -68q16 -57 30 -94q8 -18 25 -55t26.5 -58.5t19 -52t11.5 -55.5l131 -438q12 -12 15 -12q-1 -4 3.5 -21t4.5 -29q11 -62 45 -143.5t37 -91.5q-10 -10 0 -19l35 -69 q24 -44 45 -53q-10 -14 -39 -31q-30 -20 -21 -37q-5 8 -30 18.5t-29 14.5q-70 70 -109 143q-126 271 -182 473q-17 47 -47 168t-41 160q-1 4 -15 43t-17.5 49t-13.5 42.5t-13.5 49t-7 40.5t-3.5 44z" />
<glyph unicode="]" horiz-adv-x="753" d="M6 -68l10 9q10 3 37.5 22.5t50.5 11.5q0 12 -8 23q29 0 88 5t62 5q2 0 32.5 -5t38.5 -5q39 0 66 10q5 27 8 78q2 31 2 57l8 152q0 12 12 135t15 131q0 2 21 174q24 197 30 232q0 3 -3 8.5t-3 9.5q21 81 33 186q14 36 22 89l2 55q-11 6 -27.5 8.5t-38.5 4t-34 3.5 q-7 3 -21.5 5t-34.5 5t-32 5q-4 11 -15.5 17t-30.5 10t-22 5q-11 18 -14 39q-1 4 -8.5 7t-17 6.5t-13.5 5.5q53 41 84 63q2 0 13.5 3.5t19.5 2.5q40 -2 126.5 -14t104.5 -12q20 1 54 -9.5t43 -11.5q26 -26 26 -57q0 -7 -6 -27t-6 -28q1 -17 6.5 -51.5t5.5 -41.5l-106 -741 q3 -6 -4 -54t-17 -116t-12 -106q0 -5 -6 -134q-4 -38 -3.5 -72t4.5 -76l3 -42q4 -18 -19 -74q-4 0 -5 1.5t-2 5.5t-3 8q-6 -11 -6 -56h-29q-12 2 -20 33q-2 0 -29 12l-32.5 -6.5t-36.5 -5.5q-24 10 -113 -10q-55 4 -82 2l-2 -6q0 -1 -10 2q-7 -1 -10 1.5t-11 2.5l-22 2 q-5 0 -14.5 14t-16.5 15q-9 0 -13 -3.5t-7 -3.5q-2 2 -6.5 5.5t-6 5.5t-0.5 6q6 17 8 20q1 8 -3.5 10t-20 6t-31.5 13z" />
<glyph unicode="^" horiz-adv-x="780" d="M23 803q2 11 22 88q4 9 11.5 31.5t11.5 31.5q42 107 159 332q3 1 5.5 0.5t4 0.5t5.5 5q36 110 90 213q6 9 -2 17q4 0 11 2t11 2q4 4 4 10.5t-2 14t-2 10.5q30 9 49 38h21q1 -2 3 -7t3 -7t3 -4.5t4.5 -3t6.5 -0.5q6 0 10.5 1.5t7 3t7 6t6.5 5.5q5 -7 25.5 -25.5 t25.5 -27.5q13 -25 29 -98q2 -3 5.5 -11.5t8.5 -11.5q43 -229 150 -522q3 -22 25 -71.5t22 -53.5q0 -61 -16 -61l-11 6v-25q-14 3 -31 0t-22 0q-3 1 -3 4.5t-9 3.5q-13 0 -22.5 4t-13.5 9.5t-7.5 9.5t-5.5 4q-8 0 -10 -2t-5 -2q-36 84 -66 168.5t-71.5 215.5t-56.5 177 q-20 -36 -75 -161.5t-95 -190.5q-88 -146 -88 -217q-3 0 -7 -1.5t-6.5 -1t-5.5 4.5q-4 -4 -9 -11.5t-9 -11.5q-5 6 -10.5 10.5t-14.5 9t-10 5.5q0 3 2.5 11.5t2.5 14t-3 15.5q-3 -3 -4.5 -10.5t-5.5 -10.5q-10 13 -47 39q-11 0 -6 25z" />
<glyph unicode="_" horiz-adv-x="1146" d="M125 80q-2 6 14 18q7 0 30 16.5t28 16.5l385 12q2 0 46.5 -3t99.5 -6t83 -3q9 -3 28.5 -5t28.5 -5q30 -1 67.5 -6.5t82 -14.5t67.5 -12l2 -12q-16 -3 -17.5 -17t-4.5 -16l18 -12q-12 -3 -24 -15l14 -12q-41 4 -63 -2q-3 0 -12.5 -3.5t-12.5 -4.5l-219 16q-9 0 -22 1 t-17 1t-5 -4t-5 -4q-2 0 -36.5 1t-49.5 1q-21 0 -57.5 -0.5t-65.5 -1t-31 -0.5q-10 0 -10 -8l-268 -16q-29 12 -72 49z" />
<glyph unicode="`" horiz-adv-x="964" d="M414 1458q0 4 7.5 21t2.5 26q12 0 16 4q-3 4 -7 7.5t-10 7t-9 6.5v24q17 3 22.5 3t10.5 -2.5t8 -2.5q11 0 32 17q17 -23 37 -23q5 0 16.5 5t16.5 5q4 -3 4.5 -5.5t-1 -6t-1.5 -6.5q32 -25 47 -45q101 -106 131 -160q3 -4 3.5 -9.5t-0.5 -14.5t-1 -13q0 -3 12 -11t13 -13 q8 -13 8 -35q0 -8 -10 -27t-10 -28q-36 0 -45 -4q-18 -4 -7 -11q-36 4 -69 33q-25 25 -96.5 101.5t-110.5 115.5q-10 30 -10 41z" />
<glyph unicode="a" d="M4 127q0 84 83.5 246t152.5 252q12 15 37.5 39.5t44.5 37.5q8 4 18 12.5t22.5 21.5t18.5 18q3 3 2 9t2 9q9 4 23.5 6t19.5 6q15 9 25 29h16q21 -18 35 -18q5 0 16.5 -2t16.5 -2q8 9 12 17.5t4.5 13t4.5 7t13 2.5q7 0 9.5 -8t9.5 -8q8 0 8 2l4 4q19 0 48.5 -13.5 t41.5 -27.5q6 -10 9.5 -24.5t-1.5 -22.5q0 -3 4 -1q2 -4 3 -7q0 -6 -11.5 -45.5t-26.5 -94t-22 -87.5q-10 -49 -21.5 -128t-17.5 -134.5t-6 -63.5q0 -4 3 -28.5t3 -34.5q5 -6 34 -2l28 4q20 0 127.5 47t142.5 65q-3 -8 -18.5 -20t-18.5 -19q-15 -16 -8 -28q-26 -30 -78 -68 q0 -2 6.5 -8t10.5 -6q-24 -3 -74.5 -36.5t-57.5 -33.5h-86q-29 0 -60 26.5t-51.5 60.5t-34 62t-13.5 35q0 66 -6 105q-12 -21 -35 -55.5t-35 -53.5q-130 -186 -188 -186q-5 0 -21.5 -4t-21.5 -4q-24 0 -44.5 8t-31 16.5t-28 26.5t-26.5 25q-1 8 -8.5 32t-7.5 29zM254 301 l12 -14q30 36 59.5 83.5t66 113.5t54.5 96l-12 -13q-4 4 -4 8t2 8.5t2 6.5q-84 -102 -180 -289z" />
<glyph unicode="b" horiz-adv-x="716" d="M82 328q-1 3 -1 7q1 20 13 69q14 59 29.5 112t15.5 55q43 142 267 908q4 13 12 43.5t17 56.5t20 45q16 8 53 8q9 3 40.5 -32t31.5 -39q1 -7 -1 -10.5t-6 -7t-6 -5.5q9 -19 9 -45q0 -16 -3 -35l-12 -69q-40 -183 -158 -611q-4 -23 -13.5 -51t-25 -70t-22.5 -61l8 -8 q27 27 84 37q11 1 22 1q70 0 136 -44q83 -56 82 -136q0 -24 -21 -116q-10 -31 -51 -131q-6 -9 -39 -64.5t-62 -99.5t-40 -47q-5 0 -6.5 1.5t-1 3.5t-2 3.5t-7.5 1.5q-4 -1 -23.5 -18.5t-29.5 -20.5l4 2v6q-5 1 -19 6t-22 4l-6 -1.5t-2 -1.5t0.5 -2t-1 -1.5t-5.5 -1.5 q-5 0 -10 2.5t-7.5 4.5t-7.5 7.5t-6 6.5q-15 15 -41 51.5t-26 56.5q-1 11 8.5 38.5t15.5 33.5q14 -8 19.5 -17.5t5 -16.5t4.5 -12t18 -5q19 4 57 64.5t52 99.5q12 24 24 58.5t24.5 75t18.5 56.5l-4 27q-7 0 -17 -18t-19 -23q-52 -30 -64 -72q-4 -1 -8.5 0.5t-7.5 1.5 q4 -14 -14 -43t-43 -63.5t-31 -49.5q9 -12 18 3q-5 -5 -16.5 -17.5t-21 -21t-15.5 -9.5q-8 -1 -35.5 1t-34.5 1q-13 -1 -36.5 33.5t-41.5 69.5t-16 35z" />
<glyph unicode="c" horiz-adv-x="600" d="M6 248q0 52 14 123q15 78 46 133q3 1 4 5t1 11t1 10q32 72 65 113q4 4 13 12.5t14 13.5t10.5 13t9.5 16q0 5 -2 7q-8 -8 -8 -11q9 12 38 57.5t48 65.5q4 6 11.5 9.5t18.5 6t17 5.5q3 2 14.5 12t20.5 10t39.5 -6.5t46.5 -13.5q62 -38 80 -80q20 -46 20 -78 q0 -23 -15 -84.5t-30 -69.5q-9 -6 -30 -6q-44 0 -58 56q-2 7 -10 21.5t-9 20t1 21.5v2h-6q-100 -127 -170 -278q-14 -33 -35 -101t-21 -76v-28q34 -15 60 -15q3 0 90 37q23 9 75 29.5t99 40t90 41.5q97 54 139 74q-4 -4 -9 -14.5t-10.5 -18.5t-12.5 -8h-13q0 -3 -1.5 -6 t-1.5 -4t5 -1q8 0 10 1t5 1q-7 -7 -12 -19.5t-1 -18.5q-11 -10 -39 -32t-40 -34q0 -8 10 -8v-21q-25 -14 -83 -49.5t-93 -56.5q-3 -3 -11.5 -17t-13.5 -18q-22 -12 -83 -30.5t-91 -18.5q-76 0 -138 66t-67 137q0 8 -1 26t-1 25z" />
<glyph unicode="d" horiz-adv-x="894" d="M4 98q-1 12 -1 25q-1 65 29 161q36 114 77 200t86 165q28 47 65 84q5 7 39 27q11 8 45 8q4 1 9 -7.5t14 -8.5q6 1 8 2t1 5.5t-1 6.5q10 -9 39 -18t39 -15q3 -3 10.5 -13t17 -19.5t19.5 -16.5l10 10q55 169 78.5 239t72 188.5t105.5 226.5q17 0 37.5 -3t46.5 -10.5 t44.5 -25t20.5 -41.5q0 -23 -12 -51q-29 -36 -29 -48q-1 -34 -13.5 -70t-39.5 -96.5t-45 -111.5q-3 -4 -2 -20.5t-2 -24.5l-27 -98l-24 -72q-12 -52 -33 -127q-16 -68 -31 -207q14 -24 9 -31q0 -28 -10.5 -85t-10.5 -60l4 -35q14 -6 38 -10.5t36 -3.5q54 7 158 57.5 t123 69.5q-6 -23 -11 -68q-6 -24 -53 -65q-8 -6 -18 -37q-63 -25 -68 -41q-25 -10 -65 -21.5t-48 -11.5l-51 -6q-7 -1 -6 1q0 3 -3 3h-3q-18 0 -107 49q-4 7 -25 35t-34 47q-16 30 -31 98q-15 88 -16 97q-36 -50 -59 -105q-55 -95 -93 -137q-39 -39 -45 -55q10 -13 19 -4 q-28 -20 -48 -43.5t-32.5 -34.5t-32.5 -13q-3 0 -29 3.5t-39 3.5q-54 47 -76 81t-26 78zM217 240q14 26 36.5 53t35.5 33q6 43 18 43q4 1 11 -2q4 -2 4 0v2v12q11 5 15.5 10.5t7 20.5t5.5 24q4 -4 2 -7t-1.5 -4.5t7.5 -0.5q7 0 11.5 14t-0.5 21q1 1 10 7t15 14t9 20 q-4 4 -4.5 11t1 15t1.5 11q-6 45 -12 55q-29 -29 -39 -27q4 -14 -4 -22q-5 -8 -30 -43.5t-33 -53.5q-22 -39 -54 -131q0 -3 3.5 -7.5t3.5 -8.5q-16 -35 -19 -59z" />
<glyph unicode="e" horiz-adv-x="544" d="M5.5 272q3.5 35 4 42.5t8 33.5t7.5 27q15 72 69 182q45 92 68 129q41 52 53 76q9 8 30.5 33t45.5 39q2 1 12.5 5t16.5 7t14 8t11 10.5t1 12.5q-4 -4 -4 -5q0 -6 8 -6q6 1 6 3q2 3 6 3q6 0 28.5 -11t29.5 -13q2 -6 3 -13.5t1 -12.5t2.5 -9t7.5 -4q4 0 6 0.5t2 1.5v2 t1.5 1.5t5.5 0.5t7.5 -2t5.5 -4t5.5 -6t5.5 -6q0 -29 6.5 -43.5t14 -16.5t14 -10t6.5 -25q0 -10 -14 -69.5t-25 -95.5q-27 -56 -94 -138q-22 -27 -69 -78t-77 -85.5t-29 -42.5q0 -11 19.5 -27.5t40.5 -24.5q10 -6 60 -6q8 0 21 4.5t22 6.5t28 -5q21 6 73 22.5t75 22.5 q8 -8 20 -8q-12 -4 -27.5 -14.5t-23.5 -13.5q0 -14 23 -21q-3 -3 -23 -49q-24 6 -38.5 -17.5t-14.5 -52.5q-37 -12 -80 -12q-8 -7 8 -8q-11 -1 -38 -11.5t-38 -11.5v-6q0 -4 -8 -4t-31.5 9t-39.5 9t-19 -18l-22 31q-42 10 -64.5 25t-62.5 59q-8 8 -18 13q-8 4 -10.5 10.5 t-13.5 55.5q-9 38 -16 66q-6 20 -2.5 55z" />
<glyph unicode="f" horiz-adv-x="839" d="M2 502q0 3 6 5.5t9 7t-3 20.5q24 -17 36 -19.5t28 3t31 5.5q5 0 6.5 1.5t1 4t0.5 4t4 1.5q56 0 76 6q23 10 69 10q6 27 29.5 144t38.5 173q6 21 21.5 85.5t25.5 95.5q5 17 27.5 87.5t32.5 100.5t32 93t38.5 102t39.5 87.5t47 86.5q8 18 42.5 53t47.5 35q12 0 31 -15 q6 -4 15 -5t22 -1.5t18 -1.5q38 -17 53 -29q70 -60 82 -75q4 -9 16 -33t18.5 -39.5t6.5 -21.5q0 -7 -6.5 -28t-16 -50t-12.5 -41q-22 0 -53 -45q-5 0 -12 5l-6 5l-17 -10q-6 6 -22 6l10 10q-37 21 -39 23q-22 40 -22 65q0 6 1.5 10t3 6t5 5t4.5 4q4 -3 6 -8t6 -9 q13 23 13 52q0 24 -13 24q-20 0 -60.5 -89.5t-47.5 -123.5q-13 -38 -43 -100q-30 -70 -51 -135q-3 -12 -19.5 -69.5t-28 -101t-18.5 -81.5q-16 -65 -43 -142q-3 -3 -8.5 -4.5t-9.5 -5.5q0 -10 8 -18q2 -9 -15 -31v-14q14 -5 35.5 -5t38 2.5t42 7t34.5 5.5q26 4 84 6t86 6 q19 0 29 10h22q33 0 91 2q81 2 112 2q1 0 6 1t8 2.5t4 5.5q25 -3 32.5 -3.5t34.5 2.5t34 3l2 2q6 6 12 6q7 0 3.5 -5t4.5 -5q5 0 28 5t30 5q8 0 13.5 -5t8.5 -5q-15 0 -68 -31l-10 -12q17 -13 17 -21q-59 -20 -62 -20q-1 -12 -12.5 -18t-25 -6.5t-31.5 -0.5t-27 -2 q-16 -4 -57 -20.5t-48 -16.5q-8 0 -9 3q0 2 -1 2.5t-6 0.5q-6 0 -33 -9.5t-62.5 -21.5t-58.5 -16q-58 -17 -180.5 -44.5t-179.5 -43.5q-20 -20 -20 -31q-46 -169 -109 -550q-1 0 -10 20q-9 -11 -15 -37q-1 -15 -5.5 -55t-4.5 -47v-135q19 -10 24 -26.5t2.5 -42t-1.5 -34.5 l10 10q-4 -16 3 -20.5t7 -5.5q0 -15 -20 -60h-6q-2 0 -9 7q-8 0 -8 -17q-54 31 -90 80q-7 35 -13.5 97.5t-6.5 76.5l37 402q0 5 14 64.5t30.5 138.5t20.5 128q-16 7 -31 -8q-10 17 -39 17q-9 0 -5 -5q3 -4 3 -6q-11 11 -22 11q-18 0 -35 14l-37 33q-6 6 -26.5 60.5 t-20.5 72.5zM197 -303v-33h10v33h-10zM236 -313h8v-35h-8v35zM1196 621v8h21v-8h-21zM1233 631v8v-8z" />
<glyph unicode="g" horiz-adv-x="788" d="M4 111v11q0 62 40 154q43 102 89 170q32 44 71.5 102.5t63.5 96t57 79t61.5 65.5t66.5 41.5t82 19.5q11 0 49 -53q-2 -6 -2 -10.5t1.5 -7.5t4 -9t4.5 -10q3 -1 16 -10.5t21 -10.5q32 -10 63 -28q-1 -3 9 -15.5t20.5 -31t11.5 -33.5q0 -4 -3.5 -28t-9 -58t-7.5 -53 q-15 -113 -78 -357q-37 -205 -90 -411q0 -1 1.5 -9.5t0.5 -13.5q-4 -23 -32.5 -157.5t-37.5 -202.5q0 -3 1.5 -13t1.5 -19.5t-3 -15.5q-1 -11 -9 -44t-7 -48q0 -4 4 -23.5t4 -29.5v-2h8l8 6q9 3 15 12q9 -8 22 -24t17 -21l4 -71q-18 -3 -58 12q-2 -3 -3 -9t-7 -7 q-10 0 -41 22q-10 13 -33 19q-4 7 -16.5 25t-19 31t-7.5 25q-18 70 -18 111q0 2 1 27.5t1 38.5q3 125 22.5 267.5t40 241t61 279t60.5 275.5l-2 2q0 2 -2 4q-9 -7 -24 -41q4 0 6 2t5 6t5 6q-3 -3 -7 -8t-11.5 -15.5t-14.5 -19.5q17 21 8 33q-7 -12 -48 -64.5t-48 -87.5 q-25 -32 -72.5 -85.5t-60.5 -69.5q-7 -6 -19.5 -18.5t-30 -30.5t-26.5 -27q0 -3 3 -8.5t3 -8.5q-32 -16 -53 -16q-13 0 -80 27q-4 4 -11.5 13.5t-12.5 14.5l-6 11q-5 9 -8.5 15.5t-6 14t-3.5 11t-2 11t-1.5 9.5t-1 12t-0.5 13zM193 203q93 97 159 172q11 11 78.5 110.5 t67.5 116.5v16q-3 0 -4.5 -1.5t-2 -3.5t-2 -5t-4.5 -6q-10 10 -18 10l-2 25l-8 -10q-8 13 2 35q-19 -18 -43 -52.5t-35 -58.5q-8 -18 -33.5 -47t-30.5 -41q-26 -45 -72.5 -147.5t-51.5 -112.5zM399 252l23 24l6 -6l-22 -20zM436 289l39 47h2l-39 -51z" />
<glyph unicode="h" horiz-adv-x="815" d="M6 217q0 18 17 137q15 102 36 168q12 39 26.5 80t22.5 64l9 22q0 10 7.5 30t8.5 27q9 9 12 15q16 89 60 186q6 19 -2 33q16 48 65.5 170t55.5 139q4 9 13.5 28.5t13 26t11.5 18.5t14.5 16t17.5 8t24 4q8 0 26.5 -8.5t26.5 -8.5q6 -12 10 -12q21 -41 21 -109 q0 -34 -17 -73l-288 -785q8 0 17 8.5t19.5 22.5t14.5 18q8 9 33.5 32t33.5 32q13 19 82.5 92.5t81.5 73.5q5 0 15.5 -11t15.5 -12t19 -1t26 -1.5t20 -5.5q51 -35 67.5 -72.5t16.5 -87.5l-34 -288q0 -34 12 -56q10 6 21.5 3t13.5 -3q6 0 71.5 29.5t85.5 32.5q20 2 60 20 q-18 -18 -68 -47v-4l4 -4q9 5 27 8.5t25 7.5q-9 -4 -19 -25.5t-16 -27.5q-3 -3 -18.5 -11.5t-20.5 -17.5q-4 -3 -6.5 -18t-5.5 -19q-8 -4 -26 -22.5t-34 -30.5q8 -8 12 -8q-5 -2 -21 -12.5t-29.5 -17.5t-20.5 -7t-35.5 3t-36.5 3q-4 0 -21 10.5t-36 24t-21 14.5 q-2 3 -10 21.5t-14 26.5q-3 9 -16.5 28.5t-16.5 26.5q-22 71 -25 133q-1 19 -1 36q0 53 7 95l-4 29q-87 -57 -155 -185q-68 -127 -148 -198v-2q0 -2 6 -2q-3 0 -4.5 1t-9.5 1q-6 0 -47 -23q-6 13 -19 31t-18 26q-3 4 -12 27t-19 33q0 17 -5 52.5t-5 41.5z" />
<glyph unicode="i" horiz-adv-x="403" d="M4 246q-2 20 2.5 63.5t11.5 71.5l23 86q27 131 68 215q0 15 2 29q4 3 10 16t14 21q9 0 25 4.5t22 5.5h6q35 0 76 -33q46 -34 49 -74q0 -5 -4.5 -18t-5.5 -21q-13 -56 -20 -110q-9 -71 -31 -107q-4 -10 -10.5 -38t-8.5 -35q-5 -18 -13.5 -43.5t-11.5 -36t-6 -26t-2 -28 t5 -26.5q134 60 260 186q-11 -9 -10.5 -34.5t-2.5 -53.5t-22 -45q2 -1 6.5 -1t8 -1.5t6.5 -5.5q-2 -12 -25 -29q-9 -12 -6 -35q-24 -13 -55.5 -41.5t-51.5 -52.5q0 -23 -12 -29q-18 -10 -44.5 -18t-37.5 -8q-6 -1 -13 -1q-41 0 -77 23q-42 26 -67.5 67t-40.5 84t-17 79z M178 1163q13 -1 25 -1q40 0 76 10q46 13 53 14q6 -7 21 -21t18 -22q3 -3 4.5 -26t15.5 -36q-10 -19 -9 -41t6.5 -41t-5.5 -33t-45 -16q-14 -1 -27 2.5t-33.5 14t-21.5 10.5q-4 12 -6 14q-36 19 -60 103q-4 7 -5.5 33.5t-6.5 35.5z" />
<glyph unicode="j" horiz-adv-x="409" d="M-686 -545q2 5 18 78q0 -2 -2 -24.5t2 -22.5q9 21 18 67t15 64q13 42 74 166q0 -16 8 -16q3 0 0 -13l2 -168q16 0 16 -18q0 -4 -5 -21.5t-5 -27.5q0 -30 -6 -76q-8 -41 -8 -57q0 -21 22 -72l-1 -8v-16v-22.5t1 -26.5t3 -26.5t6 -25t9.5 -21t13.5 -15t18 -5.5 q62 0 148.5 56.5t151.5 122.5t97 116q4 5 7 20.5t7 22.5q30 47 48 89.5t23.5 63.5t16.5 72q4 16 21.5 81t28.5 114.5t14 87.5q2 4 26 96q9 50 20 144t17 131q6 34 20.5 123.5t24.5 136.5q7 37 7 72q0 28 -5 55q3 0 9 3t14 3q9 0 35 -12.5t37 -24.5q24 -24 30 -64 q17 -66 17 -96q0 -9 -8 -34t-9 -33q-4 -22 -5.5 -54t-4.5 -45q-3 -12 -4 -63t-4 -72q-8 -54 -35.5 -178t-36.5 -193q-3 -4 -2.5 -19t-3.5 -20q-24 -52 -29 -108q-3 -60 -47 -113q3 -2 1.5 -9t-3 -11t-5.5 -12.5t-5 -12.5q-4 -4 -0.5 -26t2.5 -29q-15 -63 -53 -141 q-6 -11 -35 -69.5t-47 -88.5q-2 -3 -26.5 -27.5t-41 -46.5t-12.5 -33q-16 -35 -123 -100t-158 -65q-19 0 -88 24q-52 15 -95 54t-70 90t-43 100.5t-23 97.5q2 42 2.5 70t0 37.5t-1.5 15.5t-1 8zM-670 -459l11 35h8l-13 -39zM246 1178q2 2 6.5 8.5t7.5 10.5t8 7.5t11 3.5 q4 0 15.5 -9t28 -23t25.5 -21q4 -4 24 -17t29 -22q20 -18 43 -43.5t23 -36.5q0 -17 -14 -61q-56 -29 -80 -29q-8 0 -24 12.5t-29.5 26t-30.5 31.5t-19 20q-3 13 -8.5 65.5t-15.5 76.5z" />
<glyph unicode="k" horiz-adv-x="733" d="M6 6q0 2 3.5 27t6 55.5t0.5 48.5q2 23 7 53t10.5 55t16 66t17 63.5t20.5 72.5t19 69q3 8 0 16q140 459 187 637q79 244 90 390q3 9 12 25t13 24q13 -20 48 -41.5t48 -32.5q13 -29 26 -84q15 -49 15 -59q0 -27 -10 -72q-9 -49 -30.5 -144t-29.5 -135q-14 -14 -16 -22 q-1 -3 0.5 -13.5t-2.5 -13.5q-37 -66 -58.5 -153.5t-40.5 -124.5v-15q3 0 3 4q0 1 0.5 2t2 2t5.5 1q8 1 21.5 5.5t17.5 4.5q3 1 20 14.5t38 28.5t55.5 29t70.5 16q12 0 54.5 -36.5t62.5 -45.5q-6 -13 -6.5 -43t-2.5 -41q-22 -18 -30 -35q-2 -1 -9 -3.5t-12 -2.5 q-21 -15 -33 -49l-10 10q-48 -23 -135 -90q-4 -4 -17 -10t-16 -8q-2 2 -27.5 -19.5t-51 -51.5t-23.5 -48q0 -23 49 -66.5t64 -48.5q45 -38 110 -80q21 -14 82 -45t84 -45q27 -13 79.5 -48.5t72.5 -47.5q-5 -5 -20 -5l-15 -1q-9 -1 -9 -3q1 -3 1 -5q-39 24 -72 24 q-4 -1 -10.5 -6.5t-14.5 -5.5q-4 0 -7.5 4.5t-12.5 3.5h-8q-61 0 -199 76q-8 5 -47 22.5t-57 32.5q-99 69 -183 170q-43 -94 -53 -164q-17 -75 -18 -102q0 -1 -1 -2t-2 -2.5t-2 -3.5l3 -2q1 -25 1 -46q0 -37 -4 -61q-3 -20 -28 -20q-4 -1 -13 2t-24.5 9t-24.5 9q-2 4 -24 31 q-24 73 -27 100z" />
<glyph unicode="l" horiz-adv-x="466" d="M4 299q0 41 4 84.5t8.5 75.5t15.5 80t16.5 71t20 77.5t19.5 72.5q1 10 11.5 25.5t11.5 21.5q14 84 39 172q9 32 86 252q3 6 17 26t17 33q10 29 34.5 77t23.5 75q2 0 11 2t15 2q7 0 23.5 -11t25.5 -12q5 0 5 2h16q27 -60 29 -67q4 -7 4 -27.5t4 -27.5l-201 -652 q-37 -97 -45 -143q-14 -59 -29.5 -155t-15.5 -138q0 -36 4 -86q2 -13 23 -33q29 -16 49 -16q9 0 16 5t10 5q7 0 16 -3t17 -3q3 0 10 2.5t24.5 9t37.5 13.5q23 18 29 18q8 0 9.5 -3t8.5 -3q4 0 17 9t35 24.5t42 25.5q-6 -3 0 -12q0 1 1 4q1 6 9 6q20 0 72 29q-5 -6 -11 -16.5 t-12 -17t-14 -9.5q0 -4 2 -8l31 12q-21 -6 -6 -21q-20 -9 -29 -33.5t12 -25.5q-7 -4 -12.5 -12.5t-9.5 -18.5t-6 -12q-9 -6 -38 -23.5t-42 -27.5l-19 -18q-18 -17 -32 -21q-18 -8 -68 -21l-12 13q-11 -8 -18.5 -10t-15.5 0t-11 2q-5 0 -7.5 -1.5t-2 -3t-1 -3t-6.5 -1.5 q-3 0 -18 6t-33.5 13.5t-25.5 9.5q-91 35 -141 141.5t-50 198.5z" />
<glyph unicode="m" horiz-adv-x="1253" d="M4 98q-1 10 -1 23q0 84 58 266q13 41 31.5 94.5t29 86t13.5 46.5q1 5 12 41t15 54q9 9 10 12q0 43 9 75.5t36 94.5q6 1 22.5 6.5t24.5 5.5q21 3 37 -10q2 -6 6 -10q19 -4 35 -32q16 -29 16 -44q0 -13 -8 -64q-10 -60 -20 -88q-2 -16 -26.5 -82t-22.5 -86l3 3q2 4 7 7.5 t12 4.5q7 0 78 93t119 163q12 5 31 5t47 -5q69 -18 104 -58q27 -49 31 -82q0 -5 -5.5 -45t-12 -93t-9.5 -85q-7 -2 -11 -6.5t-6 -12.5t-3 -13.5t-1.5 -17t-0.5 -15.5v-2q0 -4 2 -6q4 4 8 9.5t6 8t7.5 4.5t14.5 2l267 324q1 0 18 1t27 -3q4 -1 11.5 -6t15.5 -12.5t10 -8.5 l11 -1q10 0 15 -5q17 -10 35 -31q6 -7 12.5 -25t16.5 -26q-4 -1 1 -13q2 -7 3 -10l-11 -78q-12 -78 -12 -112q-2 -14 -2 -66q0 -47 2 -55q6 -47 20 -63q10 -11 39 -11q11 0 25 2q8 0 41.5 11.5t52.5 21.5q4 -12 3 -18.5t-5.5 -18.5t-5.5 -16q-6 -14 11 -21q-3 -4 -7 -8.5 t-9.5 -8.5t-8.5 -7q3 -12 -4 -19q-10 -4 -30 -14t-32.5 -15.5t-19.5 -6.5q-7 0 -35 9t-35 9q-5 -1 -1.5 -5t-4.5 -5q-8 0 -41 23.5t-53 43.5q-15 17 -26.5 44t-16 43.5t-13 61t-10.5 54.5q0 3 -0.5 17.5t-3 26.5t-8.5 24q-9 -10 -21 -31t-18 -29q-9 -13 -60.5 -74t-74.5 -94 q-4 -5 -19.5 -24.5t-23 -28.5t-21.5 -22t-28 -21q-2 -3 -2.5 -5.5t0 -4t0 -2.5t-3.5 -2q-54 -33 -72 -33h-6q-32 0 -86 34q-60 38 -64 66q-1 10 -1 23q-1 55 21 154q26 122 28 135q3 6 -1 10t-4 6l7 8q-1 3 -5 10t-4 13q-30 -30 -63.5 -72t-77.5 -100.5t-63 -83.5 q-8 -24 -11 -29l-45 -53v-17q-14 -13 -37.5 -47.5t-35.5 -46.5q-38 -30 -60 -30q-7 -1 -27.5 12t-33.5 26q-23 14 -27 78zM877 293l10 -6l8 24h-6z" />
<glyph unicode="n" horiz-adv-x="849" d="M2 154q0 2 8.5 48t9.5 70q14 25 27 64q4 15 7 48.5t7 49.5q81 236 152 422q0 3 -1 18.5t-1 24.5q46 41 57 45q5 -7 18 -22t19 -23q11 11 6 35q35 -25 51 -29q0 -3 -2 -10.5t-2 -14t4 -10.5h3q3 0 5.5 1.5t6.5 2.5l2 -22q1 -6 -2 -13.5t-8 -17t-7 -16.5q-2 -14 -8 -60 t-10 -69q0 -13 -12 -29q-13 -41 -13 -77v-13q2 2 49.5 61.5t71.5 69.5q7 3 29.5 6t36.5 11q9 -7 24 -31q22 13 29 14q3 0 7.5 -2.5t11 -8t11.5 -10t12.5 -11t10.5 -9.5v-2q0 -2 -4 -6q0 -8 13 -8q9 -17 17.5 -33t11.5 -22.5t6.5 -12.5t4 -9.5l1 -7t1 -12.5t1.5 -18 q2 -6 0 -56t-5 -104q-2 -27 -1.5 -52.5t1.5 -49.5q-2 -23 -1.5 -34.5t3 -38t3.5 -40.5q11 -7 26 -4q20 0 76 34t65 38h-2q-8 0 -4 -4l-2 -4h8q7 1 34 21t42 28q-10 -18 -14 -43q-3 -3 0 -11t2 -8l-7 -6q-7 -7 -11 -12q8 -4 16 -4l-2 -2q-6 -6 -8 -4q-3 -3 -6 -16t-11 -19 q3 -5 3.5 -16.5t4.5 -16.5q-1 -1 -10 -8.5t-13 -13.5t-5 -13q-5 -10 -31 -26.5t-33 -24.5q-13 -6 -37 -45q-16 -1 -47.5 1.5t-33.5 2.5q-18 0 -69.5 28t-55.5 42q-58 110 -68 190q-7 28 -12 181q-3 1 -2 5t-2 5q-29 -34 -91 -114.5t-88 -111.5q-3 -3 0 -14q-34 -66 -65 -104 q-14 -19 -40.5 -45t-33.5 -27q-7 0 -18.5 9.5t-16.5 8.5q-7 -1 -7 -3q-2 -3 -5 -3q-23 -3 -37.5 21t-21 53t-8.5 31q-18 14 -21 37zM551 672l2 -10l14 2l-2 10z" />
<glyph unicode="o" horiz-adv-x="598" d="M4 190q0 58 37.5 155t60.5 134q3 3 5 16t6 17q5 9 23 34.5t24 39.5q4 3 16 6q4 1 6 10t6 14q5 10 25.5 25t26.5 23q4 5 6 19.5t6 21.5q-1 0 -7 2t-11 0.5t-9 -7.5q0 9 -4 13q-6 -3 -6 -17q0 15 -14 15l4 2q2 0 8 6v8q-1 31 27 53q32 26 75.5 43t49.5 23q4 -10 11 -12.5 t18 -2.5t20 -4q10 -8 63 -61l4 -8q3 -10 8 -15q1 0 9 -1t12 -5q106 -148 106 -256q0 -198 -268 -432q-4 -3 -9 -15.5t-7 -15.5q-70 -43 -127 -43q-18 0 -33.5 3.5t-31 13t-24 15.5t-25.5 20.5t-23 19.5q-4 3 -19 32.5t-29 29.5q-16 67 -16 81zM205 213q11 7 30 23t33.5 27 t18.5 11q7 0 2.5 -6t3.5 -6q12 0 56 65t50 79q8 12 27.5 74t19.5 67q0 21 -24 76q-13 -24 -47 -69t-41 -58q-38 -69 -83.5 -161.5t-45.5 -103.5v-18zM389 639h10v31h-10v-31z" />
<glyph unicode="p" d="M-72 -354q7 9 21 41q1 8 -2 31.5t-2 41.5q0 9 14 23q4 5 4 27t4 34q2 3 8 20.5t11.5 31t15 27t18.5 16.5q33 140 107 501q4 6 0.5 25.5t-2.5 26.5q12 50 41 129q4 7 4 24t-4 29q75 222 117 385q6 11 -7 33q3 0 7.5 -3.5t13.5 -3.5q5 0 11 8.5t14 8.5q4 0 14.5 -8.5 t27.5 -23t29 -23.5q2 -14 8.5 -45.5t11.5 -56t5 -32.5q0 -5 -9.5 -49t-25 -105.5t-27.5 -99.5l11 -8h8q1 0 5 1t5 1q0 -1 -19.5 -23t-25.5 -36v-4l4 -4q23 38 92.5 97.5t108.5 59.5q10 0 106 -22q6 -4 15 -11t18 -15t12 -11q76 -37 76 -149q0 -81 -45.5 -185.5 t-119.5 -195.5t-152 -134q-7 -4 -54 -4v4q-3 3 -5.5 4t-4 1.5t-6 0t-8.5 -0.5h-17q-22 29 -53 80t-31 57q0 8 11 21t24 20q0 14 -14 14l8 -4q8 -4 14 -4t17 9.5t26 24t25 21.5q74 61 118.5 143.5t59.5 163.5q-6 1 -13 1q-53 0 -128 -64q-13 -8 -32.5 -36t-34 -50.5 t-19.5 -22.5q-6 0 -6 1.5t2 4.5t-2 7q-4 -9 -23.5 -37t-25.5 -45q-34 -64 -93 -332q-4 -19 -19 -65t-17 -54q-12 -36 -21 -77t-18 -93t-15 -80q-5 -42 -32 -73h-15q-7 0 -5 6t-5 6q-8 0 -13.5 -6t-13.5 -6q-5 0 -16 9.5t-16 10.5v16q-47 47 -56 54z" />
<glyph unicode="q" horiz-adv-x="733" d="M4 201q0 5 16 51l29 70q39 85 117.5 193.5t152.5 182.5q55 67 121 125l-14 -18q26 0 59 35.5t39 36.5q4 0 11.5 -4t18.5 -12.5t19.5 -15t23 -18.5t19.5 -16q-15 -9 -6 -31q13 -19 -12 -28q8 -13 28 -26t42 -17q3 4 2.5 9t3.5 9q1 -12 16 -42t15 -38v-6q0 -31 -33 -129 q-38 -108 -39 -113q-8 -42 -33.5 -111t-32.5 -93q-22 -79 -50.5 -207.5t-46.5 -223.5q-17 -89 -17 -101q0 -11 5 -15q3 -4 11 -2l8 2q4 0 123.5 25.5t124.5 25.5q7 0 15.5 -4t15.5 -4q4 0 20 6t25 6q13 3 88 16q52 9 61 9q11 0 64 -23q-6 -10 -13 -17.5t-10 -10t-1.5 -6.5 t9.5 -11q-31 -23 -41 -27q-3 -2 -2.5 -3.5t2 -2.5t3.5 -2.5t2 -3.5q-27 0 -33 -8q3 -4 11.5 -3t14.5 -3q-3 -3 -10 -12t-12.5 -14.5t-9.5 -6.5q-16 -6 -48.5 -19.5t-55 -22.5t-27.5 -9q-26 -1 -123.5 -23t-108.5 -24q-14 -4 -63.5 -20.5t-77.5 -24.5q-11 -14 -22 -101 t-38 -118q-6 5 -26 40q-4 3 -7.5 -0.5t-9.5 -12.5t-8 -11q-21 27 -41 29l-6 102l-6 12q-18 1 -31.5 -3t-20.5 -8.5t-9 -4.5h-9q-32 0 -77 18q-49 20 -72 52q-2 1 -5.5 9t-11.5 13q12 12 35.5 47.5t38.5 54.5q31 3 49 11q7 4 29 14t35 18q9 3 25.5 6t27.5 8t23 15 q12 19 12 66q0 11 -1 23v16q0 53 21 71q0 3 1 5t0.5 3t-5.5 5h-2q-4 -4 -2 -9q8 16 14 59.5t15 59.5q-10 10 -14 2q-2 6 3 15t11 10q4 5 -2 8l63 328h-6q-46 -35 -91 -90.5t-78.5 -84.5t-80.5 -32q-5 0 -24.5 7t-24.5 7q-8 0 -16 -2t-10 -2q-14 22 -27.5 39.5t-18.5 23.5 t-9.5 18.5t-6.5 33.5zM276 379q30 23 66.5 69t74 100.5t52.5 72.5q-53 -49 -117 -129t-76 -113zM303 -221l2 -19l8 2l-2 19z" />
<glyph unicode="r" horiz-adv-x="548" d="M4 145q0 4 8.5 38t17.5 76.5t11 66.5q32 134 39 231q14 112 20 168q2 13 5 38.5t6.5 46.5t7.5 38h24q18 0 42.5 -18.5t31.5 -38.5q19 -59 21 -91q1 -12 -3 -34t-4 -37q16 40 83.5 88.5t115.5 48.5q47 0 105 -25.5t92 -66.5q4 -5 10.5 -21t11.5 -24q-3 -7 -13 -17.5 t-16 -19.5t-2 -17q-7 0 -22 2t-31 2t-33 -4q-6 42 -10 60q-55 -21 -102.5 -75t-97.5 -132q0 10 -9 10q-9 -19 -4 -24q-4 0 -6 -2l-6 -9q-1 -3 2.5 -7.5t3.5 -8.5q-3 0 -6.5 -2t-7.5 -2h-2q-6 0 -6 -4q-2 -4 -0.5 -6.5t5 -4.5t3.5 -3q-17 -33 -49 -76q0 -3 1.5 -6.5t2.5 -5.5 t0 -3q-6 -14 -35 -43q-5 -8 -8.5 -26t-7.5 -25q-41 -83 -41 -140q0 -22 6 -40q-18 -12 -39 -12q-8 0 -58 22q-2 2 -3.5 8.5t-2 11.5t-4.5 8t-12 1q-5 15 -14.5 37t-15 38t-5.5 31z" />
<glyph unicode="s" horiz-adv-x="634" d="M4 246q0 21 13 61t30 64q8 0 16 4q1 -6 -3 -21.5t-5 -19.5q3 -4 9 -7.5t10 -7.5q4 0 4.5 -3.5t-1 -13t-1.5 -15.5q2 -2 5.5 -4.5t4.5 -3.5t1 -3.5t-3 -5.5l-8 -8q11 -20 8 -37q2 -4 11 -16.5t10 -17.5t-1 -21l9 -8q9 12 22 12q4 -7 22 -55t42 -64q32 30 51 88 q12 28 20 66.5t12 72.5t6 81.5t2 74.5t-0.5 71.5t-0.5 53.5q0 15 7 50.5t7 52.5q0 5 -3 16t-3 16q0 9 12 95q0 16 2 44t7.5 67.5t18 67t30.5 27.5q11 0 22 -8q7 1 15 1q44 0 92 -31q58 -34 90 -66q2 -8 2 -23q11 -7 22 -26.5t11 -30.5q0 -15 -9 -24q3 -16 3 -38 q0 -17 -2 -39q-4 -48 -17 -75q-14 -14 -43 -14q-9 0 -29 10t-32 22q-14 -6 -17 -18q-8 -65 -11 -224.5t-18 -244.5q-4 -28 -5.5 -39.5t-8 -46t-13 -53t-18.5 -47t-26.5 -43.5t-35.5 -27t-46 -12q-9 0 -14 3.5t-7 4.5q-1 4 -4.5 1t-11.5 -3q-22 0 -58 28l-36 29 q-50 30 -104 124.5t-54 156.5zM123 178v31h8v-31h-8z" />
<glyph unicode="t" horiz-adv-x="585" d="M37 485q0 2 5 33t5 49q10 10 10 15q2 1 10.5 4.5t14.5 3.5q8 0 9 -3t9 -3t18 10t11 20q13 33 36.5 169t33.5 173q13 50 40 145t37 130q14 61 46 151q3 10 10.5 44t18 57t28.5 35q14 14 35 14q8 0 23 -16.5t22 -16.5q8 0 13.5 1t8.5 1l-6 -2v-10q0 -9 19.5 -49t19.5 -49 t-8 -38.5t-17 -47.5q7 -24 7 -35q-44 -149 -125 -404q-9 -62 -41 -180v-10q6 -4 11.5 -5t15.5 0t14 1q15 6 43 6q5 0 6.5 -1.5t1.5 -3.5t2.5 -3.5t7.5 -1.5q7 0 24.5 5.5t26.5 6.5q103 18 324 35q0 -5 -16 -21q0 -8 10 -8q-2 -6 -8.5 -11.5t-6 -9.5t10.5 -12 q-57 -25 -70 -32q0 -2 1 -4t2.5 -3.5l3 -3t4.5 -3.5t5 -3q-9 -23 -35.5 -34t-68.5 -19q-8 -14 -23 -30.5t-24 -16.5q-5 0 -4 3t-2 7q-8 0 -8 -18q-18 -4 -41 -11t-55 -18t-46 -16q-3 -1 -3 -2.5t1.5 -5t1.5 -5.5q-2 0 -4.5 2t-11.5 2q-19 0 -94 -32l-17 -25q-8 -1 -18 -6.5 t-24 -15t-17 -11.5q-11 -49 -25 -124.5t-15 -86.5q0 -7 10.5 -52.5t10.5 -49.5q0 -7 -12 -22.5t-12 -24.5q-3 0 -15 -2t-18 -2q-8 0 -15 15t-9 17q-22 20 -35 43.5t-16.5 37t-6.5 43t-4 36.5q-3 25 -1.5 46.5t5.5 72.5q3 40 2 73v19q0 7 -28.5 47.5t-28.5 46.5z" />
<glyph unicode="u" horiz-adv-x="823" d="M4 160q0 43 6.5 81.5t18 86t16.5 78.5q24 24 35 69q0 4 -2.5 17.5t-1.5 19.5q11 25 30 39q4 4 6.5 13t4.5 21t4 19q1 4 8 9t10 8q0 3 -1.5 7.5t-0.5 8.5q10 18 30 62.5t33.5 70.5t40.5 49t60 23q5 0 18.5 -4.5t22.5 -1.5q1 -7 6.5 -16t14.5 -20t12 -16q0 -3 3 -12.5 t3 -17.5q0 -23 -13 -56.5t-38 -84t-33 -70.5q-2 -5 -24 -50.5t-31 -68.5t-32.5 -70.5t-31.5 -66.5q0 -18 4 -25q-7 -11 -12 -24t-10 -32.5t-8 -27.5v-14h4q15 17 77.5 87t83.5 95.5t64 79.5t71 97.5t52 90.5q37 71 59 101q4 -4 16 -11t17 -12q2 0 3 1t1 3t-0.5 4t-1 5 t-0.5 4l8 -9q7 -8 15 -8q3 0 4 1t0 2t0 2t4 1q2 0 8.5 -7.5t20 -17.5t30.5 -14q10 -13 19.5 -38.5t9.5 -38.5q0 -3 -8 -18.5t-18.5 -36t-14.5 -33.5q-32 -77 -47 -152l-2 -4q-6 -3 -6 -8q-17 -91 -17 -127q0 -16 14 -19q8 -4 15 -4q3 0 55 10l74 21q14 4 31.5 11.5t29 14.5 t32 19.5t28.5 17.5l14 -12q-12 -8 -33 -29q3 -3 10 -14.5t13 -17.5q-17 -24 -31 -49q-8 -11 0 -15q-6 -8 -31 -33q11 -10 23 2q0 -16 -17 -16q-7 0 -8 1.5t1 3.5t-1 5q-3 -3 -5.5 -11.5t-6.5 -12.5q-17 -23 -35 -33q-18 -14 -48 -30.5t-40 -16.5q-53 0 -147 35 q-29 22 -39 39q-14 27 -64 147q-4 6 -4.5 16.5t1 24t1.5 16.5q0 20 -8 33q-13 -16 -55 -65.5t-62.5 -75t-50.5 -69t-51 -83.5q-19 -14 -41 -24l-4 -2q0 -3 6 -6q-8 0 -31 3t-35 3q-5 10 -26.5 27t-26.5 22q-31 31 -33 49q-14 32 -14 74z" />
<glyph unicode="v" horiz-adv-x="645" d="M4 776l27 2q6 4 11 0.5t11 -2.5l4 1l4 1q8 3 47.5 -20.5t53.5 -42.5q8 -12 14 -29t13 -41t12 -37q0 -63 43 -246q123 193 227 308q5 4 66 65.5t88 73.5q4 4 9.5 13t10.5 14q76 42 78 43q9 5 13.5 6.5t6.5 1t7 -4t12 -5.5l-25 -25q0 -2 4 -2h7q1 -5 -4.5 -12.5t-6.5 -10.5 q0 -1 25 -10q-42 -46 -48 -66q-2 -10 -1 -18q-7 -10 -17.5 -22t-23 -24.5t-17.5 -18.5q11 -11 15 -2q-79 -129 -107 -164q-25 -41 -88.5 -149t-79.5 -134q-16 -13 -42 -69.5t-36 -94.5q-18 -28 -38 -94q-11 -11 -25 -14l-27 -4q-4 -1 -8 -1q-29 0 -62 32q-37 36 -59 74.5 t-26 57.5q0 5 -4 67.5t-10 149t-11 138.5q-4 144 -22 237q0 1 -8.5 16.5t-8.5 24.5zM672 672l12 12l6 -2l-12 -16z" />
<glyph unicode="w" horiz-adv-x="1056" d="M4 166v20.5v24t0.5 24t1.5 27.5t2.5 26.5t4.5 29.5t7 27.5t9 29.5t12 28q33 67 127 222q26 54 151 233q9 -1 26 -2.5t26.5 -3t24.5 -8.5t30 -21q8 -6 15 -16.5t10 -18.5t8.5 -24.5t7.5 -20.5q-7 -5 -18.5 -23t-20.5 -26v-18l-129 -205q-45 -71 -65 -121q-10 -26 -10 -48 q0 -21 8 -38v-8q13 10 43 44t67.5 79.5t52.5 62.5q28 40 48.5 70t27 40t12.5 17q22 25 76 25q9 0 22 -13.5t17 -15.5q98 -18 119 -119q9 -42 27 -99t22 -77q44 57 67 146.5t29 167.5v14q0 21 -2 59q-2 54 -2 76q0 7 4 37.5t4 50.5q0 -8 8 -16q1 -4 13 -7.5t12 -6.5 q3 -1 6 -10.5t8 -14.5q9 12 19 12v-16q21 -12 43 -12q24 -43 39.5 -102.5t15.5 -104.5q0 -35 -4.5 -76t-7.5 -60t-14 -77t-13 -66q-17 -88 -78 -184q-9 -12 -30 -37t-29 -37q-8 -14 -33 -14q-4 0 -47 16q-37 16 -61 37q-18 14 -29 39q-34 92 -45 145q-8 24 -16 53t-17 65 l-14 56q-17 -17 -37 -53q-2 -3 -10.5 -10.5t-14.5 -17t-6 -19.5q-4 3 -6 2.5t-6.5 -3.5t-7.5 -3q-24 -29 -89 -95.5t-89 -103.5q-36 -44 -117 -86v-22h-72q-12 0 -34.5 11.5t-34.5 23.5q-18 10 -41 62.5t-23 76.5z" />
<glyph unicode="x" horiz-adv-x="724" d="M-86 -2q0 25 88.5 138.5t177 222t88.5 118.5q0 4 -2.5 8.5t-7 10t-6.5 8.5q-3 24 -4.5 83t-5.5 85q-5 36 -2.5 53.5t0.5 37t-15 42.5q2 7 12.5 15.5t20.5 8.5h6t2.5 -1l1 -2l1.5 -3t3 -4q60 -12 113 -78q10 -8 16 -30q4 -9 11.5 -34.5t11.5 -37.5q136 136 207 227 q8 8 8 27q9 3 22 10.5t23 7.5l10 11q6 -6 23.5 -14t31 -19t17.5 -29l4 4q2 2 2 4q0 -2 7 -18t7 -21q-2 -30 -40 -85t-79 -102t-42 -50q-3 -7 -15.5 -21t-33.5 -35.5t-35 -37.5q-9 -12 -6 -33h-7q-2 0 -8 6q-8 -25 -39.5 -63.5t-31.5 -63.5q0 -51 22 -131l39 -121 q5 -25 24.5 -55t47.5 -49q32 -27 107 -47t97 -31q-9 2 -30 -2q-13 -6 -13 -12q-7 -1 -30.5 -10t-32.5 -9q-4 0 -41.5 5t-46.5 5q-7 0 -27.5 12.5t-32.5 24.5q-37 22 -68 54t-55.5 73t-40.5 73t-37 79q-5 11 -7 16q-26 -24 -64.5 -74.5t-62.5 -89.5q-3 0 -5 3t-4.5 8t-5.5 8 l-168 -164q-3 0 -6.5 5t-11.5 5t-9 -2q0 -2 -7 -2q-21 0 -41 33q-25 36 -25 49z" />
<glyph unicode="y" horiz-adv-x="841" d="M6 236q-1 6 -1 12q0 65 57 214q63 163 100 234q14 19 40 64t38 63q10 3 21 3q24 0 50 -17q37 -25 37 -53q2 -14 2 -25q-13 -18 -51 -102q-16 -35 -51 -121t-53 -127q-17 -21 -21 -31q-5 -12 -2 -49l453 541q105 -37 138.5 -66t37.5 -98q2 -11 -3 -50.5t-16 -62.5 q3 -18 3.5 -23t-2.5 -22.5t-3 -19.5q-3 -14 -15 -47.5t-15 -51.5q0 -2 1 -9t0.5 -13t-3.5 -10q-9 -47 -33 -144t-33 -141l-14 -14q-6 -25 -25.5 -109.5t-31 -139.5t-19.5 -110q-4 -4 -1.5 -31t1.5 -34q-14 -25 -17 -39q0 -26 -4.5 -67.5t-8 -72t-1.5 -36.5l2 -31q3 -2 4 -5 t3.5 -4t9.5 -1q15 3 29 10.5t31.5 20t27.5 18.5l8 -70q-15 -5 -21.5 -16.5t-5.5 -22t-0.5 -19.5t-7.5 -11q-5 0 -7 0.5t-1.5 1.5t-1 1.5t-4.5 0.5q-8 -1 -23 -11.5t-22 -11.5q-6 0 -60 23q-13 6 -37 47q-21 25 -42 63.5t-25 71.5q-3 29 -3 65q0 80 15 195q20 166 55.5 334.5 t61 279t41.5 168.5l-2 2q0 5 -2 7q-27 -31 -100.5 -119.5t-125 -147.5t-106.5 -118q-21 -21 -55 -41q-40 -24 -62 -27q-6 -1 -12 -1q-33 0 -58 23q-30 27 -43 61t-16 69z" />
<glyph unicode="z" horiz-adv-x="706" d="M4 115q0 53 100 153q30 39 98.5 108t76.5 77q164 148 204 231h-2l-4 4q-11 0 -63 -18l-103 -29q-3 -1 -12 -13t-14 -12q-6 0 -6 2q-3 5 -5 5q-8 0 -27 -11.5t-26 -13.5l-3 -4q-3 -4 -7 -7.5t-8 -6.5q-26 -11 -39 -11q-26 0 -42 35.5t-16 54.5v5q0 14 0.5 21t5.5 15.5 t15 12.5q88 56 164 78q52 18 147.5 40.5t108.5 22.5q4 0 18.5 -3.5t22.5 -4.5q8 -13 36.5 -32t34.5 -26q1 -8 12 -33t11 -30q0 -22 -20 -71t-35 -70q-27 -32 -81.5 -100t-112 -133.5t-140.5 -151.5q3 -4 5.5 -4.5t6 1t6.5 1.5l187 33q212 0 403 -78v-33q-19 -3 -6 -13 q-20 -7 -57 -16.5t-45 -9.5q-2 0 -18.5 2t-31.5 2.5t-38 -2.5q-242 -34 -330 -55l-7.5 -7.5t-10.5 -8.5t-9 -3q-8 -2 -32 -11t-45 -15.5t-42 -10.5q-56 -18 -88 -18q-51 0 -88 36t-41 97q-8 13 -8 29z" />
<glyph unicode="{" horiz-adv-x="688" d="M55 715l7 -1q7 -1 12.5 -0.5t12 1.5t10.5 5.5t3 12.5l21 -2q7 0 11 -5t9 -5q30 0 83 12t57 27q51 225 57 311q0 125 -6 152q0 8 -1 33.5t-0.5 44t3.5 32.5q10 44 14 97q1 4 -7.5 15t-8.5 21q0 14 14 11q15 0 53 10q-4 4 -7.5 5.5t-6.5 4.5q66 16 92 16q5 0 10.5 -5.5 t10.5 -6.5q4 0 32.5 6.5t44.5 5.5q-3 0 -3.5 -1t-1 -4t-3.5 -5q6 -4 13.5 -5t18.5 -1.5t15 -1.5q6 -10 -4 -20q5 -5 21 -5q-34 -21 -99 -69q0 -17 9 -17q-44 -14 -70.5 -10.5t-39 -2t-15.5 -36.5q0 -1 6 -55q3 -18 4.5 -45t1 -47.5t-1 -42.5t-0.5 -23q0 -34 -8 -55 q-31 -165 -58 -252q-4 -45 -18 -65q-1 -4 0 -9t0 -8q-27 -78 -49 -78q-18 0 -37 7q-2 -2 -4 -3q-2 -2 -2 -10q0 -5 5 -12.5t18 -23t14 -17.5q26 -38 36.5 -96t8.5 -105q0 -13 -7 -51.5t-14 -60.5q-1 -10 -15 -39.5t-17 -38.5q-15 -42 -31.5 -101.5t-16.5 -70.5 q0 -16 2 -31.5t8 -38t21.5 -37t38.5 -16.5q18 0 39 8q2 0 10.5 -8t16.5 -8q7 -2 50.5 20t87.5 46.5t46 25.5q1 -4 -8 -17t-17 -18q0 -2 -2.5 -10t-2 -16.5t6.5 -16.5q-16 -7 -37.5 -25.5t-29.5 -31.5q-3 -4 -22 -15t-23 -14q-5 -3 -10.5 -11t-10.5 -12q-7 -7 -39.5 -17.5 t-40.5 -10.5q-4 0 -11 3t-16.5 8t-15.5 7q-56 15 -77 31q-8 7 -60 59v19q-21 7 -35 66t-14 102q2 80 43 155q16 35 33 104t22 113q2 50 -13 80.5t-69 87.5v9q-3 8 -16 8q0 5 10 18q-5 2 -8.5 4.5t-4.5 7.5l-1.5 7.5t0 9t0.5 8.5q-4 6 -8.5 11t-10.5 10.5t-8 7.5z" />
<glyph unicode="|" horiz-adv-x="456" d="M123.5 210q3.5 93 7 143t8.5 102l33 559l25 196q20 149 28 189q3 4 8.5 8.5t13.5 9.5t11 8q2 2 1 3.5t-4 8t-3 13.5q2 3 8 2.5t17 -2.5t14 -2q8 -1 11.5 2.5t6.5 3.5q11 -26 35 -47q4 -23 4 -125q-1 -12 -3 -46t-4 -53.5t-5.5 -54t-10.5 -74.5t-16 -87l-61 -959 q-4 1 -13 -5.5t-16 -6.5l-55 2q-24 2 -34 60.5t-6.5 151.5z" />
<glyph unicode="}" horiz-adv-x="755" d="M121 0q0 19 12 43q1 4 8 10t17 12t12 7q5 -3 15.5 -19t15.5 -20q29 -13 47 -13q7 0 26 17t29 33q9 14 12 41l19 354q0 3 -3 33.5t-3 46.5q2 2 16 38t37 52l2 2q-2 2 -2 4q-4 6 -29 25q-24 43 -26 57q-34 99 -31 186q5 69 41 203t43 186q3 12 24 33l3 27q-11 11 -48 16.5 t-67 5.5q-6 6 -41 13q-7 20 2 34q-2 2 -10.5 8.5t-13.5 12.5t-5 12q7 35 21 35q5 -1 7 -2.5t2.5 -3.5t2 -3.5t4.5 -2.5q8 0 34 12.5t36 15.5q9 -4 28 -5.5t29 -4.5q9 -4 36 -11t36 -11q11 -4 42.5 -20t45.5 -19q2 -3 4 -15t6 -21.5t12 -8.5l-8 -47l-10 10q-9 -9 -12 -25 q-1 -17 -3.5 -35t-4.5 -32.5t-7 -33.5t-7.5 -30.5t-9 -32.5t-9.5 -29.5t-10.5 -31t-9.5 -28t-11 -29.5t-10 -27q-7 -20 -19 -79.5t-12 -67.5v-78q2 -1 10 -9.5t13 -9.5q0 -22 16 -35q33 -30 78 -30q5 -1 41 6q6 0 7 4q0 1 0.5 2t0.5 2q2 2 18 2q8 0 25.5 -11.5t21.5 -21.5 q7 -7 7 -41q0 -4 -12 -31t1 -46q-8 -4 -22 -7t-19 -6q-2 -1 -14 -1t-20 -3q-20 -10 -46 -33q-29 -22 -36 -20q-8 0 -9 3t-6 3q-13 0 -25 -10.5t-12 -18.5q0 -2 2 -9.5t7.5 -16.5t11.5 -12l-21 -369q0 -1 -8.5 -27.5t-3.5 -34.5q3 -41 -50.5 -103t-98.5 -58q-3 0 -29.5 -2 t-34.5 -2q-6 1 -12.5 5.5t-17 13.5t-15.5 13q-3 4 -3.5 8t0.5 8.5t1 6.5q0 5 -20 14q-3 12 -17 40.5t-14 37.5z" />
<glyph unicode="~" horiz-adv-x="878" d="M18 457q0 7 9 18.5t16 16.5q4 30 16 47q8 10 26.5 24t46.5 32.5t42 29.5q22 20 74 24l14 13q9 -2 33.5 -5.5t43 -9t30.5 -16.5q20 -13 59 -58q54 -54 74 -77q49 -64 96 -64q7 0 70 35q19 7 41 35t30 53q2 4 4.5 11.5t4.5 11t7 10t13 12.5q31 -25 43 -25q6 0 8.5 0.5 t3.5 0.5t0.5 3.5t-0.5 4.5q0 -5 -1.5 -16t-1 -19.5t4.5 -16.5q3 -15 21 -18v-2q0 -6 0.5 -9t4 -6.5t11.5 1.5q-4 -8 -5.5 -22t-1.5 -32.5t-1 -25.5q-12 -52 -80 -101t-121 -49q-55 0 -109 27t-94 65.5t-73 77t-57 65.5t-35 27q-6 0 -30 -17.5t-48 -39.5l-68 -59q-7 0 -15 -4 q-4 0 -5 2q-11 5 -34 -0.5t-26 -5.5q-7 0 -5 7t-5 7h-7.5t-3 -0.5t-1.5 -1t-1.5 -2.5t-2.5 -4q-6 6 -10.5 21t-4.5 24z" />
<glyph unicode="&#xa1;" horiz-adv-x="391" d="M23 80q-3 13 3.5 59t18.5 109.5t12 64.5q18 53 31 124t26 181.5t19 149.5l49 211q3 1 4.5 -1t10.5 -1q23 3 26 35q3 31 6 41l15 -11l10 17q2 -9 5.5 -10t10.5 0q5 1 8 2t4.5 3t0.5 5q10 -31 10 -96q10 14 13.5 32t3 42t-0.5 28q1 -4 6.5 -9t6.5 -9l-35 -672 q-14 -3 -21 -17l4 -4q3 -4 6.5 -10t2.5 -12q-11 -38 -25.5 -99t-28.5 -107t-35 -95l-14 6q-22 -23 -24 -27q4 -17 -5 -33q-7 1 -10 3t-5.5 10t-4.5 12q-11 -3 -21 -29q-1 1 -8.5 9.5t-13 14.5t-15.5 13.5t-16.5 8t-15.5 -2.5zM197 1509q1 4 10 20t10 25q40 17 49 17 q7 2 23 -4.5t26 -16.5q13 -5 29 -27.5t23 -21.5q9 1 16.5 4.5t9.5 3.5q-10 -13 -10 -28q-1 -2 -0.5 -4t1.5 -2.5t3 -2.5l4 -4q-1 -15 -19.5 -35t-25.5 -22q-7 -3 -6 0q0 3 -1 4q-1 0 -5 -2q-3 0 -4.5 -1.5t-2.5 -5t-1.5 -6.5t-1 -8t-0.5 -8q-12 1 -35.5 -5.5t-34.5 -6.5 q-4 5 -12 11.5t-9 9.5q-17 17 -28 22q-1 5 4.5 12.5t5.5 8.5q-21 27 -18 73z" />
<glyph unicode="&#xa2;" horiz-adv-x="694" d="M16 285q0 12 6 43t15 51q44 79 94 123q22 22 52.5 37.5t46.5 26t16 30.5q4 1 15.5 4.5t18 5.5t15 6t14 9t8.5 12q17 33 31 129q1 5 5 40t9 58t13 41q2 4 13 15.5t17.5 23t2.5 21.5q14 0 21.5 -3t16.5 -12t17 -14q2 -5 6.5 -14t7 -16t2.5 -15q0 -20 2 -55.5t4 -64t2 -30.5 v-61q64 -9 125.5 -51t61.5 -99q-32 -18 -64 -32q-7 17 -22 32t-23 15q-7 0 -6 -1q-2 -3 -4 -3q-8 0 -26.5 10t-26.5 10q-5 0 -7.5 -1.5t-3 -3t0 -6t0.5 -5.5l-13 12q-3 -4 -8 -7t-8 -7q-8 -36 -26.5 -109.5t-28 -121t-9.5 -77.5q4 4 8.5 4.5t11 -1t9.5 -1.5q-20 0 -37 -10 q0 -2 15 -2q57 0 119.5 13.5t99.5 35.5l-13 -14q8 -17 23 -14q-6 -4 -13 -10t-11.5 -11t-13 -14.5t-11.5 -13.5q21 -3 49 0q-5 -4 -19 -8.5t-20 -8.5q-4 -4 -15.5 -12t-15.5 -12q-4 -23 -17.5 -36.5t-38.5 -24.5t-30 -15v-2q0 -2 4 -2q-4 1 -7 -2t-6.5 -8t-6.5 -7 q-35 -14 -86 -14q-3 -4 -6 -10.5t-6 -10.5q0 -32 -9 -81q-8 -44 -8 -62q0 -8 7 -30t14 -35v-25l-4 -4q-5 -5 -5 -8q-7 7 -12.5 9.5t-7 1.5t-4.5 2.5t-8 14.5l-17 -16q-17 35 -32 86q-2 -2 -5.5 -4t-6 -3.5t-5.5 -4.5l-6 -6q-1 10 -11 32t-12 27q-4 8 -2.5 58t0.5 67 q-68 24 -141.5 98t-73.5 148zM184 334q0 -24 17 -45.5t47 -28.5q4 13 8 41t8 41l-6 92q-3 -5 -22.5 -25.5t-35.5 -41.5t-16 -33z" />
<glyph unicode="&#xa3;" horiz-adv-x="1181" d="M16 530q15 15 27 43q-4 7 -10.5 19.5t-9.5 15.5v6q0 9 8 9l6 -1v1l-21 18q3 1 6.5 11t12.5 10q4 0 4 -2.5t4 -2.5q7 0 28 17.5t29 17.5q6 0 7.5 -1t1.5 -4t2 -5q3 0 14.5 -2t19.5 -2q4 0 13 -6t14 -6q8 0 26 6t25 6t27.5 -6t28.5 -6q4 0 6 1t3.5 4t4.5 5q16 2 80 2 q5 0 8 0.5t4 1t3 3t3 3.5q4 6 8.5 25t6.5 24l8 15q75 162 90 227q8 32 29.5 82.5t27.5 66.5q3 7 31.5 74t46.5 107q48 105 109 166q10 10 39.5 26.5t37.5 16.5q5 0 10 -5.5t13 -5.5q11 0 20 6q3 13 -16 21q27 -4 39.5 -13.5t28.5 -31.5q26 0 84 -48t107.5 -116t49.5 -113 q0 -14 -14 -51q-22 -42 -84 -104l-1 -6q-1 -6 -4 -10.5t-9 -4.5q-14 0 -27 -8q-2 0 -4 7t-8 7q-8 0 -9.5 -3t-3.5 -3q0 2 -1 6t-0.5 6.5t3.5 6.5q-1 2 -10 8t-12 14q-4 11 -4 45l4 6v56q3 0 14 -11q13 21 13 56q0 20 -5 28q-11 17 -47.5 61t-46.5 44q-16 0 -51 -49l-31 -43 q-54 -85 -101 -177t-79 -165.5t-81 -194.5q-12 -31 -19 -47q0 -3 12 -12h66h86q8 0 14.5 -5t13.5 -5q23 0 53 -2.5t66.5 -14t36.5 -29.5q0 -4 -8.5 -18.5t-26 -40t-25.5 -37.5v-4q0 -2 -8 -2q-7 0 -14.5 5t-15.5 5q-7 0 -41 -9t-41 -9q-11 0 -44 0.5t-49 0t-43 -1.5 t-50 -3.5t-46 -7.5q-71 -164 -127 -351q8 0 23 -7t18 -7h312q55 0 116.5 -9t134 -24.5t99.5 -19.5q14 -3 6 -15q8 -6 37 -10v-39q-26 -19 -35 -24q0 -4 2 -6t7 -4.5t7 -4.5q-7 0 -15.5 -9.5t-8.5 -20.5q-16 0 -43.5 2t-30.5 2q-5 0 -22 -4t-25 -4q-6 0 -12.5 3t-8.5 3 q-30 0 -95.5 7t-69.5 7q-3 0 -24.5 -3t-31.5 -3q-61 0 -84 -6q-16 -3 -59.5 -2t-65.5 -2q-11 -1 -49 -5t-64.5 -8t-47.5 -10q-3 -1 -4.5 -6.5t-4.5 -9.5q0 -1 2.5 -11.5t-0.5 -14.5t-14 -1v-24v2q0 6 -2 8q-14 -8 -24.5 -5.5t-19 2t-11.5 -11.5q0 5 -8 13t-19 14 q12 33 -8 43q-5 4 -22.5 10.5t-22.5 10.5q-8 4 -15.5 18.5t-13.5 19.5q-1 3 0.5 12.5t1.5 12.5q0 4 -4.5 12t-5.5 15q-3 8 -3.5 8.5t3.5 10.5t6 20q0 6 -16 6q2 2 5.5 6.5t5.5 6t7 1.5h6.5t3 -0.5t2 -1t2 -2.5t3.5 -4q3 4 10.5 19.5t15.5 25.5q4 4 14.5 5.5t14.5 4.5 q4 14 27.5 49t27.5 54q4 36 19 57v4q0 2 -2 4q-13 -10 -13 -14q10 28 29 117l9 27q10 27 15 38q0 2 -6 8q-12 -3 -28.5 -3t-31.5 1.5t-17 1.5q-7 0 -33 -7t-33 -7t-17.5 3t-17.5 3q-4 0 -35.5 14.5t-40.5 14.5h-5q3 -2 3 -6q1 5 -5 8.5t-15 5.5q0 21 -6 33q-11 -11 -15 -11z M241 186.5q-3 -9.5 1 -10.5q12 12 2 21q0 -1 -3 -10.5z" />
<glyph unicode="&#xa5;" horiz-adv-x="1081" d="M18 440q0 10 23 39q27 0 66 34t65 34q18 3 55 3t47 1q2 0 16.5 8t22.5 8q7 0 8.5 -3t8.5 -3q4 0 6.5 1.5t4.5 5t5 5.5q-10 15 2 62t12 61q0 2 -18 53t-45 132t-43 143q-23 75 -51.5 195.5t-28.5 132.5q0 18 16 34q-5 12 -0.5 30t9.5 20q16 0 23.5 -1t10.5 -1q5 0 9 4 t10.5 13t7.5 11q5 -3 15 -10.5t18 -12.5t12 -5q9 0 10 1t4 1q45 -98 70 -191q5 -29 22 -102t25 -113q16 -82 25 -104q27 24 77.5 72t75.5 69q1 3 5 4.5t11 2.5t9 1q6 3 6 10q91 72 196.5 128.5t184.5 56.5q27 -30 0 -47q1 -6 16 -15.5t23 -11.5q-9 -8 -20 -28t-17 -27 q-8 -11 -34.5 -33.5t-35.5 -36.5q-10 -9 -39 -24.5t-40 -22.5q-117 -80 -168 -137q-11 -11 -136 -154q0 -14 -8 -22q-12 -12 -18 -22.5t-11.5 -26.5t-9.5 -25t-6.5 -32.5t-5.5 -31.5q32 -12 43 -12q3 0 4.5 1.5t2 2.5t2.5 2.5t7 1.5h7t1.5 -0.5t1.5 -3t3 -4.5q12 6 49 6 q5 0 7 -2t1.5 -4t1 -4t4.5 -2q7 0 114.5 -14.5t113.5 -14.5q7 0 24.5 3t24.5 3q6 0 16 -4.5t22.5 -11.5t18.5 -10q3 -2 3.5 -5t0 -5.5t-2 -6.5t-1.5 -6q6 -17 25 -28q-2 0 -6 -8t-3 -13q-5 5 -10 -1q-7 -8 4 -10l6 -1q-6 -2 -18.5 -7.5t-22.5 -8.5t-18 -3q-6 -5 -5 -8.5 t7 -3.5q-18 8 -53 8q-7 0 -9 -5t-10 -5q-3 0 -29.5 3.5t-61 7t-56.5 3.5q-24 0 -70 2t-86.5 2t-79.5 -4q0 -43 -6 -90q8 -8 13 -8l186 29q7 0 18.5 -2t18.5 -2q4 0 22.5 -3t32 -3.5t29.5 2.5q-4 -25 -24 -41t-51.5 -28.5t-35.5 -14.5q15 -15 23 -15t13.5 -1t8.5 -1 q-16 -6 -44.5 -20t-49 -23.5t-27.5 -9.5q-5 0 -5 -2q-4 -2 -7 -2q-7 0 -11 -5l-5 -5l-10 10q-14 -14 -31 -14l-4 1v1q-2 2 -4 2q-15 0 -80 -43q0 -35 -10 -117q-5 -106 -3 -176q-10 -14 -20 -21q-8 8 -8 27q-4 3 -6 3t-6 3q-4 -4 -4.5 -15t-0.5 -12q-6 0 -13 -10t-5 -16 q-7 6 -57 6q-9 39 -15.5 113.5t-7.5 83.5q-1 13 0.5 57.5t-2.5 54.5q-22 -6 -72.5 -10t-66.5 -4q-3 0 -35 7t-45 7q-9 15 -29 27q0 3 -8 27q7 7 4 14q-1 3 -8.5 9t-7.5 11q0 9 3 16t3 11q2 7 22 4q5 6 21 20t20 21q29 0 89 8t63 8q7 0 6 -2q5 -2 6 -2q23 0 47 17 q3 18 6.5 50t6.5 50q-54 3 -115 -14q-8 -2 -25.5 -8t-31.5 -10.5t-21 -4.5q-37 0 -68 21t-38 55q0 2 -4.5 6t-4.5 10z" />
<glyph unicode="&#xa7;" horiz-adv-x="729" d="M47 485q0 6 4 33.5t4 44.5q-1 23 9 48t30.5 60.5t28.5 51.5v-23q7 9 31.5 31t33.5 37q33 27 68 35q1 2 5.5 6.5t4.5 13.5q0 3 -11 30.5t-24.5 64t-17.5 57.5q-16 125 -16 168q0 8 2 25t2 26q1 3 7 7.5t9 8.5q1 17 8.5 51t10.5 52q-16 -9 -25 -25q20 39 20 66q3 3 21.5 26 t34.5 31l80 39q7 4 34 4q6 0 51 -25.5t52 -25.5t7 2l1 3q2 1 6 1q3 0 24.5 -14t53 -34.5t51.5 -31.5q3 -7 22 -24.5t25 -34.5q13 -25 25 -64t12 -51q0 -13 -10.5 -27t-18.5 -14h-18q-6 0 -7.5 1.5t-1.5 3.5v5t-3 6q-2 -4 -7 -25.5t-10 -27.5l-41 -22l-14 12q-11 1 -20 12 t-9 17q0 3 4.5 10t-0.5 10q-3 23 -22 23q-2 5 -4.5 9t-8 9.5l-9.5 9.5t-15 14t-18 17q-1 0 -1.5 4t-2.5 10t-5 9q-28 26 -81 47q-22 -19 -25 -33q-3 -4 -3 -11.5t1.5 -18.5t1.5 -17q0 -3 -6 -7t-6 -12q0 -9 3 -13t3 -7q-7 -58 2.5 -109t31.5 -116.5t31 -108.5l19 -22l-4 -2 q0 -3 -1 -5l-1 -2q6 -15 58 -119t69 -157q26 -169 26 -178q0 -50 -33.5 -109.5t-82.5 -103.5t-91 -54q-12 -8 -18 -14q1 -6 45.5 -125.5t44.5 -159.5q0 -9 -5.5 -47.5t-12.5 -58.5q-12 -32 -56 -58t-69 -26q-47 0 -104.5 20t-92.5 60q6 9 -10 22q-8 2 -23 2q-4 5 -4 16.5 t-4 16.5q-1 4 -11 9t-13 8v41q2 2 8 12.5t14.5 21.5t20.5 19q3 3 19.5 10.5t19.5 13.5q4 -17 9 -21.5t13 -4.5t10.5 2t10.5 2q6 0 34 -22.5t47 -26.5q2 2 2 12q0 22 -26 92q-3 3 -5.5 7.5t-3 3.5t-5.5 -3q5 10 4 13q0 11 -26 70.5t-48 95.5q-3 6 -16.5 12.5t-16.5 9.5 q-9 31 -31 43q-3 14 -12.5 38.5t-13.5 39.5l33 29q0 1 -15.5 54.5t-31 113.5t-15.5 79zM233 483q0 -22 18.5 -85.5t37 -118t18.5 -56.5l12 -6q10 8 38.5 24.5t37.5 30.5q18 22 28.5 60.5t10.5 56.5q0 75 -26 103q-10 10 -30.5 15t-25.5 9q-15 15 -39 70q-4 4 -16 4 q-19 -19 -29 -25q-8 0 -16 -4l-4 -4q0 -13 -7.5 -40.5t-7.5 -33.5z" />
<glyph unicode="&#xa8;" horiz-adv-x="1048" d="M311 1341q0 10 9.5 25t27.5 35t19 22q25 -14 71 -14q0 -5 11 -11.5t22 -6.5l1 -5q2 -4 3 -8.5t0 -9.5t-6 -8q1 -4 6 -8.5t13.5 -9t11.5 -7.5q-9 -17 -19.5 -54t-19.5 -54q-7 0 -27.5 -2t-27.5 -2q-5 0 -28 9.5t-30 10.5q2 17 -18 62zM575 1354q4 3 24.5 12t29.5 14 q1 5 -0.5 12t-1.5 9q17 3 28 18q6 -8 -4 -18q20 -35 64 -45q0 -16 33 -25v-94q-2 -3 -8 -14.5t-12.5 -19t-12.5 -7.5h-23q-8 0 -33.5 11t-44.5 24q8 19 -8 63q-1 9 -15 32t-16 28zM709 1366l8 14l6 -2l-6 -14z" />
<glyph unicode="&#xa9;" horiz-adv-x="778" d="M23 477q0 48 15.5 101.5t41.5 89.5q3 3 32.5 41.5t45.5 52.5q4 3 11.5 13t10.5 13q9 6 30.5 20t36.5 23t19 9l4 -1l4 -1q16 0 13 16q4 -4 20 -4q5 0 6 1t1 4t1 5q11 0 20.5 0.5t17 0.5t16 2.5t18.5 8.5q28 21 37 21q7 0 80 -19q5 -2 17.5 -9.5t24 -13t17.5 -5.5q8 0 0 8 q4 -3 16 -5t17 -5q11 -2 43 -27q1 3 -1.5 6t-2.5 6q4 0 6 -2q0 -2 4 -2q2 0 2 -2q4 -18 23 -41q3 -3 6 -12.5t6 -13.5l10 -6q9 -7 10 -13q3 -7 5.5 -22.5t5.5 -22.5q17 -40 20 -51q2 -18 7.5 -53.5t9.5 -61.5t4 -30q0 -26 -9 -41q-2 -7 -11.5 -26t-12.5 -32 q-8 -32 -28 -64.5t-32.5 -47.5t-44.5 -52q-69 -54 -129.5 -73t-138.5 -19q-1 0 -44.5 2t-49.5 2q-9 0 -42 11t-46 24q-9 3 -48 51t-57 80q-24 48 -32 95q-6 48 -6 71zM141 451q0 -37 25.5 -103.5t54.5 -66.5q4 -1 10.5 -8t10.5 -7t14.5 -4t15.5 -4t36 -3t36 -3t14.5 1 t14.5 1q4 0 10.5 3.5t13.5 4.5l9 -8q26 20 45 20q5 0 5 -1l3 -3q9 0 41.5 22t50.5 40q48 64 55 102q3 12 6 37t6 37q1 3 7 16t6 21q2 3 -7 46.5t-16 65.5l-2 -1q-1 -1 -6 -1q-17 0 -35.5 18.5t-33.5 41t-39 41t-52 18.5q-99 0 -245 -168l6 -6q-28 -17 -44 -63.5t-16 -85.5z M209 461q0 33 10 63q0 11 58 79.5t83 68.5q5 0 6.5 -4t6.5 -4q3 0 14 5t19 5q16 4 30 4q56 0 84 -72q1 -2 8 -8t7 -12q0 -15 -12.5 -26t-14.5 -15l-12 22q-12 15 -33 15q-16 0 -70 -13l-9 -7q-8 -7 -16.5 -15.5t-18.5 -19.5t-16.5 -22t-6.5 -20q0 -22 13.5 -49.5t39.5 -27.5 l8 -7q13 0 38.5 5.5t27.5 5.5q43 0 43 -23q0 -8 -19 -27q-31 -24 -49.5 -36t-43.5 -22.5t-48 -10.5q-6 0 -33 19t-27 22q-8 -8 -8 -10q-28 18 -43.5 63.5t-15.5 73.5zM537 653v6h10v-6h-10z" />
<glyph unicode="&#xab;" horiz-adv-x="913" d="M59 512q0 4 6 16.5t17.5 33t15.5 28.5q4 6 16 13.5t15 10.5q24 32 81 101.5t87 107.5v4q0 1 -4 9q9 0 18 -21q3 3 4.5 6.5t4 4.5t8.5 1q7 0 20.5 -12.5t29.5 -30t25 -24.5q0 -35 -31.5 -79.5t-77 -94.5t-61.5 -78q51 -71 93 -123q7 -11 36.5 -41t43.5 -53q11 -14 32 -62 q2 -2 3 -15t6.5 -22.5t19.5 -9.5v-18q-8 -4 -39 -35q-5 0 -14 12q-15 0 -15 -16q-2 2 -3 5t-3.5 4t-9.5 1t-9 -3t-9 -3q-9 0 -17 9t-12 9q-12 0 -12 -6q6 39 -76 121q-4 18 -29 43q-26 29 -29 41q-8 24 -69.5 85.5t-61.5 80.5zM397 514q0 17 32.5 58t33.5 44q11 13 41.5 47 t45.5 51t38 46t41.5 56.5t34.5 57.5q2 -2 4 -12t8 -14q19 11 33 37v-2q0 -6 6 -9q5 0 22 17q11 -9 31.5 -36.5t32.5 -35.5q2 -8 2 -14q0 -39 -55.5 -118t-110.5 -143.5t-55 -70.5q0 -21 43 -61q0 -13 2 -17q16 -23 64 -73t78 -91t30 -71q0 -6 -3 -22t-3 -25q-26 -11 -39 -11 q-5 0 -6 1.5t-0.5 4t-1.5 4t-7 1.5h-32q-6 27 -23 51q-4 4 -28.5 18.5t-34.5 24.5q-72 67 -133.5 144t-75.5 132q-3 7 -9 16.5t-6 14.5z" />
<glyph unicode="&#xad;" horiz-adv-x="729" d="M115 489q18 18 18 37q14 1 30 17t25 20q5 -2 15.5 -11t19.5 -9q3 0 24 2t34 2q16 3 29 4t26 4q44 14 55 14t43 -4q4 0 19.5 2.5t28.5 3t40 -3.5q3 -1 15.5 -3.5t17.5 -4t16.5 -4.5t18 -6.5t16 -9t17 -12.5t14.5 -15q-6 -6 -6.5 -15t2 -16t6.5 -18.5t6 -18.5q-1 0 -2 2 q-1 1 -1 1.5t-1 1.5l-6 2q-2 -2 -5.5 -14.5t-10.5 -21.5t-21 -9l-350 -33q-36 0 -52.5 6t-22 15.5t-21 38t-37.5 56.5z" />
<glyph unicode="&#xae;" horiz-adv-x="815" d="M23 967q0 55 48.5 137t92.5 102q1 3 5.5 8.5t4.5 6.5q14 8 53 39.5t66 48.5q84 36 104 41q66 14 144 14q14 0 59 -19.5t51 -29.5q4 -3 9 -16.5t10 -20.5l5 -1q5 -1 5 -5q2 -4 8.5 -14.5t8 -14.5t-0.5 -12l-16 18v-6q0 -2 8.5 -14.5t19.5 -30t15 -27.5q36 -86 55 -146 t19 -114q0 -3 -2 -18.5t-4 -35.5l-3 -30l-4 -4h-4q-24 -76 -41 -98q-21 -29 -47 -45q-65 -51 -71 -51q-4 1 -5 2q-2 2 -4 2q-7 0 -20 -10q0 -2 2 -2q3 -3 6 -3q-10 -10 -16 -12q0 7 8 12h-2q-1 0 -2 1.5t-2 1.5q-6 0 -12 -7t-5 -16q-3 -1 -14 -1t-21 -1.5t-14 -5.5 q0 8 -10 8q-12 0 -6 -6q-18 -2 -68 -2q-7 0 -7 -1l-3 -3q-5 0 -6 -2t-6 -2q-24 0 -97 25.5t-96 39.5q-2 3 -21.5 12t-25.5 15q-18 10 -32.5 22.5t-22 22.5t-20.5 29t-21 30l-10 35q0 4 -8 14t-11 17q-5 9 -9.5 29t-6.5 26q-10 38 -10 68zM131 946q0 -45 18.5 -96t53.5 -72 l-4 -2q83 -67 235 -82q5 0 17.5 -2t17.5 -2q19 0 57.5 16.5t42.5 26.5q10 9 26 28.5t19 22.5l25 25q4 3 4 10.5t4 11.5q2 7 11.5 22.5t9.5 20.5q0 40 -11 54q-10 13 -10 18q-8 28 -18 78q-22 77 -60 147q-1 10 -13 15.5t-21 3.5q1 3 6.5 6t5.5 4q-11 9 -31 20t-28.5 20.5 t-8.5 25.5q0 12 25 12q3 0 4.5 -1t5.5 -1q5 0 9 2t5.5 3.5t4.5 6.5t4 6q0 -8 21 -13.5t24 -8.5q3 7 4 8.5t6.5 2.5t9.5 3l2 -4h4q2 0 9 0.5t13.5 0.5t10.5 -1l14 -10q-15 19 -48 38t-60 19q-18 0 -45 -9.5t-39 -19.5q12 0 12 -6q-7 -6 -20 -10t-21 -8t-8 -12q-2 2 -4 5 t-6 -1q0 -8 -5 -13.5t-16 -10.5t-12 -5q-11 -11 -36.5 -25t-27.5 -16q-13 -8 -30.5 -24.5t-20.5 -18.5q-43 -31 -90 -85.5t-39 -88.5q-8 -11 -8 -35zM274 801q0 23 6 53.5t19.5 81t15.5 57.5q3 13 21 45q1 5 6.5 24t7.5 28.5t4.5 24.5t1.5 26q1 5 8.5 9t10.5 7l4 25 q1 4 7 8.5t7 7.5l4 6q3 0 5 -2t5.5 -7t4.5 -7q30 18 37 18q4 0 10 -5.5t10 -6.5q19 -5 29 -12q48 -25 88 -82q10 -10 10 -33q0 -9 -10 -29q-43 -43 -54 -43q-5 0 -2 3t-2 3q-20 -12 -26 -18q-4 -4 -11.5 -9.5t-11 -9t-8 -8.5t-6.5 -10q-1 0 -6 -2t-8 -6v-14q8 -11 42.5 -27 t47.5 -35q6 -11 6 -22q1 -2 16 -17q3 -4 5 -15t5 -15q-36 -5 -43 -9q0 -3 13 -16q-1 4 -1.5 4.5t-2.5 1t-7 0.5t-5 -4t-5 -4q-6 0 -11 4.5t-7 5.5q-24 3 -55.5 27.5t-47.5 30.5q0 -1 -4.5 -33t-15.5 -43q-8 -8 -11 -14.5t-5 -8.5q-8 0 -11 17q-3 -3 -4 -10t-4 -11 q-4 3 -14 27q-10 -7 -17 -17q0 3 -2.5 10t-1.5 11q-4 6 -13.5 14t-16.5 14.5t-7 10.5zM426 1192l6 -4l8 10l-4 2zM451 1292h12v8h-12v-8zM627 647q25 9 59 53q-9 -7 -30.5 -27.5t-28.5 -25.5zM655 1272l19 -23q-3 3 -4 7.5t-0.5 7.5t-3 5.5t-11.5 2.5z" />
<glyph unicode="&#xb0;" horiz-adv-x="385" d="M14 1028q0 37 43.5 117.5t77.5 101.5q9 5 24.5 21t20.5 16q6 0 8.5 -2t4 -6.5t4.5 -7.5q11 14 8 20q4 -4 11.5 -4t17 2t14.5 2q1 -1 20.5 -13t39.5 -25t37 -33.5t17 -38.5q0 -29 -67 -125v-2q0 -3 2 -6l2 -3q-8 -16 -19 -29t-27 -28t-22 -22q-6 -6 7 -19q-7 -5 -24.5 -12 t-25.5 -12q0 -11 11 -11l16 2q-2 0 -7.5 -4t-14.5 -4q-7 0 -20 8.5t-21 8.5h-25q0 -9 14 -9q-32 -7 -79.5 38t-47.5 79zM113 1042q0 -21 20 -30q34 5 98.5 51.5t71.5 75.5v18q-15 10 -47 20t-43 15q-37 -23 -68.5 -71.5t-31.5 -78.5z" />
<glyph unicode="&#xb4;" horiz-adv-x="1204" d="M315 1188q0 17 14 37.5t5 38.5l6 12q0 -3 -1 -6t-0.5 -5t3.5 -5q4 3 6 11.5t6 12.5q44 39 98.5 77t110 72t66.5 42l22 -7l-8 13h6q6 0 8 2l2 -8q6 0 49 22t64 27q14 -18 14 -39q0 -20 -18 -41q12 -18 -6 -39q-44 -41 -152 -119q-16 -12 -37 -31.5t-41 -35.5 q-10 -6 -45 -41q-54 -54 -71 -54q-29 0 -90 27q0 5 -5.5 18.5t-5.5 18.5z" />
<glyph unicode="&#xb6;" horiz-adv-x="823" d="M25 727q0 8 3 9.5t3 4.5q-11 40 0 76q11 44 35 86q0 24 4 29q14 45 49 98q16 23 35 44t51.5 52t38.5 37q33 35 79 52.5t91 17.5q8 0 35 -11.5t34 -11.5q8 0 12.5 5.5t6.5 5.5q-1 -8 10.5 -32t11.5 -28q0 -7 -1 -8t-3 1t-6 -1q0 -23 -12 -59q-4 -86 -4 -136q0 -280 4 -358 l-8 -100q-9 -137 -9 -142q-10 -202 -24 -378q-1 -9 -16.5 -46t-18.5 -49l-20 23q-3 -17 -19 -17q-11 0 -34.5 17.5t-37.5 32.5q-3 8 -16.5 27.5t-13.5 27.5q0 7 7 35.5t7 36.5q3 20 6 90q3 69 12 84q-19 3 -16 75q2 49 2 97q8 0 8 14q-1 2 -2.5 4t-2.5 3t-2.5 2t-4 1h-6.5 q-7 0 -8 -0.5t0.5 -3.5t1.5 -6q-3 4 -8 4t-13.5 -2t-13.5 -2q-21 0 -84 37t-66 47q-23 20 -47 76q-11 29 -20.5 76.5t-9.5 62.5zM567 741q0 1 0.5 11.5t1 34t0.5 57.5q1 35 2.5 62t3.5 48t3 31q6 81 36 166q2 7 25.5 24.5t22.5 30.5h28l12 -10q3 16 25 16q15 0 23 -8 q11 -23 20.5 -55.5t9.5 -44.5q0 -6 -11 -71t-11 -72v-297q0 -1 -3 -60.5t-6.5 -138.5t-3.5 -127q-2 -18 -2 -92l7 -94l4 -111q-9 0 -9 -10q-1 -27 -26 -123h-6q-6 0 -6 4q-29 -3 -38.5 -1.5t-13.5 5.5t-6 4q-8 0 -10.5 -6t-5.5 -6q-2 2 -9 13t-14 18.5t-14 11.5q-1 15 -5 52 t-5 52.5t-2.5 51.5t2.5 49q-5 115 -2 186q4 82 4 125q0 4 -2 4q-6 0 -6 2q0 45 -5 225q0 8 -4 23t-4 20z" />
<glyph unicode="&#xb7;" horiz-adv-x="311" d="M45 618q0 24 8 37q3 4 11 13.5t15 17.5t15 16.5t14.5 13.5t10.5 5q6 0 6 -2q7 -4 8 -4q4 0 21.5 20t29.5 25q-4 -17 17 -31t35 -8q0 -15 -7 -19q39 -39 39 -55q0 -7 -1.5 -14t-3.5 -13.5t-3 -9.5q-10 -8 -30 -34.5t-35 -36.5q-13 -7 -36 -13t-34 -6q-44 0 -62 29.5 t-18 68.5z" />
<glyph unicode="&#xb8;" horiz-adv-x="399" d="M51 -166q0 5 15 45q13 7 38 33q1 1 1.5 5.5t2.5 11t5 10.5q8 0 16 4q2 3 9.5 13t11.5 14.5t11.5 12t16.5 13t21 10.5q-4 -16 -7.5 -56t-7.5 -59l11 13q0 -14 -9 -23q0 -6 6.5 -11t14.5 -5q7 0 16 3t17 3l6 -8q5 -1 22 -4.5t29 -7.5t22 -11q18 -12 24.5 -29t8 -37.5 t6.5 -31.5q9 -9 9 -27q0 -32 -84.5 -82.5t-104.5 -50.5q-4 0 -6.5 6t-11.5 6q-5 0 -10 -1t-7.5 -2t-4.5 -2t-3 -1v6q0 7 2 9q-15 13 -28 32.5t-13 30.5q0 18 20.5 29.5t48 24t38.5 28.5q-8 17 -25.5 18.5t-51 5t-69.5 23.5q4 14 -1 27z" />
<glyph unicode="&#xbb;" horiz-adv-x="907" d="M100 250v39q0 8 45.5 59t91.5 116t46 107q0 17 -73 105t-73 117q0 8 5.5 21.5t11.5 19.5q16 16 34 16q0 -19 9 -31v6q0 6 10 6q6 0 8 2t1 8t-1 7q23 -29 68 -45q23 -29 56 -67t46.5 -55t29 -43t20.5 -51.5t5 -60.5q0 -31 -2 -39q-12 -37 -41 -86q-2 -1 -9.5 -1t-12.5 -3 q-38 -65 -72 -102q-9 -12 -45 -52t-51 -63q-8 6 -12 20.5t-7 18.5l-20 -22q2 2 2 6q0 6 -8 6t-13 -4t-8 -4q0 7 -5.5 19t-14.5 16v14q-6 6 -13.5 6t-7.5 -6zM350 154q0 29 62 120t124 172.5t62 85.5q-1 0 -44 63.5t-86 133t-44 82.5q0 7 8.5 20t16.5 19q5 0 14 4t16 4 q5 0 7.5 -1t2 -2t1 -2t6.5 -1q6 0 9 1t3 3v3v1q3 -2 30.5 -13t36.5 -22q4 0 6.5 -1t4 -3.5t2 -4.5l1.5 -6t1 -5q4 -7 13.5 -25t14.5 -26q9 -18 53.5 -76.5t78.5 -113.5t34 -85q0 -11 -6.5 -35t-17.5 -36q-199 -212 -256 -334q-13 0 -19 -6v6q0 1 7 8l-9 8q-20 -10 -28 -45 q-4 4 -6 8.5t-5 7.5q-6 0 -10 -5t-4 -11q-32 18 -41 45q-12 0 -22 10q-17 27 -17 54z" />
<glyph unicode="&#xbf;" horiz-adv-x="831" d="M12 211q0 58 52.5 127.5t114.5 120t136 107t95 77.5q11 10 20.5 30.5t9.5 33.5q1 21 -24.5 33t-51.5 14l-26 2q-6 40 -10 53q45 0 59 8q4 1 7.5 4t5.5 5t4.5 7t4 7.5t4 9t3.5 8.5q3 3 4 5q0 1 3 1h7q7 0 29.5 -7.5t34.5 -8.5q16 -21 26 -23l23 -20q13 0 22 -12 q5 -18 14 -39t14 -39.5t5 -44.5q0 -18 -12 -43.5t-13 -30.5q-5 -37 -21.5 -69.5t-45.5 -61t-56 -50.5t-68 -53.5t-67 -54.5q-105 -89 -135 -127q21 -21 87.5 -34t131.5 -13q8 0 12 3t7 3q-4 -4 -10 -5.5t-9 -4.5q25 -20 39 -20h33q5 0 23 13t26 17q15 6 41 6q8 0 13 -3 t12 -3q14 -1 46 20t58 41l27 21q7 0 6 -1q2 -3 4 -3q4 0 8 4t8 12t7 11q0 -9 10.5 -29t17.5 -20q19 0 33 -7q-21 -67 -103.5 -114t-158.5 -56l-23 -12q-204 -18 -219 -18q-13 0 -112 24q-76 17 -129.5 77.5t-53.5 121.5zM360 1229q0 5 5.5 36.5t5.5 49.5q14 13 35 24t32 11 q9 0 35 -17.5t37 -34.5q10 -23 20.5 -58.5t10.5 -47.5q0 -25 -18.5 -40.5t-16.5 -37.5q-5 0 -21.5 -5t-21.5 -5q-8 0 -18.5 5t-18.5 5q-6 0 -13 4.5t-15.5 12.5t-10.5 10q7 3 4 12q-3 8 -12 19.5t-12 19.5q-3 4 -3 9.5t1.5 12.5t1.5 9z" />
<glyph unicode="&#xc0;" horiz-adv-x="968" d="M2 496q0 4 5 10.5t12.5 13.5t9.5 10q10 -10 22 -10q11 0 42 9.5t50 19.5q68 3 103 16q33 70 120.5 271t137.5 297q28 62 94 184q5 8 40.5 55.5t53.5 79.5q13 21 13 72l2 2q6 6 10 6q7 0 17.5 -3t17.5 -3l11 -2q11 -2 11 2q6 -17 19 -17q7 0 6 1q2 3 4 3q9 0 27 -19 t22 -36q16 -36 16 -151q0 -3 -1.5 -15t-3.5 -27t-3 -22q-4 -8 -0.5 -34.5t2.5 -37.5q-30 -245 -35 -344l-32 -235q8 -4 22 -4q71 -10 168 -10q0 -15 10 -15l-10 -12q3 -18 29 -33q-48 -19 -170 -53q-23 -6 -49 -8q-5 -9 -11.5 -33.5t-7.5 -28.5q-7 -12 4 -41q-3 -4 -7 -5.5 t-5 -4.5q-2 -18 -2.5 -102t-9.5 -127q-8 -45 -4.5 -71.5t0 -63.5t-22.5 -76q-8 -19 -8 -49q-3 0 -6.5 -3.5t-7.5 -3.5q-16 -3 -19 -16q-6 6 -29.5 16t-29.5 13q-18 26 -25.5 57t-7 53t3 59.5t2.5 57.5q-4 5 -1 38t3 38l4 266h-76q-21 0 -112.5 -25.5t-97.5 -31.5 q-12 -23 -42.5 -90.5t-54.5 -108.5q-21 -21 -26 -35q-26 -53 -37 -102q-3 0 -4.5 2t-2.5 6t-3 6q-11 -15 -11 -31q-2 0 -4.5 -1t-4.5 -0.5t-5 4.5l-10 -11q-3 6 -18.5 12.5t-20.5 10.5q-11 5 -17 21.5t-6 29.5q0 39 45 145q9 27 47 113q-17 12 -52 34t-46 30q-9 13 -28 47 t-19 41zM430 586q17 0 51 -4.5t57 -5.5t72 6l35 452q-52 -81 -128.5 -254t-86.5 -194zM694 1866q0 5 8 21.5t3 25.5q12 0 16 4q-3 6 -13.5 12t-13.5 8v25q17 3 22.5 3t10.5 -2.5t8 -2.5q13 0 33 16q16 -22 37 -22q5 0 16.5 5t16.5 5q4 -3 4.5 -5.5t-1 -6t-1.5 -6.5 q32 -25 47 -45q101 -106 131 -160q3 -4 3.5 -9.5t-0.5 -14.5t-1 -13q0 -3 11.5 -11.5t12.5 -13.5q9 -15 9 -34q0 -8 -10.5 -27.5t-10.5 -28.5q-36 0 -45 -4q-16 -3 -6 -10q-14 2 -35.5 11.5t-34.5 21.5q-25 25 -96 101.5t-110 115.5q-11 33 -11 41z" />
<glyph unicode="&#xc1;" horiz-adv-x="946" d="M2 496q0 4 5 10.5t12.5 13.5t9.5 10q10 -10 22 -10q11 0 42 9.5t50 19.5q68 3 103 16q33 70 120.5 271t137.5 297q28 62 94 184q5 8 40.5 55.5t53.5 79.5q13 21 13 72l2 2q6 6 10 6q7 0 17.5 -3t17.5 -3l11 -2q11 -2 11 2q6 -17 19 -17q7 0 6 1q2 3 4 3q9 0 27 -19 t22 -36q16 -36 16 -151q0 -3 -1.5 -15t-3.5 -27t-3 -22q-4 -8 -0.5 -34.5t2.5 -37.5q-30 -245 -35 -344l-32 -235q8 -4 22 -4q71 -10 168 -10q0 -15 10 -15l-10 -12q3 -18 29 -33q-48 -19 -170 -53q-23 -6 -49 -8q-5 -9 -11.5 -33.5t-7.5 -28.5q-7 -12 4 -41q-3 -4 -7 -5.5 t-5 -4.5q-2 -18 -2.5 -102t-9.5 -127q-8 -45 -4.5 -71.5t0 -63.5t-22.5 -76q-8 -19 -8 -49q-3 0 -6.5 -3.5t-7.5 -3.5q-16 -3 -19 -16q-6 6 -29.5 16t-29.5 13q-18 26 -25.5 57t-7 53t3 59.5t2.5 57.5q-4 5 -1 38t3 38l4 266h-76q-21 0 -112.5 -25.5t-97.5 -31.5 q-12 -23 -42.5 -90.5t-54.5 -108.5q-21 -21 -26 -35q-26 -53 -37 -102q-3 0 -4.5 2t-2.5 6t-3 6q-11 -15 -11 -31q-2 0 -4.5 -1t-4.5 -0.5t-5 4.5l-10 -11q-3 6 -18.5 12.5t-20.5 10.5q-11 5 -17 21.5t-6 29.5q0 39 45 145q9 27 47 113q-17 12 -52 34t-46 30q-9 13 -28 47 t-19 41zM430 586q17 0 51 -4.5t57 -5.5t72 6l35 452q-52 -81 -128.5 -254t-86.5 -194zM805 1616q0 17 13.5 37.5t4.5 38.5l6 12q0 -3 -1 -6t-0.5 -5t3.5 -5q4 3 6.5 11.5t6.5 12.5q44 39 98 77t109.5 72.5t66.5 41.5l23 -7l-8 13h6q6 0 8 2l2 -8q6 0 49 22t64 27 q14 -17 14 -39q0 -19 -19 -41q12 -18 -6 -39q-47 -44 -151 -119q-16 -12 -37 -31.5t-41 -35.5q-10 -6 -45 -41q-54 -54 -72 -54q-29 0 -90 27q0 5 -5 18.5t-5 18.5z" />
<glyph unicode="&#xc2;" horiz-adv-x="929" d="M2 496q0 4 5 10.5t12.5 13.5t9.5 10q10 -10 22 -10q11 0 42 9.5t50 19.5q68 3 103 16q33 70 120.5 271t137.5 297q28 62 94 184q5 8 40.5 55.5t53.5 79.5q13 21 13 72l2 2q6 6 10 6q7 0 17.5 -3t17.5 -3l11 -2q11 -2 11 2q6 -17 19 -17q7 0 6 1q2 3 4 3q9 0 27 -19 t22 -36q16 -36 16 -151q0 -3 -1.5 -15t-3.5 -27t-3 -22q-4 -8 -0.5 -34.5t2.5 -37.5q-30 -245 -35 -344l-32 -235q8 -4 22 -4q71 -10 168 -10q0 -15 10 -15l-10 -12q3 -18 29 -33q-48 -19 -170 -53q-23 -6 -49 -8q-5 -9 -11.5 -33.5t-7.5 -28.5q-7 -12 4 -41q-3 -4 -7 -5.5 t-5 -4.5q-2 -18 -2.5 -102t-9.5 -127q-8 -45 -4.5 -71.5t0 -63.5t-22.5 -76q-8 -19 -8 -49q-3 0 -6.5 -3.5t-7.5 -3.5q-16 -3 -19 -16q-6 6 -29.5 16t-29.5 13q-18 26 -25.5 57t-7 53t3 59.5t2.5 57.5q-4 5 -1 38t3 38l4 266h-76q-21 0 -112.5 -25.5t-97.5 -31.5 q-12 -23 -42.5 -90.5t-54.5 -108.5q-21 -21 -26 -35q-26 -53 -37 -102q-3 0 -4.5 2t-2.5 6t-3 6q-11 -15 -11 -31q-2 0 -4.5 -1t-4.5 -0.5t-5 4.5l-10 -11q-3 6 -18.5 12.5t-20.5 10.5q-11 5 -17 21.5t-6 29.5q0 39 45 145q9 27 47 113q-17 12 -52 34t-46 30q-9 13 -28 47 t-19 41zM430 586q17 0 51 -4.5t57 -5.5t72 6l35 452q-52 -81 -128.5 -254t-86.5 -194zM580 1612q3 6 9.5 26t12.5 29q21 27 57 55q57 64 80 103q48 51 109 98q34 -26 51 -57l8 8q97 -212 97 -223q0 -2 -6 -6t-7.5 -10.5t6.5 -26.5q-63 -21 -71 -21q-4 0 -10 5t-16 16l-9 10 q-4 6 -11.5 19t-13 21.5t-14.5 19.5t-18 20q-68 -60 -152 -109q-2 2 -5.5 3.5t-5 4.5t-1.5 9q-6 -3 -23 -13.5t-26 -13.5q18 11 22 37l-2 2q-2 1 -5 -3.5t-11 -4.5q-7 0 -7 2q-2 7 -2 8l-12 -14q-6 0 -10 2q-6 0 -14 4z" />
<glyph unicode="&#xc3;" horiz-adv-x="940" d="M2 496q0 4 5 10.5t12.5 13.5t9.5 10q10 -10 22 -10q11 0 42 9.5t50 19.5q68 3 103 16q33 70 120.5 271t137.5 297q28 62 94 184q5 8 40.5 55.5t53.5 79.5q13 21 13 72l2 2q6 6 10 6q7 0 17.5 -3t17.5 -3l11 -2q11 -2 11 2q6 -17 19 -17q7 0 6 1q2 3 4 3q9 0 27 -19 t22 -36q16 -36 16 -151q0 -3 -1.5 -15t-3.5 -27t-3 -22q-4 -8 -0.5 -34.5t2.5 -37.5q-30 -245 -35 -344l-32 -235q8 -4 22 -4q71 -10 168 -10q0 -15 10 -15l-10 -12q3 -18 29 -33q-48 -19 -170 -53q-23 -6 -49 -8q-5 -9 -11.5 -33.5t-7.5 -28.5q-7 -12 4 -41q-3 -4 -7 -5.5 t-5 -4.5q-2 -18 -2.5 -102t-9.5 -127q-8 -45 -4.5 -71.5t0 -63.5t-22.5 -76q-8 -19 -8 -49q-3 0 -6.5 -3.5t-7.5 -3.5q-16 -3 -19 -16q-6 6 -29.5 16t-29.5 13q-18 26 -25.5 57t-7 53t3 59.5t2.5 57.5q-4 5 -1 38t3 38l4 266h-76q-21 0 -112.5 -25.5t-97.5 -31.5 q-12 -23 -42.5 -90.5t-54.5 -108.5q-21 -21 -26 -35q-26 -53 -37 -102q-3 0 -4.5 2t-2.5 6t-3 6q-11 -15 -11 -31q-2 0 -4.5 -1t-4.5 -0.5t-5 4.5l-10 -11q-3 6 -18.5 12.5t-20.5 10.5q-11 5 -17 21.5t-6 29.5q0 39 45 145q9 27 47 113q-17 12 -52 34t-46 30q-9 13 -28 47 t-19 41zM430 586q17 0 51 -4.5t57 -5.5t72 6l35 452q-52 -81 -128.5 -254t-86.5 -194zM571 1712q6 5 42.5 38.5t51.5 44.5t45 25.5t56 14.5q8 0 31 -12t32 -15q-6 6 -12 0q3 -2 4 -5t10 -3q4 0 6 0.5t2 1.5v2t1.5 1.5t5.5 0.5t13 -14.5t23 -33t27 -25.5q60 -45 133 -45 q27 0 125 24q3 -15 0 -18q0 -4 2 -4q0 -1 1 -2t1 -2q13 -10 13 -23q0 -6 10 -29q-1 0 -49 -55q0 -10 16 -10q-85 -37 -117 -37q-67 0 -142 47.5t-134 122.5q-4 4 -10.5 5t-18 0t-14.5 -1q-16 0 -49 -20q-34 -21 -41 -31q-2 2 -3 6.5t-4 7t-10 2.5q-5 0 -19.5 -8t-18.5 -8 q0 10 8 18q-17 28 -17 39z" />
<glyph unicode="&#xc6;" horiz-adv-x="1398" d="M31 571q20 9 20 27q5 0 13 -4t16 -4q10 0 42.5 4.5t80.5 18t73 30.5q2 2 11 25.5t21 53.5t22 46q41 102 108 244v12q20 42 54.5 120.5t56.5 125t63.5 120.5t92.5 150q6 12 6 72q11 6 41.5 3t48.5 -18h10q39 -24 51.5 -55t7.5 -78h29q6 0 51.5 15.5t53.5 15.5q7 0 7 -2 t7 -2t95 20.5t95 20.5l310 20q31 0 97.5 -10.5t133 -35t66.5 -52.5v-22q0 -5 -2 -6.5t-5 -1.5q-4 0 -4 -3q-56 -18 -165 -25.5t-144 -13.5q-4 -1 -18 -8.5t-19 -7.5q-8 0 -10 2t-4 2l-289 -76q-29 -9 -77 -16t-78 -19t-54 -40q-8 -9 -7.5 -40.5t-2.5 -48.5 q-13 -58 -23 -153.5t-24 -147.5q5 -4 51 -4q4 0 8 7.5t8 7.5q7 0 7.5 -2t7.5 -2q6 0 110.5 37.5t110.5 37.5q7 0 6 -1q2 -3 4 -3q6 0 17 6.5t12 6.5q9 2 49 11t66.5 15.5t66.5 20.5t72 30q1 -19 6.5 -31.5t5.5 -13.5q0 -6 -4 -13.5t-7.5 -13t-2.5 -11.5t10 -9 q-5 -4 -18 -10.5t-17 -9.5t-17 -7.5t-21 -10.5t-9 -17v-4q0 -2 4 -2q-37 -14 -53 -21q3 -4 4.5 -5t5 0t4.5 1l-411 -198l-107 -23q-15 -26 -27 -68q-10 -56 -17 -148t-7 -118l4 -4q-10 -23 -2 -41q2 -27 31 -78q2 -1 3 -2.5t9 -1.5q7 0 21.5 5t21.5 5q5 0 13 -5t16 -5 q6 0 9.5 1t6 2.5t4.5 2.5q60 0 125 45q22 13 60.5 40.5t65.5 46t32 18.5q4 0 8.5 -4t7.5 -4q0 -42 6 -52q0 -22 -20 -51q-2 -2 -2 -4q0 -4 4 -4q8 0 9 3t3 3q-9 -13 -26 -35t-29.5 -40t-20.5 -35q-3 -3 -12.5 -7t-22 -9.5t-18.5 -8.5q-19 -13 -37.5 -18.5t-23.5 -8.5 q-4 -2 -12.5 -13t-14.5 -11t-57.5 -3t-57.5 -3q-17 0 -58.5 19.5t-49.5 27.5q-12 0 -15 -15q-1 -12 -7.5 -37.5t-10.5 -43.5q-5 -15 -20 -15q-4 1 -4 2q-3 2 -5 2q-6 0 -7.5 -2t-1.5 -6t-3 -6q-8 0 -20 12q-19 -1 -39.5 19.5t-22.5 34.5q-8 38 -8 163v365q-10 1 -25.5 1 t-31 -0.5t-17.5 -0.5q-7 0 -77 -19.5t-74 -19.5q-7 0 -13.5 -5t-13.5 -5t-8 -5t-8 -5q-6 0 -6 2q-3 4 -5 4q-9 0 -23.5 -34t-35.5 -90t-35 -85q-26 -20 -33 -33q-10 -17 -20.5 -54.5t-17.5 -52.5v3q0 1 -7 8q-4 -5 -7.5 -16t-6.5 -15l-10 10q-3 -3 -4 -7q0 -2 -1 -2.5 t-7 -0.5q-19 0 -29 10q-8 5 -19.5 25t-11.5 31q0 9 31 109t53 155q0 8 -14 8q-10 0 -86 51q-3 12 -20.5 45t-24.5 51zM459 666l6 -7q11 0 52.5 -1t70.5 -0.5t51 4.5l25 454q-31 -45 -61.5 -111t-76.5 -178t-67 -161z" />
<glyph unicode="&#xc7;" horiz-adv-x="761" d="M8 440q0 155 92 406q4 14 28.5 57t31.5 58q4 7 8 17.5t8 23.5t6 18q57 105 152 229.5t158 153.5q30 24 38 24q7 0 16.5 -7t16.5 -7t6 2q5 2 6 2q27 0 70 -16q8 -1 25 -15.5t28 -19.5l11 -5.5l12 -6t10.5 -6t10.5 -7t9 -7t9 -8.5t7 -9.5t7 -11.5q19 -39 19 -101 q0 -20 -9.5 -31.5t-11.5 -19.5q-7 -36 -12 -49q-9 -21 -21 -39l-24 -37q-8 -3 -18 -16t-15 -13q-3 0 -11.5 2t-17 2t-16.5 -4q-5 1 -2.5 9.5t2.5 9.5q-3 4 -11 4h-10q-35 35 -43 39q7 21 20.5 55.5t23.5 59.5t10 30v31h-2l-4 2q-18 0 -68.5 -56t-50.5 -65 q-6 -10 -29.5 -45.5t-32.5 -54.5q-12 -22 -46 -75.5t-48 -84.5q-10 -26 -29.5 -88t-33.5 -96q-3 -12 -13.5 -43.5t-13.5 -48.5q-3 -12 -10 -44.5t-11 -50.5t-9 -44.5t-7 -49t-2 -41.5q0 -4 -4 -16t-4 -19t5 -18t5 -16v-25q0 -16 2 -22q0 -19 31.5 -89.5t62.5 -70.5 q13 0 13 14q1 -1 4 -5.5t7 -6.5t11 -2h37q20 8 72.5 23t77.5 24q17 6 57.5 25.5t56.5 25.5q5 1 13.5 11t11.5 12q15 10 31 18.5t38.5 18.5t30.5 14q22 9 31 31q2 2 22 2q3 0 4.5 -1.5t1.5 -3.5t0.5 -5t2.5 -5l16 12q17 12 26 17.5t24 15t27 14t21 5.5q3 1 7 9.5t8 12.5 q31 18 37 -10l-33 -25l8 -30q-62 -43 -84 -74q-22 -25 -74 -61q-14 -8 -26 -33q-78 -43 -179 -115q0 -2 1 -6q2 -8 -3 -8q-2 -2 -3 -4t-2 -3t-3.5 -2t-7.5 -1h-10q1 0 -2 6q-7 -7 -11 -19q-20 -3 -55 -12l-18 -6q-2 -6 -2 -19q0 -31 -6 -61l10 12q0 -14 -8 -22 q0 -6 6.5 -11.5t13.5 -5.5t16 3t17 3l6 -8q6 -2 22.5 -4.5t29 -6.5t22.5 -11q18 -12 24.5 -29t8 -38t6.5 -32q8 -8 8 -26q0 -32 -84.5 -82.5t-104.5 -50.5q-4 0 -6.5 6t-11.5 6q-5 0 -10 -1t-7.5 -2t-4.5 -2t-3 -1v6q0 6 2 8q-14 13 -27 33t-13 31q0 18 20 29.5t47.5 24 t38.5 28.5q-8 17 -25 18.5t-50.5 5t-69.5 23.5q4 14 -1 27l-6 12q0 5 15 45q17 10 39 32q1 1 1 5.5t2 11t5 10.5q-1 5 -24 9.5t-33 4.5q-7 0 -9.5 -4t-9.5 -4q-32 0 -103.5 54t-84.5 75q-5 8 -17.5 24.5t-23.5 33.5t-19 34q-16 26 -28 50t-21 50t-13.5 40t-12 42.5 t-9.5 34.5q4 10 -1 44.5t-5 35.5zM756 217l6 -6l8 14l-8 4zM799 250l6 -4l16 10l-4 6z" />
<glyph unicode="&#xc8;" horiz-adv-x="772" d="M6 317v138q8 8 8 12q7 42 17.5 84.5t18.5 68.5t13.5 51t4.5 44t-9 35q18 -6 27 14q48 135 107 313q2 5 9 19.5t12 26.5t5 18q0 10 -15.5 22t-29.5 17q0 4 -14 21t-17 30q-22 70 -26 84v14l2 2q3 6 10 6q3 0 4 -1t0 -2t0 -2t4 -1q8 0 12 5t5 5q130 36 172 45 q14 20 23.5 38t11 24.5t8 11.5t14 5.5t29.5 0.5q8 0 24 -12q2 -5 5 -9.5t8.5 -9t9.5 -7.5t11.5 -8.5t10.5 -8.5q8 -2 13 -2q2 0 54 8t79 8q40 2 99.5 2t107.5 -1t89.5 -2t43.5 -1q8 0 66.5 -13t92.5 -24q73 -23 99 -43q12 -9 14.5 -27t9.5 -26q-42 -26 -47 -26h-270 q-5 0 -17 -6.5t-16 -6.5q-13 -4 -47 -5.5t-45 -4.5q-17 -5 -135 -22l-10 -11q-12 4 -33.5 2.5t-32 -3.5t-32 -6.5t-34.5 -6.5v-4q0 -2 -4 -2q-6 0 -29 -4t-36 -4q-20 -9 -29 -23q-18 -39 -55 -172q-6 -16 -30 -89.5t-42 -113.5l8 -8q20 10 29 10q6 0 8 -1t3 -4t3 -5l15 14 l6 -4h6q8 0 181 39t181 39q5 0 7 -0.5t2 -1.5t0.5 -1.5t3.5 -0.5l137 31l-10 -8q14 -11 14 -31q0 -8 -7 -16t-9 -13q-1 -4 3.5 -9t4.5 -9q-14 -3 -40 -15.5t-38 -15.5q0 -2 -2 -4.5t-4 -4.5q-10 -11 2 -11q-22 0 -49 -15q2 -2 4.5 -3t4.5 -0.5t5.5 1t5.5 0.5l-303 -121 q-25 0 -110 -36q-49 -15 -103 -15q-7 0 -6 1q-2 3 -4 3q-21 0 -45 -159q-8 -43 -18.5 -114t-10.5 -83q0 -8 2 -12t2 -6q0 -1 -0.5 -13.5t4.5 -23.5t19 -29q2 0 10 -3t16 -3q7 0 10.5 5t10.5 5q8 0 17 -8t14 -8q7 0 20.5 3t20.5 3t55 18q49 15 113 49q9 5 40.5 30.5 t49.5 25.5q5 0 7.5 -5.5t6.5 -5.5q3 -9 0 -15.5t-1 -15t13 -16.5q-3 -3 -12 -21.5t-18 -27.5q0 -6 16 -6q-10 -6 -32.5 -30.5t-24.5 -30.5q-2 -2 -5.5 -8.5t-8 -12.5t-11.5 -10q-17 -14 -52 -31t-62 -27t-31 -10h-78q-8 0 -12.5 2.5t-6.5 3.5q-47 0 -106 48 q-105 71 -135 161q-9 23 -17 71t-8 60zM416 1810q0 4 7.5 21.5t2.5 26.5q12 0 16 4q-3 4 -7 7.5t-9.5 6.5t-9.5 6v25q17 3 22.5 3t10.5 -2.5t8 -2.5q12 0 32 16q17 -23 37 -23q5 0 16.5 5.5t16.5 5.5q4 -3 4.5 -5.5t-1 -6.5t-1.5 -7q32 -25 47 -45q102 -107 131 -159 q3 -4 3.5 -9.5t-0.5 -14.5t-1 -13q0 -3 12 -11.5t13 -13.5q8 -13 8 -35q0 -8 -10 -27t-10 -28q-36 0 -45 -4q-17 -3 -7 -10q-14 2 -35 11t-34 21q-25 25 -96.5 101.5t-110.5 115.5q-10 30 -10 41z" />
<glyph unicode="&#xc9;" horiz-adv-x="772" d="M6 317v138q8 8 8 12q7 42 17.5 84.5t18.5 68.5t13.5 51t4.5 44t-9 35q18 -6 27 14q48 135 107 313q2 5 9 19.5t12 26.5t5 18q0 10 -15.5 22t-29.5 17q0 4 -14 21t-17 30q-22 70 -26 84v14l2 2q3 6 10 6q3 0 4 -1t0 -2t0 -2t4 -1q8 0 12 5t5 5q130 36 172 45 q14 20 23.5 38t11 24.5t8 11.5t14 5.5t29.5 0.5q8 0 24 -12q2 -5 5 -9.5t8.5 -9t9.5 -7.5t11.5 -8.5t10.5 -8.5q8 -2 13 -2q2 0 54 8t79 8q40 2 99.5 2t107.5 -1t89.5 -2t43.5 -1q8 0 66.5 -13t92.5 -24q73 -23 99 -43q12 -9 14.5 -27t9.5 -26q-42 -26 -47 -26h-270 q-5 0 -17 -6.5t-16 -6.5q-13 -4 -47 -5.5t-45 -4.5q-17 -5 -135 -22l-10 -11q-12 4 -33.5 2.5t-32 -3.5t-32 -6.5t-34.5 -6.5v-4q0 -2 -4 -2q-6 0 -29 -4t-36 -4q-20 -9 -29 -23q-18 -39 -55 -172q-6 -16 -30 -89.5t-42 -113.5l8 -8q20 10 29 10q6 0 8 -1t3 -4t3 -5l15 14 l6 -4h6q8 0 181 39t181 39q5 0 7 -0.5t2 -1.5t0.5 -1.5t3.5 -0.5l137 31l-10 -8q14 -11 14 -31q0 -8 -7 -16t-9 -13q-1 -4 3.5 -9t4.5 -9q-14 -3 -40 -15.5t-38 -15.5q0 -2 -2 -4.5t-4 -4.5q-10 -11 2 -11q-22 0 -49 -15q2 -2 4.5 -3t4.5 -0.5t5.5 1t5.5 0.5l-303 -121 q-25 0 -110 -36q-49 -15 -103 -15q-7 0 -6 1q-2 3 -4 3q-21 0 -45 -159q-8 -43 -18.5 -114t-10.5 -83q0 -8 2 -12t2 -6q0 -1 -0.5 -13.5t4.5 -23.5t19 -29q2 0 10 -3t16 -3q7 0 10.5 5t10.5 5q8 0 17 -8t14 -8q7 0 20.5 3t20.5 3t55 18q49 15 113 49q9 5 40.5 30.5 t49.5 25.5q5 0 7.5 -5.5t6.5 -5.5q3 -9 0 -15.5t-1 -15t13 -16.5q-3 -3 -12 -21.5t-18 -27.5q0 -6 16 -6q-10 -6 -32.5 -30.5t-24.5 -30.5q-2 -2 -5.5 -8.5t-8 -12.5t-11.5 -10q-17 -14 -52 -31t-62 -27t-31 -10h-78q-8 0 -12.5 2.5t-6.5 3.5q-47 0 -106 48 q-105 71 -135 161q-9 23 -17 71t-8 60zM629 1581q0 17 13.5 37.5t4.5 38.5l6 12q0 -3 -1 -6t-0.5 -5t3.5 -5q4 3 6.5 11.5t6.5 12.5q44 39 98 77t109.5 72.5t66.5 41.5l23 -6l-9 12h7q6 0 8 2l2 -8q6 0 48.5 22t63.5 27q15 -19 15 -39q0 -19 -19 -41q12 -18 -6 -39 q-47 -44 -151 -119q-16 -12 -37 -31.5t-41 -35.5q-10 -6 -45 -41q-53 -53 -72 -53q-31 0 -90 26q0 5 -5 18.5t-5 18.5z" />
<glyph unicode="&#xca;" horiz-adv-x="772" d="M6 317v138q8 8 8 12q7 42 17.5 84.5t18.5 68.5t13.5 51t4.5 44t-9 35q18 -6 27 14q48 135 107 313q2 5 9 19.5t12 26.5t5 18q0 10 -15.5 22t-29.5 17q0 4 -14 21t-17 30q-22 70 -26 84v14l2 2q3 6 10 6q3 0 4 -1t0 -2t0 -2t4 -1q8 0 12 5t5 5q130 36 172 45 q14 20 23.5 38t11 24.5t8 11.5t14 5.5t29.5 0.5q8 0 24 -12q2 -5 5 -9.5t8.5 -9t9.5 -7.5t11.5 -8.5t10.5 -8.5q8 -2 13 -2q2 0 54 8t79 8q40 2 99.5 2t107.5 -1t89.5 -2t43.5 -1q8 0 66.5 -13t92.5 -24q73 -23 99 -43q12 -9 14.5 -27t9.5 -26q-42 -26 -47 -26h-270 q-5 0 -17 -6.5t-16 -6.5q-13 -4 -47 -5.5t-45 -4.5q-17 -5 -135 -22l-10 -11q-12 4 -33.5 2.5t-32 -3.5t-32 -6.5t-34.5 -6.5v-4q0 -2 -4 -2q-6 0 -29 -4t-36 -4q-20 -9 -29 -23q-18 -39 -55 -172q-6 -16 -30 -89.5t-42 -113.5l8 -8q20 10 29 10q6 0 8 -1t3 -4t3 -5l15 14 l6 -4h6q8 0 181 39t181 39q5 0 7 -0.5t2 -1.5t0.5 -1.5t3.5 -0.5l137 31l-10 -8q14 -11 14 -31q0 -8 -7 -16t-9 -13q-1 -4 3.5 -9t4.5 -9q-14 -3 -40 -15.5t-38 -15.5q0 -2 -2 -4.5t-4 -4.5q-10 -11 2 -11q-22 0 -49 -15q2 -2 4.5 -3t4.5 -0.5t5.5 1t5.5 0.5l-303 -121 q-25 0 -110 -36q-49 -15 -103 -15q-7 0 -6 1q-2 3 -4 3q-21 0 -45 -159q-8 -43 -18.5 -114t-10.5 -83q0 -8 2 -12t2 -6q0 -1 -0.5 -13.5t4.5 -23.5t19 -29q2 0 10 -3t16 -3q7 0 10.5 5t10.5 5q8 0 17 -8t14 -8q7 0 20.5 3t20.5 3t55 18q49 15 113 49q9 5 40.5 30.5 t49.5 25.5q5 0 7.5 -5.5t6.5 -5.5q3 -9 0 -15.5t-1 -15t13 -16.5q-3 -3 -12 -21.5t-18 -27.5q0 -6 16 -6q-10 -6 -32.5 -30.5t-24.5 -30.5q-2 -2 -5.5 -8.5t-8 -12.5t-11.5 -10q-17 -14 -52 -31t-62 -27t-31 -10h-78q-8 0 -12.5 2.5t-6.5 3.5q-47 0 -106 48 q-105 71 -135 161q-9 23 -17 71t-8 60zM414 1591q3 6 9.5 26.5t12.5 29.5q19 25 58 55q56 62 79 102q52 55 109 99q33 -26 51 -58l8 8q97 -212 97 -223q0 -2 -6 -6t-7.5 -10.5t6.5 -26.5q-60 -20 -71 -20q-5 0 -35 30q-4 6 -11.5 19t-13 21.5t-14.5 19.5t-18 20 q-64 -57 -152 -108q-2 2 -4.5 3t-4 2t-2.5 3.5t-1 7.5q-6 -3 -23 -13t-26 -13q18 11 22 36l-2 2q-2 1 -5 -3.5t-11 -4.5q-6 0 -6.5 1.5t1 3.5t-2.5 5l-13 -14q-6 0 -10 2q-6 0 -14 4z" />
<glyph unicode="&#xcb;" horiz-adv-x="772" d="M6 317v138q8 8 8 12q7 42 17.5 84.5t18.5 68.5t13.5 51t4.5 44t-9 35q18 -6 27 14q48 135 107 313q2 5 9 19.5t12 26.5t5 18q0 10 -15.5 22t-29.5 17q0 4 -14 21t-17 30q-22 70 -26 84v14l2 2q3 6 10 6q3 0 4 -1t0 -2t0 -2t4 -1q8 0 12 5t5 5q130 36 172 45 q14 20 23.5 38t11 24.5t8 11.5t14 5.5t29.5 0.5q8 0 24 -12q2 -5 5 -9.5t8.5 -9t9.5 -7.5t11.5 -8.5t10.5 -8.5q8 -2 13 -2q2 0 54 8t79 8q40 2 99.5 2t107.5 -1t89.5 -2t43.5 -1q8 0 66.5 -13t92.5 -24q73 -23 99 -43q12 -9 14.5 -27t9.5 -26q-42 -26 -47 -26h-270 q-5 0 -17 -6.5t-16 -6.5q-13 -4 -47 -5.5t-45 -4.5q-17 -5 -135 -22l-10 -11q-12 4 -33.5 2.5t-32 -3.5t-32 -6.5t-34.5 -6.5v-4q0 -2 -4 -2q-6 0 -29 -4t-36 -4q-20 -9 -29 -23q-18 -39 -55 -172q-6 -16 -30 -89.5t-42 -113.5l8 -8q20 10 29 10q6 0 8 -1t3 -4t3 -5l15 14 l6 -4h6q8 0 181 39t181 39q5 0 7 -0.5t2 -1.5t0.5 -1.5t3.5 -0.5l137 31l-10 -8q14 -11 14 -31q0 -8 -7 -16t-9 -13q-1 -4 3.5 -9t4.5 -9q-14 -3 -40 -15.5t-38 -15.5q0 -2 -2 -4.5t-4 -4.5q-10 -11 2 -11q-22 0 -49 -15q2 -2 4.5 -3t4.5 -0.5t5.5 1t5.5 0.5l-303 -121 q-25 0 -110 -36q-49 -15 -103 -15q-7 0 -6 1q-2 3 -4 3q-21 0 -45 -159q-8 -43 -18.5 -114t-10.5 -83q0 -8 2 -12t2 -6q0 -1 -0.5 -13.5t4.5 -23.5t19 -29q2 0 10 -3t16 -3q7 0 10.5 5t10.5 5q8 0 17 -8t14 -8q7 0 20.5 3t20.5 3t55 18q49 15 113 49q9 5 40.5 30.5 t49.5 25.5q5 0 7.5 -5.5t6.5 -5.5q3 -9 0 -15.5t-1 -15t13 -16.5q-3 -3 -12 -21.5t-18 -27.5q0 -6 16 -6q-10 -6 -32.5 -30.5t-24.5 -30.5q-2 -2 -5.5 -8.5t-8 -12.5t-11.5 -10q-17 -14 -52 -31t-62 -27t-31 -10h-78q-8 0 -12.5 2.5t-6.5 3.5q-47 0 -106 48 q-105 71 -135 161q-9 23 -17 71t-8 60zM383 1669q0 10 9 24.5t28 36.5l18 21q25 -14 72 -14q0 -5 11 -12t22 -7l1 -4q2 -4 3 -8.5t0 -9.5t-6 -8q1 -4 6 -8.5t13 -9t11 -7.5q-9 -17 -19.5 -54.5t-19.5 -54.5q-7 0 -27.5 -2t-27.5 -2q-5 0 -27.5 10t-29.5 11q2 15 -19 61z M647 1681q4 3 24.5 13t28.5 14q1 5 -0.5 12t-1.5 9q18 4 29 18q6 -8 -4 -18q20 -37 63 -46q0 -15 33 -24v-94q-2 -3 -8 -14.5t-12.5 -19t-12.5 -7.5h-22q-8 0 -33.5 11t-44.5 24q8 19 -8 63q-1 9 -15 31t-16 28zM780 1694l8 14l7 -2l-7 -14z" />
<glyph unicode="&#xcd;" horiz-adv-x="903" d="M4 121q0 5 5.5 19t6.5 22q6 5 31.5 10.5t42.5 5.5l20 -8q19 -8 33 -4q26 -8 57 -9.5t67 0.5t52 1l3 4l43 291q3 9 9.5 41.5t16.5 52.5q0 14 -6 14q14 23 23 70.5t10 50.5v2q0 2 -6 8l145 492q-6 6 -27 6q-8 0 -15.5 -6t-12.5 -8q-20 -5 -47 -5q-5 0 -17.5 2.5t-17.5 2.5 q-8 0 -35 -7.5t-31 -7.5q-17 0 -59 33q-15 15 -26.5 59.5t-14.5 51.5l18 4q17 4 21 18h29q24 0 24 2.5t-8 7.5q1 0 2 2.5t4.5 4.5t9.5 2q4 0 15.5 -3t25.5 -4q7 2 -4 7q16 0 37 -5q10 7 -4 7q8 0 29 -1t30 -1q4 1 23.5 5.5t32.5 4.5q3 8 -4 8q6 -3 12.5 -4t11 -1t11 0.5 t8.5 0.5q6 0 22.5 3t40 8t41.5 7q16 0 71 3t81 3q4 0 23 1t26 1q13 0 78 -7t108 -15l43 -29q6 -25 12 -35v-16q-8 -3 -21 -16t-18 -13q-7 0 -6 3q-3 4 -6 4q-5 0 -13 -7.5t-13 -7.5q-115 0 -283 -28q-1 0 -10 -7q-4 -50 -16 -89t-31 -88.5t-31 -94.5q-4 -12 -15.5 -35 t-15.5 -35q0 -1 -1 -12.5t-5 -19.5q-30 -64 -59.5 -167.5t-44.5 -135.5q-5 -13 -9 -38t-6 -34q0 -6 4 -6q-3 0 -4.5 -7t-5.5 -8q0 -2 -39 -176q-16 -50 -16 -78v-36q16 0 48 2t34 2l358 -31h-2q-4 0 -8 -4q0 -8 18 -8q3 0 11.5 -1t11.5 -1v-19q-3 -4 -7 -5.5t-14.5 -3.5 t-19.5 -5q21 -13 29 -19q-15 0 -19 -4q0 -17 -18 -32q-30 -13 -56 -13q-5 0 -7 -1.5t-1.5 -3.5t-1 -3.5t-4.5 -1.5q-7 0 -3 5t-1 5q-6 0 -7.5 -1t-0.5 -4t0 -5q-74 0 -129 -8q-50 -6 -213 -10q-7 0 -14 -7.5t-7 -15.5q0 -7 9.5 -43t9.5 -43q0 -4 -4 -9.5t-10.5 -13.5 t-10.5 -14q-4 0 -14 3t-15 3l-14 25q-22 9 -42 51t-26 47q-30 5 -80.5 8t-90.5 9t-76 22q-39 23 -60 70q-12 9 0 37h-6q-2 0 -2 10zM309 1337v9h23v-9h-23zM653 1577q0 17 14 37.5t5 38.5l6 12q0 -3 -1 -6t-0.5 -5t3.5 -5q4 3 6 11.5t6 12.5q44 39 98.5 77t110 72t66.5 42 l22 -6l-8 12h6q6 0 8 2l2 -8q6 0 49 22t64 27q14 -17 14 -39q0 -20 -18 -41q12 -18 -6 -39q-44 -41 -152 -119q-16 -12 -37 -31.5t-41 -35.5q-10 -6 -45 -41q-54 -54 -71 -54q-29 0 -90 27q0 5 -5.5 18.5t-5.5 18.5z" />
<glyph unicode="&#xce;" horiz-adv-x="903" d="M4 121q0 5 5.5 19t6.5 22q6 5 31.5 10.5t42.5 5.5l20 -8q19 -8 33 -4q26 -8 57 -9.5t67 0.5t52 1l3 4l43 291q3 9 9.5 41.5t16.5 52.5q0 14 -6 14q14 23 23 70.5t10 50.5v2q0 2 -6 8l145 492q-6 6 -27 6q-8 0 -15.5 -6t-12.5 -8q-20 -5 -47 -5q-5 0 -17.5 2.5t-17.5 2.5 q-8 0 -35 -7.5t-31 -7.5q-17 0 -59 33q-15 15 -26.5 59.5t-14.5 51.5l18 4q17 4 21 18h29q24 0 24 2.5t-8 7.5q1 0 2 2.5t4.5 4.5t9.5 2q4 0 15.5 -3t25.5 -4q7 2 -4 7q16 0 37 -5q10 7 -4 7q8 0 29 -1t30 -1q4 1 23.5 5.5t32.5 4.5q3 8 -4 8q6 -3 12.5 -4t11 -1t11 0.5 t8.5 0.5q6 0 22.5 3t40 8t41.5 7q16 0 71 3t81 3q4 0 23 1t26 1q13 0 78 -7t108 -15l43 -29q6 -25 12 -35v-16q-8 -3 -21 -16t-18 -13q-7 0 -6 3q-3 4 -6 4q-5 0 -13 -7.5t-13 -7.5q-115 0 -283 -28q-1 0 -10 -7q-4 -50 -16 -89t-31 -88.5t-31 -94.5q-4 -12 -15.5 -35 t-15.5 -35q0 -1 -1 -12.5t-5 -19.5q-30 -64 -59.5 -167.5t-44.5 -135.5q-5 -13 -9 -38t-6 -34q0 -6 4 -6q-3 0 -4.5 -7t-5.5 -8q0 -2 -39 -176q-16 -50 -16 -78v-36q16 0 48 2t34 2l358 -31h-2q-4 0 -8 -4q0 -8 18 -8q3 0 11.5 -1t11.5 -1v-19q-3 -4 -7 -5.5t-14.5 -3.5 t-19.5 -5q21 -13 29 -19q-15 0 -19 -4q0 -17 -18 -32q-30 -13 -56 -13q-5 0 -7 -1.5t-1.5 -3.5t-1 -3.5t-4.5 -1.5q-7 0 -3 5t-1 5q-6 0 -7.5 -1t-0.5 -4t0 -5q-74 0 -129 -8q-50 -6 -213 -10q-7 0 -14 -7.5t-7 -15.5q0 -7 9.5 -43t9.5 -43q0 -4 -4 -9.5t-10.5 -13.5 t-10.5 -14q-4 0 -14 3t-15 3l-14 25q-22 9 -42 51t-26 47q-30 5 -80.5 8t-90.5 9t-76 22q-39 23 -60 70q-12 9 0 37h-6q-2 0 -2 10zM309 1337v9h23v-9h-23zM432 1534q2 4 9.5 25t13.5 30q23 29 57 56q59 66 80 102q51 54 108 98q36 -28 52 -57l8 8q96 -209 96 -223 q0 -2 -5.5 -6t-7 -10.5t6.5 -26.5q-63 -21 -72 -21q-4 0 -10 5t-16 16l-9 10q-4 6 -11.5 19t-13 21.5t-14.5 19.5t-18 20q-70 -62 -151 -109q-2 2 -6 3.5t-5.5 4.5t-1.5 9q-6 -3 -23 -13.5t-26 -13.5q19 12 23 37l-2 2q-2 1 -5.5 -3.5t-11.5 -4.5q-6 0 -6.5 1.5t1 3.5 t-2.5 5l-12 -14q-7 0 -11 2q-6 0 -14 4z" />
<glyph unicode="&#xcf;" horiz-adv-x="903" d="M4 121q0 5 5.5 19t6.5 22q6 5 31.5 10.5t42.5 5.5l20 -8q19 -8 33 -4q26 -8 57 -9.5t67 0.5t52 1l3 4l43 291q3 9 9.5 41.5t16.5 52.5q0 14 -6 14q14 23 23 70.5t10 50.5v2q0 2 -6 8l145 492q-6 6 -27 6q-8 0 -15.5 -6t-12.5 -8q-20 -5 -47 -5q-5 0 -17.5 2.5t-17.5 2.5 q-8 0 -35 -7.5t-31 -7.5q-17 0 -59 33q-15 15 -26.5 59.5t-14.5 51.5l18 4q17 4 21 18h29q24 0 24 2.5t-8 7.5q1 0 2 2.5t4.5 4.5t9.5 2q4 0 15.5 -3t25.5 -4q7 2 -4 7q16 0 37 -5q10 7 -4 7q8 0 29 -1t30 -1q4 1 23.5 5.5t32.5 4.5q3 8 -4 8q6 -3 12.5 -4t11 -1t11 0.5 t8.5 0.5q6 0 22.5 3t40 8t41.5 7q16 0 71 3t81 3q4 0 23 1t26 1q13 0 78 -7t108 -15l43 -29q6 -25 12 -35v-16q-8 -3 -21 -16t-18 -13q-7 0 -6 3q-3 4 -6 4q-5 0 -13 -7.5t-13 -7.5q-115 0 -283 -28q-1 0 -10 -7q-4 -50 -16 -89t-31 -88.5t-31 -94.5q-4 -12 -15.5 -35 t-15.5 -35q0 -1 -1 -12.5t-5 -19.5q-30 -64 -59.5 -167.5t-44.5 -135.5q-5 -13 -9 -38t-6 -34q0 -6 4 -6q-3 0 -4.5 -7t-5.5 -8q0 -2 -39 -176q-16 -50 -16 -78v-36q16 0 48 2t34 2l358 -31h-2q-4 0 -8 -4q0 -8 18 -8q3 0 11.5 -1t11.5 -1v-19q-3 -4 -7 -5.5t-14.5 -3.5 t-19.5 -5q21 -13 29 -19q-15 0 -19 -4q0 -17 -18 -32q-30 -13 -56 -13q-5 0 -7 -1.5t-1.5 -3.5t-1 -3.5t-4.5 -1.5q-7 0 -3 5t-1 5q-6 0 -7.5 -1t-0.5 -4t0 -5q-74 0 -129 -8q-50 -6 -213 -10q-7 0 -14 -7.5t-7 -15.5q0 -7 9.5 -43t9.5 -43q0 -4 -4 -9.5t-10.5 -13.5 t-10.5 -14q-4 0 -14 3t-15 3l-14 25q-22 9 -42 51t-26 47q-30 5 -80.5 8t-90.5 9t-76 22q-39 23 -60 70q-12 9 0 37h-6q-2 0 -2 10zM309 1337v9h23v-9h-23zM500 1626q0 10 9 24.5t27 35.5l19 22q25 -14 72 -14q0 -5 10.5 -12t21.5 -7l1 -4q2 -4 3 -8.5t0 -9.5t-6 -8 q1 -4 6 -8.5t13.5 -9t11.5 -7.5q-9 -16 -19.5 -54t-19.5 -55q-7 0 -27.5 -2t-27.5 -2q-5 0 -27.5 10t-29.5 11q2 15 -19 61zM766 1628q4 3 24.5 13t28.5 14q1 5 -0.5 11.5t-1.5 8.5q17 3 29 19q6 -9 -4 -19q20 -35 63 -45q0 -15 33 -24v-95q-2 -3 -8 -14.5t-12.5 -19 t-12.5 -7.5h-22q-8 0 -33.5 11t-44.5 24q9 20 -8 64q-1 9 -15 31t-16 28zM899 1640l8 15l6 -2l-6 -15z" />
<glyph unicode="&#xd1;" horiz-adv-x="1112" d="M2 160q0 32 18 73q3 12 6 42.5t7 48.5q90 319 125 424v30q12 51 88 334l59 207q5 23 2 41q-1 5 -1 19t-1 22q4 11 8 20.5t9.5 17.5t9 13t11 11l10 8t10.5 7.5t10 6.5l18 -4q18 18 31 18q16 0 33 -14q1 0 18 -1t27 -5q26 -13 43 -47q1 -5 0 -20t0 -19q0 -33 -11 -90 q-3 -14 10 -44.5t15 -41.5q0 -28 4 -33q13 -44 41.5 -134.5t40.5 -134.5q91 -331 107 -387q1 -2 20 -26q8 7 12 15.5t7.5 23t5.5 20.5q-14 -41 -7 -74q38 156 48 187l114 477q6 18 16.5 34t15 26.5t1.5 25.5q5 10 21 62.5t30 62.5q3 11 51 141q-5 4 -8.5 2t-3.5 -8 q0 13 10 23q0 -12 7 -15q6 6 6 23q0 18 -13 28q12 -3 35 -2t37 -2q8 5 8 13q-5 8 -20 2l20 4q6 -3 13.5 -3t13.5 -3t12 -13q6 0 17 15q8 -13 8 -31q20 -15 24 -16q0 -20 17.5 -33t17.5 -25q0 -3 -15.5 -33.5t-36 -73t-30.5 -67.5q-2 -6 -18.5 -52t-22.5 -69q-5 -6 -10 -49 q-3 -10 -20 -53.5t-26 -76.5t-9 -58q0 -2 -13 -25q-17 -61 -20 -114q-10 -19 -19.5 -52.5t-9.5 -44.5q0 -14 -18 -84q0 -1 6 -10q-3 -26 -15.5 -85t-15.5 -79q-4 -4 -6.5 -4t-5.5 -4q0 -2 2 -2q0 -2 4 -2q-3 -42 -16 -74q0 -2 8 -10q-26 -186 -35 -334q-34 -24 -47 -24h-51 q-8 0 -31 14q-16 8 -31 20.5t-34 32t-25 25.5q-26 23 -39 61q-4 11 -25 79.5t-36 100.5q4 4 4 9q-7 7 -13.5 23t-13.5 39.5t-8 27.5q3 3 0 12q-3 10 -8 10q-6 10 0 19q-52 134 -68 190q-53 179 -78 270q-3 9 -14 17l-6 -2q-47 -218 -90 -355q-4 -14 -19 -26q-11 -30 -30 -94 t-21 -70q-1 -3 -2 -4t-3.5 -2.5t-4.5 -3.5q-1 -4 -8.5 -30t-8.5 -44q-11 -14 -12 -20q-7 -31 -21 -75t-21.5 -75.5t-4.5 -56.5v-21.5t2.5 -29.5t9.5 -15q-10 -10 -16 0q-2 -3 -4.5 -7.5t-3.5 -7.5t-4 -5t-8 -2q-7 0 -20.5 -2t-20.5 -2q-4 0 -14.5 8t-18.5 8q-5 0 -10 -4 q-7 17 -56 92q6 10 4 12q-1 8 -6.5 33t-5.5 29zM29 250l8 -4l4 12l-4 4zM37 276l14 11q0 4 -1 15t-1 15q-12 -32 -12 -41zM53 344h8l5 23h-7zM106 508q5 15 11.5 46.5t7.5 35.5q-5 -15 -11.5 -46.5t-7.5 -35.5zM131 600q21 47 21 59q0 8 -3.5 10.5t-3.5 4.5q0 -16 -14 -74z M444 1714q6 5 42.5 38.5t51.5 44.5t45 25.5t56 14.5q8 0 31 -12t32 -15q-6 6 -12 0q3 -2 4 -4.5t3 -3t8 -0.5q8 0 8 2q3 4 6 4q4 0 13 -14.5t23 -33t27 -25.5q60 -45 133 -45q27 0 125 24q3 -15 0 -18q0 -4 2 -4q0 -1 1 -2t1 -2q13 -10 13 -23q0 -6 10 -29q-1 0 -49 -55 q0 -10 16 -10q-85 -37 -116 -37q-67 0 -142.5 47.5t-134.5 122.5q-4 4 -10.5 5t-18 0t-14.5 -1q-16 0 -49 -20q-34 -21 -41 -31q0 1 -3 8.5t-13 7.5q-5 0 -20 -8t-19 -8q0 10 8 18q-17 28 -17 39zM1024 1395l8 26h8l-8 -26h-8zM1044 1448l9 12l6 -2l-6 -12z" />
<glyph unicode="&#xd2;" horiz-adv-x="995" d="M4 481q0 59 10 152q14 73 35 129q3 5 4.5 22t5.5 25q7 22 26 72t26 75q13 8 26 48q14 53 81 168t158 220t150 105q7 0 33 -10t33 -10q3 0 20.5 7t26.5 7q17 0 55 -10q7 -4 18 -5.5t24 -1.5t18 -1q12 -3 27 -9.5t22 -10t27 -15.5t22 -13q24 -16 57.5 -49t38.5 -37 q0 -1 -1 -7t-0.5 -10t3.5 -7q41 -70 62 -94q3 -13 13 -53t15 -62q19 -57 4 -139q9 -9 9 -25q-1 -7 -5.5 -18.5t-8 -20t-1.5 -20.5t13 -23q10 10 12 10q-2 -4 -7 -21.5t-11.5 -28.5t-16.5 -15q11 -11 8 -21q-68 -189 -183.5 -376t-234.5 -306q-12 -13 -53 -34q-2 -2 -6 -8.5 t-9 -12t-11 -8.5q-63 -43 -85.5 -51t-78.5 -8h-78q-14 0 -41 24q-2 1 -20.5 7t-26.5 14q-57 47 -100 100q-17 25 -54 88q-3 10 -11 32.5t-13 37t-10 35t-7 36.5q-10 51 -10 127zM180 375q0 -55 21.5 -150.5t50.5 -113.5q32 -2 74.5 20.5t76 49t83 78.5t69.5 75.5t63 73.5 q7 8 11.5 25t9.5 20q3 4 17 18t20 23q3 4 5.5 19t6.5 19q1 4 3 7t7.5 6t8 4.5t10.5 4t10 3.5q0 2 -1.5 8.5t-0.5 9.5q6 12 27.5 51.5t30 56.5t26.5 52.5t28.5 59t23.5 55t22 59.5q21 115 35 138q-3 0 -15 12q0 59 -16 153q0 7 -13 40.5t-39 69.5t-51 36q-13 0 -24 -2.5 t-19 -5t-21 -11t-19.5 -13.5t-25.5 -19.5t-30 -22.5q-18 -10 -35 -16q-14 -11 -40.5 -44.5t-45.5 -45.5q-4 -3 -7 -12t-7 -13l-6.5 6.5t-5 3.5t-6.5 -2q-18 -31 -31 -31q-3 0 -4 1t0 2.5t0 2.5t-4 1q-7 0 -10.5 -7.5t-10.5 -7.5q-5 0 -6 4t-6 4q-14 0 -43 -53v-18 q-20 -52 -47 -107q-8 -17 -19.5 -54t-15.5 -46q-5 -13 -20 -38t-19 -38q-10 -32 -22 -91t-17 -77q-13 -40 -31 -172q-6 -48 -6 -61zM485 1806q0 5 8 21.5t3 25.5q11 0 16 5q-3 6 -13.5 12t-13.5 8v25q17 3 22.5 3t10.5 -2.5t8 -2.5q13 0 33 16q17 -23 37 -23q5 0 16.5 5.5 t16.5 5.5q4 -3 4.5 -5.5t-1 -6.5t-1.5 -7q32 -25 47 -45q101 -106 131 -160q3 -4 3.5 -9t-0.5 -14t-1 -13q0 -3 12 -11.5t13 -13.5q8 -13 8 -35q0 -8 -10.5 -27t-10.5 -28q-36 0 -45 -4q-16 -3 -6 -10q-14 2 -35.5 11.5t-34.5 20.5q-25 25 -96 101.5t-110 115.5 q-11 33 -11 41z" />
<glyph unicode="&#xd3;" horiz-adv-x="997" d="M4 481q0 59 10 152q14 73 35 129q3 5 4.5 22t5.5 25q7 22 26 72t26 75q13 8 26 48q14 53 81 168t158 220t150 105q7 0 33 -10t33 -10q3 0 20.5 7t26.5 7q17 0 55 -10q7 -4 18 -5.5t24 -1.5t18 -1q12 -3 27 -9.5t22 -10t27 -15.5t22 -13q24 -16 57.5 -49t38.5 -37 q0 -1 -1 -7t-0.5 -10t3.5 -7q41 -70 62 -94q3 -13 13 -53t15 -62q19 -57 4 -139q9 -9 9 -25q-1 -7 -5.5 -18.5t-8 -20t-1.5 -20.5t13 -23q10 10 12 10q-2 -4 -7 -21.5t-11.5 -28.5t-16.5 -15q11 -11 8 -21q-68 -189 -183.5 -376t-234.5 -306q-12 -13 -53 -34q-2 -2 -6 -8.5 t-9 -12t-11 -8.5q-63 -43 -85.5 -51t-78.5 -8h-78q-14 0 -41 24q-2 1 -20.5 7t-26.5 14q-57 47 -100 100q-17 25 -54 88q-3 10 -11 32.5t-13 37t-10 35t-7 36.5q-10 51 -10 127zM180 375q0 -55 21.5 -150.5t50.5 -113.5q32 -2 74.5 20.5t76 49t83 78.5t69.5 75.5t63 73.5 q7 8 11.5 25t9.5 20q3 4 17 18t20 23q3 4 5.5 19t6.5 19q1 4 3 7t7.5 6t8 4.5t10.5 4t10 3.5q0 2 -1.5 8.5t-0.5 9.5q6 12 27.5 51.5t30 56.5t26.5 52.5t28.5 59t23.5 55t22 59.5q21 115 35 138q-3 0 -15 12q0 59 -16 153q0 7 -13 40.5t-39 69.5t-51 36q-13 0 -24 -2.5 t-19 -5t-21 -11t-19.5 -13.5t-25.5 -19.5t-30 -22.5q-18 -10 -35 -16q-14 -11 -40.5 -44.5t-45.5 -45.5q-4 -3 -7 -12t-7 -13l-6.5 6.5t-5 3.5t-6.5 -2q-18 -31 -31 -31q-3 0 -4 1t0 2.5t0 2.5t-4 1q-7 0 -10.5 -7.5t-10.5 -7.5q-5 0 -6 4t-6 4q-14 0 -43 -53v-18 q-20 -52 -47 -107q-8 -17 -19.5 -54t-15.5 -46q-5 -13 -20 -38t-19 -38q-10 -32 -22 -91t-17 -77q-13 -40 -31 -172q-6 -48 -6 -61zM723 1559q0 17 13.5 37t4.5 38l7 13q0 -3 -1 -6.5t-0.5 -5.5t3.5 -5q4 3 6 12t6 13q44 39 98 77t109.5 71.5t66.5 41.5l23 -6l-8 12h6 q6 0 8 2l2 -8q6 0 49 22t64 27q14 -18 14 -39q0 -19 -18 -40q12 -17 -7 -39q-47 -44 -151 -119q-16 -12 -37 -32t-41 -36q-10 -6 -45 -41q-53 -53 -72 -53q-29 0 -90 27q0 5 -5 18.5t-5 18.5z" />
<glyph unicode="&#xd4;" horiz-adv-x="995" d="M4 481q0 59 10 152q14 73 35 129q3 5 4.5 22t5.5 25q7 22 26 72t26 75q13 8 26 48q14 53 81 168t158 220t150 105q7 0 33 -10t33 -10q3 0 20.5 7t26.5 7q17 0 55 -10q7 -4 18 -5.5t24 -1.5t18 -1q12 -3 27 -9.5t22 -10t27 -15.5t22 -13q24 -16 57.5 -49t38.5 -37 q0 -1 -1 -7t-0.5 -10t3.5 -7q41 -70 62 -94q3 -13 13 -53t15 -62q19 -57 4 -139q9 -9 9 -25q-1 -7 -5.5 -18.5t-8 -20t-1.5 -20.5t13 -23q10 10 12 10q-2 -4 -7 -21.5t-11.5 -28.5t-16.5 -15q11 -11 8 -21q-68 -189 -183.5 -376t-234.5 -306q-12 -13 -53 -34q-2 -2 -6 -8.5 t-9 -12t-11 -8.5q-63 -43 -85.5 -51t-78.5 -8h-78q-14 0 -41 24q-2 1 -20.5 7t-26.5 14q-57 47 -100 100q-17 25 -54 88q-3 10 -11 32.5t-13 37t-10 35t-7 36.5q-10 51 -10 127zM180 375q0 -55 21.5 -150.5t50.5 -113.5q32 -2 74.5 20.5t76 49t83 78.5t69.5 75.5t63 73.5 q7 8 11.5 25t9.5 20q3 4 17 18t20 23q3 4 5.5 19t6.5 19q1 4 3 7t7.5 6t8 4.5t10.5 4t10 3.5q0 2 -1.5 8.5t-0.5 9.5q6 12 27.5 51.5t30 56.5t26.5 52.5t28.5 59t23.5 55t22 59.5q21 115 35 138q-3 0 -15 12q0 59 -16 153q0 7 -13 40.5t-39 69.5t-51 36q-13 0 -24 -2.5 t-19 -5t-21 -11t-19.5 -13.5t-25.5 -19.5t-30 -22.5q-18 -10 -35 -16q-14 -11 -40.5 -44.5t-45.5 -45.5q-4 -3 -7 -12t-7 -13l-6.5 6.5t-5 3.5t-6.5 -2q-18 -31 -31 -31q-3 0 -4 1t0 2.5t0 2.5t-4 1q-7 0 -10.5 -7.5t-10.5 -7.5q-5 0 -6 4t-6 4q-14 0 -43 -53v-18 q-20 -52 -47 -107q-8 -17 -19.5 -54t-15.5 -46q-5 -13 -20 -38t-19 -38q-10 -32 -22 -91t-17 -77q-13 -40 -31 -172q-6 -48 -6 -61zM463 1550q3 6 9.5 26.5t12.5 29.5q19 25 58 55q59 66 80 102q54 58 108 99q33 -26 51 -58l9 8q96 -209 96 -223q0 -2 -5.5 -6t-7 -10.5 t6.5 -26.5q-60 -20 -72 -20q-5 0 -35 30q-4 6 -11.5 19t-13 21.5t-14.5 19.5t-18 20q-64 -57 -152 -108q-2 2 -4.5 3t-4 2t-2.5 3.5t-1 7.5q-6 -3 -23 -13t-26 -13q18 11 22 36l-2 2q-2 1 -5 -3.5t-11 -4.5q-6 0 -6.5 1.5t1 4t-2.5 5.5l-13 -15q-6 0 -10 2q-6 0 -14 4z" />
<glyph unicode="&#xd5;" horiz-adv-x="1011" d="M4 481q0 59 10 152q14 73 35 129q3 5 4.5 22t5.5 25q7 22 26 72t26 75q13 8 26 48q14 53 81 168t158 220t150 105q7 0 33 -10t33 -10q3 0 20.5 7t26.5 7q17 0 55 -10q7 -4 18 -5.5t24 -1.5t18 -1q12 -3 27 -9.5t22 -10t27 -15.5t22 -13q24 -16 57.5 -49t38.5 -37 q0 -1 -1 -7t-0.5 -10t3.5 -7q41 -70 62 -94q3 -13 13 -53t15 -62q19 -57 4 -139q9 -9 9 -25q-1 -7 -5.5 -18.5t-8 -20t-1.5 -20.5t13 -23q10 10 12 10q-2 -4 -7 -21.5t-11.5 -28.5t-16.5 -15q11 -11 8 -21q-68 -189 -183.5 -376t-234.5 -306q-12 -13 -53 -34q-2 -2 -6 -8.5 t-9 -12t-11 -8.5q-63 -43 -85.5 -51t-78.5 -8h-78q-14 0 -41 24q-2 1 -20.5 7t-26.5 14q-57 47 -100 100q-17 25 -54 88q-3 10 -11 32.5t-13 37t-10 35t-7 36.5q-10 51 -10 127zM180 375q0 -55 21.5 -150.5t50.5 -113.5q32 -2 74.5 20.5t76 49t83 78.5t69.5 75.5t63 73.5 q7 8 11.5 25t9.5 20q3 4 17 18t20 23q3 4 5.5 19t6.5 19q1 4 3 7t7.5 6t8 4.5t10.5 4t10 3.5q0 2 -1.5 8.5t-0.5 9.5q6 12 27.5 51.5t30 56.5t26.5 52.5t28.5 59t23.5 55t22 59.5q21 115 35 138q-3 0 -15 12q0 59 -16 153q0 7 -13 40.5t-39 69.5t-51 36q-13 0 -24 -2.5 t-19 -5t-21 -11t-19.5 -13.5t-25.5 -19.5t-30 -22.5q-18 -10 -35 -16q-14 -11 -40.5 -44.5t-45.5 -45.5q-4 -3 -7 -12t-7 -13l-6.5 6.5t-5 3.5t-6.5 -2q-18 -31 -31 -31q-3 0 -4 1t0 2.5t0 2.5t-4 1q-7 0 -10.5 -7.5t-10.5 -7.5q-5 0 -6 4t-6 4q-14 0 -43 -53v-18 q-20 -52 -47 -107q-8 -17 -19.5 -54t-15.5 -46q-5 -13 -20 -38t-19 -38q-10 -32 -22 -91t-17 -77q-13 -40 -31 -172q-6 -48 -6 -61zM457 1688q10 9 34.5 31.5t39 34.5t36 27t42.5 22t42 7q8 0 32 -11.5t32 -14.5q-7 6 -13 0q3 -2 4 -4.5t3 -3t8 -0.5q8 0 8 2q3 4 6 4 q4 0 13.5 -15t23.5 -33.5t27 -25.5q60 -45 133 -45q22 0 125 25q3 -16 0 -19q0 -4 2 -4q0 -1 1 -2t1 -2q12 -10 12 -23q0 -5 10 -28q-11 -9 -29 -31.5t-20 -24.5q0 -10 17 -10q-85 -37 -117 -37q-67 0 -142.5 47.5t-134.5 122.5q-4 4 -10.5 5t-18 0t-14.5 -1q-16 0 -49 -20 q-34 -21 -41 -31q-1 1 -3.5 9t-12.5 8q-5 0 -20 -8.5t-19 -8.5q0 11 8 19q-16 27 -16 39z" />
<glyph unicode="&#xd9;" horiz-adv-x="1210" d="M4 260q0 13 5 69.5t11 90.5q1 9 8 32.5t9 32.5v15l110 364l154 365q11 4 18 16.5t13 31t12 28.5q23 17 25 34q3 8 4 26.5t4 27.5q0 -2 2 -2q2 -2 10 -2q6 0 8 -1.5t3.5 -3.5t5.5 -2q5 0 12.5 7.5t11.5 7.5q7 0 8 -4t8 -4q4 0 7.5 2t11.5 2q27 0 39 -20.5t12 -39.5 q0 -42 -42 -170q-21 -60 -25 -55q-1 -4 1 -9t1 -9q-31 -89 -103 -261q-4 -9 -6.5 -34t-5.5 -33l-66 -176l-6 -49q-3 -7 -26 -63t-31 -85q-6 -43 -12.5 -115.5t-6.5 -85.5v-8.5v-8.5t0.5 -7t1.5 -7t3 -5.5t5 -5t7 -2.5t10 -1q23 0 59.5 22.5t61.5 49.5q2 2 12 2 q21 25 75 83.5t93.5 107.5t69.5 100q29 44 112 149q1 0 1.5 4.5t2.5 10t5 8.5q61 77 92 135q9 15 31.5 59t42 76t34.5 39q-3 14 8 34t28.5 43.5t21.5 31.5q2 4 28.5 68.5t38.5 99.5q21 47 37 73q4 -3 13.5 2t15.5 5q5 0 4 -5.5t4 -5.5t7.5 1t2 2.5t-0.5 2.5l-1 2 q3 -5 24.5 -1t24.5 4q4 0 19 -15.5t35 -38t28 -30.5q2 -8 2 -37q0 -45 -33.5 -173.5t-37.5 -160.5q-1 -7 -15 -45.5t-10 -54.5q-23 -98 -37 -189q-4 -32 -13.5 -85.5t-16.5 -92t-7 -43.5v-123q0 -7 -5 -8t-5 -8q0 -58 35 -113q8 -10 19.5 -18.5t27 -17t22.5 -13.5 q2 -11 27 -43q-3 -3 -4.5 -10t-2.5 -12.5t-3.5 -10t-7.5 -4.5h-21q-3 -3 6 -12q-4 0 -12.5 -6.5t-13.5 -6.5q-7 0 -10.5 4.5t-10.5 4.5t-43 20q-33 19 -59 37q-7 4 -15.5 13t-17.5 19t-12 13q-2 1 -6.5 4.5t-6.5 4t-6 -2.5v6q0 2 4 6q-7 8 -13 18.5t-11.5 26t-8.5 26 t-8.5 31.5t-7.5 30q0 12 2 14q-1 6 -6.5 21.5t-5.5 23.5v315q-1 4 -0.5 5.5t0 3t-3.5 4.5q-36 -48 -92.5 -131t-102 -147t-101.5 -134t-118 -122.5t-125 -82.5q-6 -3 -14 0q-22 -16 -135 -16q-17 0 -48 29.5t-40 29.5q-3 0 -4 -1t0 -2t0 -2t-4 -1q-9 0 -35 29q-24 30 -33 51 q-11 19 -16 33q-1 3 -2 10t-2.5 15.5t-4.5 15.5q-6 8 -10 28q0 2 -1 14.5t-1 20.5zM588 1724q0 4 7.5 21.5t2.5 26.5q12 0 16 4q-3 4 -7 7.5t-9.5 6.5t-9.5 6v25q17 3 22.5 3t10.5 -2.5t8 -2.5q13 0 33 16q17 -23 36 -23q5 0 16.5 5.5t16.5 5.5q4 -3 4.5 -5.5t-1 -6.5 t-1.5 -7q32 -25 47 -45q101 -106 131 -160q3 -4 3.5 -9t-0.5 -14t-1 -13q0 -3 12 -11.5t13 -13.5q8 -13 8 -35q0 -8 -10 -27t-10 -28q-36 0 -45 -4q-17 -3 -7 -10q-14 2 -35 11t-34 21q-25 25 -96.5 101.5t-110.5 115.5q-10 30 -10 41z" />
<glyph unicode="&#xda;" horiz-adv-x="1210" d="M4 260q0 13 5 69.5t11 90.5q1 9 8 32.5t9 32.5v15l110 364l154 365q11 4 18 16.5t13 31t12 28.5q23 17 25 34q3 8 4 26.5t4 27.5q0 -2 2 -2q2 -2 10 -2q6 0 8 -1.5t3.5 -3.5t5.5 -2q5 0 12.5 7.5t11.5 7.5q7 0 8 -4t8 -4q4 0 7.5 2t11.5 2q27 0 39 -20.5t12 -39.5 q0 -42 -42 -170q-21 -60 -25 -55q-1 -4 1 -9t1 -9q-31 -89 -103 -261q-4 -9 -6.5 -34t-5.5 -33l-66 -176l-6 -49q-3 -7 -26 -63t-31 -85q-6 -43 -12.5 -115.5t-6.5 -85.5v-8.5v-8.5t0.5 -7t1.5 -7t3 -5.5t5 -5t7 -2.5t10 -1q23 0 59.5 22.5t61.5 49.5q2 2 12 2 q21 25 75 83.5t93.5 107.5t69.5 100q29 44 112 149q1 0 1.5 4.5t2.5 10t5 8.5q61 77 92 135q9 15 31.5 59t42 76t34.5 39q-3 14 8 34t28.5 43.5t21.5 31.5q2 4 28.5 68.5t38.5 99.5q21 47 37 73q4 -3 13.5 2t15.5 5q5 0 4 -5.5t4 -5.5t7.5 1t2 2.5t-0.5 2.5l-1 2 q3 -5 24.5 -1t24.5 4q4 0 19 -15.5t35 -38t28 -30.5q2 -8 2 -37q0 -45 -33.5 -173.5t-37.5 -160.5q-1 -7 -15 -45.5t-10 -54.5q-23 -98 -37 -189q-4 -32 -13.5 -85.5t-16.5 -92t-7 -43.5v-123q0 -7 -5 -8t-5 -8q0 -58 35 -113q8 -10 19.5 -18.5t27 -17t22.5 -13.5 q2 -11 27 -43q-3 -3 -4.5 -10t-2.5 -12.5t-3.5 -10t-7.5 -4.5h-21q-3 -3 6 -12q-4 0 -12.5 -6.5t-13.5 -6.5q-7 0 -10.5 4.5t-10.5 4.5t-43 20q-33 19 -59 37q-7 4 -15.5 13t-17.5 19t-12 13q-2 1 -6.5 4.5t-6.5 4t-6 -2.5v6q0 2 4 6q-7 8 -13 18.5t-11.5 26t-8.5 26 t-8.5 31.5t-7.5 30q0 12 2 14q-1 6 -6.5 21.5t-5.5 23.5v315q-1 4 -0.5 5.5t0 3t-3.5 4.5q-36 -48 -92.5 -131t-102 -147t-101.5 -134t-118 -122.5t-125 -82.5q-6 -3 -14 0q-22 -16 -135 -16q-17 0 -48 29.5t-40 29.5q-3 0 -4 -1t0 -2t0 -2t-4 -1q-9 0 -35 29q-24 30 -33 51 q-11 19 -16 33q-1 3 -2 10t-2.5 15.5t-4.5 15.5q-6 8 -10 28q0 2 -1 14.5t-1 20.5zM764 1556q0 17 13.5 37.5t4.5 38.5l6 13q0 -14 3 -17q4 3 6 12t6 13q44 39 98 77t109.5 71.5t66.5 41.5l23 -6l-8 12h6q6 0 8 2l2 -8q6 0 49 22t64 27q14 -17 14 -39q0 -20 -18 -41 q11 -17 -7 -38q-47 -44 -151 -119q-16 -12 -37 -32t-41 -36q-10 -6 -45 -41q-53 -53 -72 -53q-29 0 -90 27q0 5 -5 18t-5 18z" />
<glyph unicode="&#xdb;" horiz-adv-x="1210" d="M4 260q0 13 5 69.5t11 90.5q1 9 8 32.5t9 32.5v15l110 364l154 365q11 4 18 16.5t13 31t12 28.5q23 17 25 34q3 8 4 26.5t4 27.5q0 -2 2 -2q2 -2 10 -2q6 0 8 -1.5t3.5 -3.5t5.5 -2q5 0 12.5 7.5t11.5 7.5q7 0 8 -4t8 -4q4 0 7.5 2t11.5 2q27 0 39 -20.5t12 -39.5 q0 -42 -42 -170q-21 -60 -25 -55q-1 -4 1 -9t1 -9q-31 -89 -103 -261q-4 -9 -6.5 -34t-5.5 -33l-66 -176l-6 -49q-3 -7 -26 -63t-31 -85q-6 -43 -12.5 -115.5t-6.5 -85.5v-8.5v-8.5t0.5 -7t1.5 -7t3 -5.5t5 -5t7 -2.5t10 -1q23 0 59.5 22.5t61.5 49.5q2 2 12 2 q21 25 75 83.5t93.5 107.5t69.5 100q29 44 112 149q1 0 1.5 4.5t2.5 10t5 8.5q61 77 92 135q9 15 31.5 59t42 76t34.5 39q-3 14 8 34t28.5 43.5t21.5 31.5q2 4 28.5 68.5t38.5 99.5q21 47 37 73q4 -3 13.5 2t15.5 5q5 0 4 -5.5t4 -5.5t7.5 1t2 2.5t-0.5 2.5l-1 2 q3 -5 24.5 -1t24.5 4q4 0 19 -15.5t35 -38t28 -30.5q2 -8 2 -37q0 -45 -33.5 -173.5t-37.5 -160.5q-1 -7 -15 -45.5t-10 -54.5q-23 -98 -37 -189q-4 -32 -13.5 -85.5t-16.5 -92t-7 -43.5v-123q0 -7 -5 -8t-5 -8q0 -58 35 -113q8 -10 19.5 -18.5t27 -17t22.5 -13.5 q2 -11 27 -43q-3 -3 -4.5 -10t-2.5 -12.5t-3.5 -10t-7.5 -4.5h-21q-3 -3 6 -12q-4 0 -12.5 -6.5t-13.5 -6.5q-7 0 -10.5 4.5t-10.5 4.5t-43 20q-33 19 -59 37q-7 4 -15.5 13t-17.5 19t-12 13q-2 1 -6.5 4.5t-6.5 4t-6 -2.5v6q0 2 4 6q-7 8 -13 18.5t-11.5 26t-8.5 26 t-8.5 31.5t-7.5 30q0 12 2 14q-1 6 -6.5 21.5t-5.5 23.5v315q-1 4 -0.5 5.5t0 3t-3.5 4.5q-36 -48 -92.5 -131t-102 -147t-101.5 -134t-118 -122.5t-125 -82.5q-6 -3 -14 0q-22 -16 -135 -16q-17 0 -48 29.5t-40 29.5q-3 0 -4 -1t0 -2t0 -2t-4 -1q-9 0 -35 29q-24 30 -33 51 q-11 19 -16 33q-1 3 -2 10t-2.5 15.5t-4.5 15.5q-6 8 -10 28q0 2 -1 14.5t-1 20.5zM612 1550q2 5 9.5 26t13.5 30q21 27 57 55q59 66 80 102q52 55 109 99q33 -26 51 -58l8 8q96 -209 96 -223q0 -2 -5.5 -6t-7 -10.5t6.5 -26.5q-60 -20 -72 -20q-4 0 -9.5 5t-14.5 15l-10 10 q-41 65 -58 80q-26 -23 -72 -56t-79 -52q-2 2 -4.5 3t-4 2t-3 3.5t-1.5 7.5q-6 -3 -23 -13t-26 -13q20 12 23 36l-2 2q-2 1 -5.5 -3.5t-11.5 -4.5q-6 0 -6.5 1.5t1 4t-2.5 5.5l-12 -15q-6 0 -10 2q-7 0 -15 4z" />
<glyph unicode="&#xdc;" horiz-adv-x="1210" d="M4 260q0 13 5 69.5t11 90.5q1 9 8 32.5t9 32.5v15l110 364l154 365q11 4 18 16.5t13 31t12 28.5q23 17 25 34q3 8 4 26.5t4 27.5q0 -2 2 -2q2 -2 10 -2q6 0 8 -1.5t3.5 -3.5t5.5 -2q5 0 12.5 7.5t11.5 7.5q7 0 8 -4t8 -4q4 0 7.5 2t11.5 2q27 0 39 -20.5t12 -39.5 q0 -42 -42 -170q-21 -60 -25 -55q-1 -4 1 -9t1 -9q-31 -89 -103 -261q-4 -9 -6.5 -34t-5.5 -33l-66 -176l-6 -49q-3 -7 -26 -63t-31 -85q-6 -43 -12.5 -115.5t-6.5 -85.5v-8.5v-8.5t0.5 -7t1.5 -7t3 -5.5t5 -5t7 -2.5t10 -1q23 0 59.5 22.5t61.5 49.5q2 2 12 2 q21 25 75 83.5t93.5 107.5t69.5 100q29 44 112 149q1 0 1.5 4.5t2.5 10t5 8.5q61 77 92 135q9 15 31.5 59t42 76t34.5 39q-3 14 8 34t28.5 43.5t21.5 31.5q2 4 28.5 68.5t38.5 99.5q21 47 37 73q4 -3 13.5 2t15.5 5q5 0 4 -5.5t4 -5.5t7.5 1t2 2.5t-0.5 2.5l-1 2 q3 -5 24.5 -1t24.5 4q4 0 19 -15.5t35 -38t28 -30.5q2 -8 2 -37q0 -45 -33.5 -173.5t-37.5 -160.5q-1 -7 -15 -45.5t-10 -54.5q-23 -98 -37 -189q-4 -32 -13.5 -85.5t-16.5 -92t-7 -43.5v-123q0 -7 -5 -8t-5 -8q0 -58 35 -113q8 -10 19.5 -18.5t27 -17t22.5 -13.5 q2 -11 27 -43q-3 -3 -4.5 -10t-2.5 -12.5t-3.5 -10t-7.5 -4.5h-21q-3 -3 6 -12q-4 0 -12.5 -6.5t-13.5 -6.5q-7 0 -10.5 4.5t-10.5 4.5t-43 20q-33 19 -59 37q-7 4 -15.5 13t-17.5 19t-12 13q-2 1 -6.5 4.5t-6.5 4t-6 -2.5v6q0 2 4 6q-7 8 -13 18.5t-11.5 26t-8.5 26 t-8.5 31.5t-7.5 30q0 12 2 14q-1 6 -6.5 21.5t-5.5 23.5v315q-1 4 -0.5 5.5t0 3t-3.5 4.5q-36 -48 -92.5 -131t-102 -147t-101.5 -134t-118 -122.5t-125 -82.5q-6 -3 -14 0q-22 -16 -135 -16q-17 0 -48 29.5t-40 29.5q-3 0 -4 -1t0 -2t0 -2t-4 -1q-9 0 -35 29q-24 30 -33 51 q-11 19 -16 33q-1 3 -2 10t-2.5 15.5t-4.5 15.5q-6 8 -10 28q0 2 -1 14.5t-1 20.5zM555 1628q0 10 12 27t28 36t21 27q26 -16 80 -16q0 -5 12 -13t23 -8l2 -5q2 -4 3 -9t0 -11t-7 -9q1 -4 6 -8.5t15 -10t14 -8.5q-13 -19 -24 -61.5t-19 -57.5q-8 0 -31 -2t-31 -2 q-5 0 -30 11t-33 12q2 15 -21 67zM1004 1645q5 4 26 13.5t33 16.5q1 5 -0.5 12.5t-1.5 10.5q22 4 31 20q6 -9 -5 -20q25 -42 70 -51q0 -7 10 -15t27 -12v-102q-2 -3 -9.5 -16.5t-14 -21t-13.5 -7.5h-24q-8 0 -36 11.5t-50 24.5q8 24 -9 70q-1 8 -6.5 19.5t-15.5 27t-12 19.5 zM1151 1659l8 16l6 -2l-6 -16z" />
<glyph unicode="&#xe0;" d="M4 127q0 84 83.5 246t152.5 252q12 15 37.5 39.5t44.5 37.5q8 4 18 12.5t22.5 21.5t18.5 18q3 3 2 9t2 9q9 4 23.5 6t19.5 6q15 9 25 29h16q21 -18 35 -18q5 0 16.5 -2t16.5 -2q8 9 12 17.5t4.5 13t4.5 7t13 2.5q7 0 9.5 -8t9.5 -8q8 0 8 2l4 4q19 0 48.5 -13.5 t41.5 -27.5q6 -10 9.5 -24.5t-1.5 -22.5q0 -3 4 -1q2 -4 3 -7q0 -6 -11.5 -45.5t-26.5 -94t-22 -87.5q-10 -49 -21.5 -128t-17.5 -134.5t-6 -63.5q0 -4 3 -28.5t3 -34.5q5 -6 34 -2l28 4q20 0 127.5 47t142.5 65q-3 -8 -18.5 -20t-18.5 -19q-15 -16 -8 -28q-26 -30 -78 -68 q0 -2 6.5 -8t10.5 -6q-24 -3 -74.5 -36.5t-57.5 -33.5h-86q-29 0 -60 26.5t-51.5 60.5t-34 62t-13.5 35q0 66 -6 105q-12 -21 -35 -55.5t-35 -53.5q-130 -186 -188 -186q-5 0 -21.5 -4t-21.5 -4q-24 0 -44.5 8t-31 16.5t-28 26.5t-26.5 25q-1 8 -8.5 32t-7.5 29zM254 301 l12 -14q30 36 59.5 83.5t66 113.5t54.5 96l-12 -13q-4 4 -4 8t2 8.5t2 6.5q-84 -102 -180 -289zM285 1167q0 4 7.5 21t2.5 26q11 0 16 5q-3 4 -7 7.5t-9.5 6.5t-9.5 6v25q17 3 22.5 3t10.5 -2.5t8 -2.5q12 0 32 16q17 -23 37 -23q5 0 16.5 5.5t16.5 5.5q4 -3 4.5 -5.5 t-1 -6.5t-1.5 -7q32 -25 47 -45q101 -106 131 -160q3 -4 3.5 -9t-0.5 -14t-1 -13q0 -3 12 -11.5t13 -13.5q8 -13 8 -35q0 -8 -10 -27t-10 -28q-36 0 -45 -4q-17 -3 -7 -10q-14 2 -35 11t-34 21q-25 25 -96.5 101.5t-110.5 115.5q-10 30 -10 41z" />
<glyph unicode="&#xe1;" horiz-adv-x="794" d="M4 127q0 84 83.5 246t152.5 252q12 15 37.5 39.5t44.5 37.5q8 4 18 12.5t22.5 21.5t18.5 18q3 3 2 9t2 9q9 4 23.5 6t19.5 6q15 9 25 29h16q21 -18 35 -18q5 0 16.5 -2t16.5 -2q8 9 12 17.5t4.5 13t4.5 7t13 2.5q7 0 9.5 -8t9.5 -8q8 0 8 2l4 4q19 0 48.5 -13.5 t41.5 -27.5q6 -10 9.5 -24.5t-1.5 -22.5q0 -3 4 -1q2 -4 3 -7q0 -6 -11.5 -45.5t-26.5 -94t-22 -87.5q-10 -49 -21.5 -128t-17.5 -134.5t-6 -63.5q0 -4 3 -28.5t3 -34.5q5 -6 34 -2l28 4q20 0 127.5 47t142.5 65q-3 -8 -18.5 -20t-18.5 -19q-15 -16 -8 -28q-26 -30 -78 -68 q0 -2 6.5 -8t10.5 -6q-24 -3 -74.5 -36.5t-57.5 -33.5h-86q-29 0 -60 26.5t-51.5 60.5t-34 62t-13.5 35q0 66 -6 105q-12 -21 -35 -55.5t-35 -53.5q-130 -186 -188 -186q-5 0 -21.5 -4t-21.5 -4q-24 0 -44.5 8t-31 16.5t-28 26.5t-26.5 25q-1 8 -8.5 32t-7.5 29zM254 301 l12 -14q30 36 59.5 83.5t66 113.5t54.5 96l-12 -13q-4 4 -4 8t2 8.5t2 6.5q-84 -102 -180 -289zM410 965q0 17 13.5 37t4.5 38l6 13q0 -3 -1 -6.5t-0.5 -5.5t3.5 -5q4 3 6.5 12t6.5 13q44 39 98 77t109.5 71.5t66.5 41.5l22 -6l-8 12h6q6 0 9 3q-8 -8 -6.5 -8.5t8.5 -0.5 q6 0 48.5 22t63.5 27q15 -19 15 -38t-19 -41q12 -18 -6 -39q-47 -44 -151 -119q-16 -12 -37 -32t-41 -36q-10 -6 -45 -41q-53 -53 -72 -53q-29 0 -90 27q0 5 -5 18.5t-5 18.5z" />
<glyph unicode="&#xe2;" d="M4 127q0 84 83.5 246t152.5 252q12 15 37.5 39.5t44.5 37.5q8 4 18 12.5t22.5 21.5t18.5 18q3 3 2 9t2 9q9 4 23.5 6t19.5 6q15 9 25 29h16q21 -18 35 -18q5 0 16.5 -2t16.5 -2q8 9 12 17.5t4.5 13t4.5 7t13 2.5q7 0 9.5 -8t9.5 -8q8 0 8 2l4 4q19 0 48.5 -13.5 t41.5 -27.5q6 -10 9.5 -24.5t-1.5 -22.5q0 -3 4 -1q2 -4 3 -7q0 -6 -11.5 -45.5t-26.5 -94t-22 -87.5q-10 -49 -21.5 -128t-17.5 -134.5t-6 -63.5q0 -4 3 -28.5t3 -34.5q5 -6 34 -2l28 4q20 0 127.5 47t142.5 65q-3 -8 -18.5 -20t-18.5 -19q-15 -16 -8 -28q-26 -30 -78 -68 q0 -2 6.5 -8t10.5 -6q-24 -3 -74.5 -36.5t-57.5 -33.5h-86q-29 0 -60 26.5t-51.5 60.5t-34 62t-13.5 35q0 66 -6 105q-12 -21 -35 -55.5t-35 -53.5q-130 -186 -188 -186q-5 0 -21.5 -4t-21.5 -4q-24 0 -44.5 8t-31 16.5t-28 26.5t-26.5 25q-1 8 -8.5 32t-7.5 29zM254 301 l12 -14q30 36 59.5 83.5t66 113.5t54.5 96l-12 -13q-4 4 -4 8t2 8.5t2 6.5q-84 -102 -180 -289zM348 932q2 4 9.5 25t13.5 30q21 27 57 55q57 64 80 103q51 54 108 98q36 -28 52 -57l8 8q96 -209 96 -223q0 -2 -5.5 -6t-7 -10.5t6.5 -26.5q-63 -21 -72 -21q-4 0 -10 5 t-16 16l-9 10q-4 6 -11.5 19t-13 21.5t-14.5 19.5t-18 20q-70 -62 -151 -109q-2 2 -6 3.5t-5.5 4.5t-1.5 9q-6 -3 -23 -13.5t-26 -13.5q19 12 23 37l-2 2q-2 1 -5.5 -3.5t-11.5 -4.5q-6 0 -6.5 1.5t1 3.5t-2.5 5l-12 -14q-7 0 -11 2q-6 0 -14 4z" />
<glyph unicode="&#xe3;" d="M4 127q0 84 83.5 246t152.5 252q12 15 37.5 39.5t44.5 37.5q8 4 18 12.5t22.5 21.5t18.5 18q3 3 2 9t2 9q9 4 23.5 6t19.5 6q15 9 25 29h16q21 -18 35 -18q5 0 16.5 -2t16.5 -2q8 9 12 17.5t4.5 13t4.5 7t13 2.5q7 0 9.5 -8t9.5 -8q8 0 8 2l4 4q19 0 48.5 -13.5 t41.5 -27.5q6 -10 9.5 -24.5t-1.5 -22.5q0 -3 4 -1q2 -4 3 -7q0 -6 -11.5 -45.5t-26.5 -94t-22 -87.5q-10 -49 -21.5 -128t-17.5 -134.5t-6 -63.5q0 -4 3 -28.5t3 -34.5q5 -6 34 -2l28 4q20 0 127.5 47t142.5 65q-3 -8 -18.5 -20t-18.5 -19q-15 -16 -8 -28q-26 -30 -78 -68 q0 -2 6.5 -8t10.5 -6q-24 -3 -74.5 -36.5t-57.5 -33.5h-86q-29 0 -60 26.5t-51.5 60.5t-34 62t-13.5 35q0 66 -6 105q-12 -21 -35 -55.5t-35 -53.5q-130 -186 -188 -186q-5 0 -21.5 -4t-21.5 -4q-24 0 -44.5 8t-31 16.5t-28 26.5t-26.5 25q-1 8 -8.5 32t-7.5 29zM254 301 l12 -14q30 36 59.5 83.5t66 113.5t54.5 96l-12 -13q-4 4 -4 8t2 8.5t2 6.5q-84 -102 -180 -289zM305 1051q6 5 42.5 38.5t51.5 44.5t45 25.5t56 14.5q8 0 31 -12t32 -15q-6 6 -12 0q3 -2 4 -5t10 -3q4 0 6 0.5t2 1.5v2t1.5 1.5t5.5 0.5t13 -15t23 -33.5t27 -25.5 q60 -45 133 -45q22 0 125 25q3 -16 0 -19q0 -4 2 -4q0 -1 1 -2t1 -2q13 -10 13 -23q0 -5 10 -28q-1 0 -49 -55q0 -11 16 -11q-85 -37 -117 -37q-67 0 -142 47.5t-134 122.5q-4 4 -10.5 5t-18 0t-14.5 -1q-16 0 -49 -20q-34 -21 -41 -31l-3 9q-4 8 -14 8q-5 0 -20 -8.5 t-19 -8.5q0 10 9 19q-17 28 -17 39z" />
<glyph unicode="&#xe6;" horiz-adv-x="1024" d="M18 82q0 73 39.5 179.5t85.5 170.5q1 0 0.5 1.5t-1 2.5t-1 4.5t-0.5 8.5q0 4 4 1l2 -2t3 -1.5t4 -0.5t15 20t27 47t19 42q45 70 109 145q51 63 57 88q14 9 74 35q3 3 4 9t4 10q4 1 21 10.5t26 9.5q35 6 98 6q8 0 22 -13t19 -13q8 0 13.5 1t7.5 1l-1 -2q-1 -3 -2 -5 t-1.5 -4.5t0.5 -4t4 -1.5q8 0 11.5 4.5t6.5 4.5q-4 -4 -4 -7.5t2.5 -5t5.5 -0.5q3 -5 14.5 -19.5t16.5 -23.5q2 -5 2 -10t-1.5 -11.5t-2.5 -10.5t-4 -12t-4 -11q16 4 44 11.5t46.5 12.5t21.5 5q72 0 111 -41l9 -18t11.5 -25t4.5 -15t-5.5 -19t-5.5 -24q0 -72 -62.5 -159 t-156.5 -166q-11 -7 -44 -36.5t-64 -51.5t-52 -25q-10 0 -10 -20q0 -31 10 -31q5 0 45.5 3t45.5 3q15 0 116 23q3 1 12 9.5t17 8.5q4 0 4 -2q1 -2 6 -2q7 0 58 30.5t59 30.5l4 -1v-1q2 -2 4 -2q7 0 42 24.5t63 47.5q52 30 63 59q0 -11 12 -2l-16 -20q0 -5 4 -9t10 -4 q-39 -24 -45 -26q11 -8 31 2q-33 -33 -39 -45q1 -3 3.5 -3.5t8 0.5t8.5 1q0 -10 7 -17q-37 -37 -95 -81q-2 -2 -9.5 -15t-16.5 -18q-53 -43 -162.5 -98.5t-173.5 -55.5q-15 0 -57.5 7t-69.5 18q-22 8 -46.5 37t-39.5 26q-11 23 -17.5 69t-19.5 68q-4 -5 -6.5 -16.5 t-5.5 -15.5q-33 -33 -84 -99q-1 -3 -9.5 -7.5t-11.5 -8.5q-4 -3 -9.5 -15.5t-8.5 -13.5q-27 -17 -63 -31t-48 -14q-9 0 -32.5 12t-26.5 15l-12 -8q-5 5 -13.5 17.5t-16 18.5t-17.5 5q-5 15 -5 55zM217 209q23 10 47.5 36t32.5 46q38 53 49 53q7 0 6 -1q2 -3 4 -3q11 0 52 70 t41 92q0 4 -2 6t-3 6q-18 0 -22 4v29q-24 -24 -57 -78q-42 -52 -89 -146.5t-59 -113.5zM592 360l14 -4q10 5 20.5 15t17.5 14.5t15 1.5q0 11 3 14q4 2 47.5 44.5t89 96t45.5 74.5q0 19 -8 35h-25q-21 3 -70 -28q-29 -22 -64 -59t-42 -50q-12 -21 -19 -46.5t-13 -58 t-11 -49.5z" />
<glyph unicode="&#xe7;" horiz-adv-x="600" d="M6 248q0 52 14 123q15 78 46 133q3 1 4 5t1 11t1 10q32 72 65 113l27 27q8 8 20 28q0 5 -2 7q17 24 31 49q15 27 47 63q4 6 11.5 9.5t18.5 6t17 5.5q3 2 14.5 12t20.5 10t39.5 -6.5t46.5 -13.5q62 -38 80 -80q20 -46 20 -78q0 -23 -15 -84.5t-30 -69.5q-9 -6 -30 -6 q-44 0 -58 56q-2 7 -10 21.5t-9 20t1 21.5v2h-6q-100 -127 -170 -278q-14 -33 -35 -101t-21 -76v-28q34 -15 60 -15q3 0 90 37q23 9 75 29.5t99 40t90 41.5q97 54 139 74q-4 -4 -9 -14.5t-10.5 -18.5t-12.5 -8h-13q0 -3 -1.5 -6t-1.5 -4t5 -1q8 0 10 1t5 1q-7 -7 -12 -19.5 t-1 -18.5q-11 -10 -39 -32t-40 -34q0 -8 10 -8v-21q-25 -14 -83 -49.5t-93 -56.5q-3 -3 -11.5 -17t-13.5 -18l-31 -12q-2 -2 -6 -2v-4q0 -27 -6 -54l10 11q0 -14 -8 -19q0 -6 6 -10t13 -4t14 2t14 2l6 -6q6 -2 20 -4.5t26 -6.5t20 -10q20 -15 26 -47.5t9 -38.5q6 -9 6 -24 q0 -28 -74 -72.5t-92 -44.5q-4 0 -6 5t-10 5q-6 0 -11.5 -1.5t-8 -3t-3.5 -1.5v6q0 4 2 6q-35 35 -35 58q0 16 17.5 26t41.5 20.5t33 24.5q-7 15 -22 17t-44.5 5t-60.5 21q1 11 -2.5 21.5t-3.5 11.5q0 9 4 21l9 20q21 12 34 29q2 2 2 10v4l-20 -4q-27 -6 -43 -6 q-76 0 -138 66t-67 137q0 8 -1 26t-1 25zM174 694q0 3 8 11z" />
<glyph unicode="&#xe8;" horiz-adv-x="544" d="M5.5 272q3.5 35 4 42.5t8 33.5t7.5 27q15 72 69 182q45 92 68 129q41 52 53 76q9 8 30.5 33t45.5 39q2 1 12.5 5t16.5 7t14 8t11 10.5t1 12.5q-4 -4 -4 -5q0 -6 8 -6q6 1 6 3q2 3 6 3q6 0 28.5 -11t29.5 -13q2 -6 3 -13.5t1 -12.5t2.5 -9t7.5 -4q4 0 6 0.5t2 1.5v2 t1.5 1.5t5.5 0.5t7.5 -2t5.5 -4t5.5 -6t5.5 -6q0 -29 6.5 -43.5t14 -16.5t14 -10t6.5 -25q0 -10 -14 -69.5t-25 -95.5q-27 -56 -94 -138q-22 -27 -69 -78t-77 -85.5t-30 -42.5q0 -11 20 -27.5t41 -24.5q10 -6 60 -6q8 0 21 4.5t22 6t28 -4.5q21 6 73 22.5t75 22.5 q8 -8 20 -8q-12 -4 -27.5 -14.5t-23.5 -13.5q0 -14 23 -21q-3 -3 -23 -49q-24 6 -38.5 -17.5t-14.5 -52.5q-37 -12 -80 -12q-8 -7 8 -8q-11 -1 -38 -11.5t-38 -11.5v-6q0 -4 -8 -4t-31.5 9t-39.5 9t-19 -18l-22 31q-42 10 -64.5 25t-62.5 59q-8 8 -18 13q-8 4 -10.5 10.5 t-13.5 55.5q-9 38 -16 66q-6 20 -2.5 55zM227 1235q0 5 8 21.5t3 25.5q12 0 16 4q-3 4 -7 7.5t-10 7t-10 6.5v24q17 3 22.5 3t10.5 -2.5t8 -2.5q12 0 33 17q17 -23 37 -23q5 0 16.5 5t16.5 5q4 -3 4.5 -5.5t-1 -6t-1.5 -6.5q32 -25 47 -45q101 -106 131 -160q3 -4 3.5 -9.5 t-0.5 -14.5t-1 -13q0 -3 12 -11t13 -13q8 -13 8 -35q0 -8 -10.5 -27.5t-10.5 -28.5q-36 0 -45 -4q-16 -3 -6 -10q-14 2 -35.5 11.5t-34.5 21.5q-25 25 -96 101.5t-110 115.5q-11 33 -11 41z" />
<glyph unicode="&#xe9;" horiz-adv-x="544" d="M5.5 272q3.5 35 4 42.5t8 33.5t7.5 27q15 72 69 182q45 92 68 129q41 52 53 76q9 8 30.5 33t45.5 39q2 1 12.5 5t16.5 7t14 8t11 10.5t1 12.5q-4 -4 -4 -5q0 -6 8 -6q6 1 6 3q2 3 6 3q6 0 28.5 -11t29.5 -13q2 -6 3 -13.5t1 -12.5t2.5 -9t7.5 -4q4 0 6 0.5t2 1.5v2 t1.5 1.5t5.5 0.5t7.5 -2t5.5 -4t5.5 -6t5.5 -6q0 -29 6.5 -43.5t14 -16.5t14 -10t6.5 -25q0 -10 -14 -69.5t-25 -95.5q-27 -56 -94 -138q-22 -27 -69 -78t-77 -85.5t-30 -42.5q0 -11 20 -27.5t41 -24.5q10 -6 60 -6q8 0 21 4.5t22 6t28 -4.5q21 6 73 22.5t75 22.5 q8 -8 20 -8q-12 -4 -27.5 -14.5t-23.5 -13.5q0 -14 23 -21q-3 -3 -23 -49q-24 6 -38.5 -17.5t-14.5 -52.5q-37 -12 -80 -12q-8 -7 8 -8q-11 -1 -38 -11.5t-38 -11.5v-6q0 -4 -8 -4t-31.5 9t-39.5 9t-19 -18l-22 31q-42 10 -64.5 25t-62.5 59q-8 8 -18 13q-8 4 -10.5 10.5 t-13.5 55.5q-9 38 -16 66q-6 20 -2.5 55zM307 1012q0 17 14 37t5 38l6 13q0 -3 -1 -6.5t-0.5 -5.5t3.5 -5q4 3 6 12t6 13q44 39 98.5 77t109.5 71.5t67 41.5l22 -6l-8 13h6q6 0 8 2q-8 -8 -6.5 -8.5t8.5 -0.5q6 0 49 22.5t64 27.5q14 -18 14 -39q0 -20 -18 -41 q12 -18 -6 -39q-44 -41 -152 -119q-16 -12 -37 -32t-41 -36q-10 -6 -45 -41q-53 -53 -71 -53q-30 0 -91 27q0 5 -5 18.5t-5 18.5z" />
<glyph unicode="&#xea;" horiz-adv-x="544" d="M5.5 272q3.5 35 4 42.5t8 33.5t7.5 27q15 72 69 182q45 92 68 129q41 52 53 76q9 8 30.5 33t45.5 39q2 1 12.5 5t16.5 7t14 8t11 10.5t1 12.5q-4 -4 -4 -5q0 -6 8 -6q6 1 6 3q2 3 6 3q6 0 28.5 -11t29.5 -13q2 -6 3 -13.5t1 -12.5t2.5 -9t7.5 -4q4 0 6 0.5t2 1.5v2 t1.5 1.5t5.5 0.5t7.5 -2t5.5 -4t5.5 -6t5.5 -6q0 -29 6.5 -43.5t14 -16.5t14 -10t6.5 -25q0 -10 -14 -69.5t-25 -95.5q-27 -56 -94 -138q-22 -27 -69 -78t-77 -85.5t-30 -42.5q0 -11 20 -27.5t41 -24.5q10 -6 60 -6q8 0 21 4.5t22 6t28 -4.5q21 6 73 22.5t75 22.5 q8 -8 20 -8q-12 -4 -27.5 -14.5t-23.5 -13.5q0 -14 23 -21q-3 -3 -23 -49q-24 6 -38.5 -17.5t-14.5 -52.5q-37 -12 -80 -12q-8 -7 8 -8q-11 -1 -38 -11.5t-38 -11.5v-6q0 -4 -8 -4t-31.5 9t-39.5 9t-19 -18l-22 31q-42 10 -64.5 25t-62.5 59q-8 8 -18 13q-8 4 -10.5 10.5 t-13.5 55.5q-9 38 -16 66q-6 20 -2.5 55zM186 983q2 5 9.5 25.5t13.5 29.5q23 29 57 56q59 66 80 102q48 51 109 98q34 -26 51 -57l8 8q96 -209 96 -223q0 -2 -5.5 -6t-7 -10.5t6.5 -26.5q-63 -21 -72 -21q-4 0 -10 5.5t-14.5 15t-9.5 10.5q-41 65 -58 80q-26 -23 -72 -56 t-79 -52q-2 2 -4.5 3t-4 2t-3 3.5t-1.5 7.5q-6 -3 -23 -13.5t-26 -13.5q19 12 23 37l-2 2q-2 1 -5.5 -3.5t-11.5 -4.5q-6 0 -6.5 1.5t1 3.5t-2.5 5l-12 -14q-6 0 -10 2q-7 0 -15 4z" />
<glyph unicode="&#xeb;" horiz-adv-x="544" d="M5.5 272q3.5 35 4 42.5t8 33.5t7.5 27q15 72 69 182q45 92 68 129q41 52 53 76q9 8 30.5 33t45.5 39q2 1 12.5 5t16.5 7t14 8t11 10.5t1 12.5q-4 -4 -4 -5q0 -6 8 -6q6 1 6 3q2 3 6 3q6 0 28.5 -11t29.5 -13q2 -6 3 -13.5t1 -12.5t2.5 -9t7.5 -4q4 0 6 0.5t2 1.5v2 t1.5 1.5t5.5 0.5t7.5 -2t5.5 -4t5.5 -6t5.5 -6q0 -29 6.5 -43.5t14 -16.5t14 -10t6.5 -25q0 -10 -14 -69.5t-25 -95.5q-27 -56 -94 -138q-22 -27 -69 -78t-77 -85.5t-30 -42.5q0 -11 20 -27.5t41 -24.5q10 -6 60 -6q8 0 21 4.5t22 6t28 -4.5q21 6 73 22.5t75 22.5 q8 -8 20 -8q-12 -4 -27.5 -14.5t-23.5 -13.5q0 -14 23 -21q-3 -3 -23 -49q-24 6 -38.5 -17.5t-14.5 -52.5q-37 -12 -80 -12q-8 -7 8 -8q-11 -1 -38 -11.5t-38 -11.5v-6q0 -4 -8 -4t-31.5 9t-39.5 9t-19 -18l-22 31q-42 10 -64.5 25t-62.5 59q-8 8 -18 13q-8 4 -10.5 10.5 t-13.5 55.5q-9 38 -16 66q-6 20 -2.5 55zM205 1106q0 10 9 24.5t28 35.5l18 22q25 -14 72 -14q0 -5 11 -12t22 -7l1 -5q2 -4 3 -8.5t-0.5 -9.5t-6.5 -8q1 -4 6 -8t13.5 -8.5t11.5 -7.5q-9 -16 -19.5 -54t-19.5 -55q-7 0 -27.5 -2t-27.5 -2q-5 0 -27.5 10t-29.5 11 q2 15 -19 61zM469 1118q4 3 24.5 13t28.5 14q1 5 -0.5 11.5t-1.5 8.5q17 3 29 19q6 -9 -4 -19q20 -35 63 -45q0 -15 33 -24v-95q-2 -3 -8 -14t-12.5 -18.5t-12.5 -7.5h-22q-8 0 -33.5 10.5t-44.5 23.5q9 20 -8 64q-1 9 -15 31t-16 28zM602 1130l8 15l6 -2l-6 -15z" />
<glyph unicode="&#xed;" horiz-adv-x="438" d="M18 246q-2 20 3 63.5t12 71.5l22 86q27 131 68 215q0 15 2 29q4 3 11 16.5t14 20.5q9 0 25 4.5t22 5.5q37 3 82 -33q46 -34 49 -74q0 -5 -5 -18t-6 -21q-13 -56 -20 -110q-9 -71 -31 -107q-4 -10 -10 -38t-8 -35q-6 -19 -14 -43.5t-11.5 -36t-6.5 -26.5t-2 -27.5t5 -26.5 q134 60 260 186q-11 -9 -10.5 -34.5t-2.5 -53.5t-22 -45q2 -1 6.5 -1t8 -1.5t6.5 -5.5q-2 -12 -25 -29q-9 -12 -6 -35q-24 -13 -55 -41t-51 -53q0 -23 -13 -29q-18 -10 -44.5 -18t-37.5 -8q-48 -4 -90 22t-67.5 67t-40.5 84t-17 79zM154 920q0 17 13.5 37t4.5 38l6 13 q0 -3 -1 -6.5t-0.5 -5.5t3.5 -5q4 3 6.5 12t6.5 13q44 39 98 77t109.5 71.5t66.5 41.5l22 -6l-8 12h6q7 0 9 2l2 -8q6 0 48.5 22t63.5 27q15 -19 15 -38t-19 -41q12 -18 -6 -39q-47 -44 -151 -119q-16 -12 -37 -32t-41 -36q-10 -6 -45 -41q-53 -53 -72 -53q-29 0 -90 27 q0 5 -5 18.5t-5 18.5z" />
<glyph unicode="&#xee;" horiz-adv-x="432" d="M16 840q2 5 9.5 25.5t13.5 29.5q21 27 57 55q57 64 80 103q48 51 109 98q34 -26 51 -57l8 8q96 -209 96 -223q0 -2 -5.5 -6t-7 -10.5t6.5 -26.5q-63 -21 -72 -21q-4 0 -10 5.5t-14.5 15t-9.5 10.5q-41 65 -58 80q-70 -62 -151 -109q-2 2 -6 3.5t-5.5 4.5t-1.5 9 q-6 -3 -23 -13.5t-26 -13.5q19 12 23 37l-2 2q-2 1 -5.5 -3.5t-11.5 -4.5q-6 0 -6.5 1.5t1 3.5t-2.5 5l-12 -14q-6 0 -10 2q-7 0 -15 4zM18 246q-2 20 3 63.5t12 71.5l22 86q27 131 68 215q0 15 2 29q4 3 11 16.5t14 20.5q9 0 25 4.5t22 5.5q37 3 82 -33q46 -34 49 -74 q0 -5 -5 -18t-6 -21q-13 -56 -20 -110q-9 -71 -31 -107q-4 -10 -10 -38t-8 -35q-6 -19 -14 -43.5t-11.5 -36t-6.5 -26.5t-2 -27.5t5 -26.5q134 60 260 186q-11 -9 -10.5 -34.5t-2.5 -53.5t-22 -45q2 -1 6.5 -1t8 -1.5t6.5 -5.5q-2 -12 -25 -29q-9 -12 -6 -35 q-24 -13 -55 -41t-51 -53q0 -23 -13 -29q-18 -10 -44.5 -18t-37.5 -8q-48 -4 -90 22t-67.5 67t-40.5 84t-17 79z" />
<glyph unicode="&#xef;" horiz-adv-x="432" d="M18 246q-2 20 3 63.5t12 71.5l22 86q27 131 68 215q0 15 2 29q4 3 11 16.5t14 20.5q9 0 25 4.5t22 5.5q37 3 82 -33q46 -34 49 -74q0 -5 -5 -18t-6 -21q-13 -56 -20 -110q-9 -71 -31 -107q-4 -10 -10 -38t-8 -35q-6 -19 -14 -43.5t-11.5 -36t-6.5 -26.5t-2 -27.5t5 -26.5 q134 60 260 186q-11 -9 -10.5 -34.5t-2.5 -53.5t-22 -45q2 -1 6.5 -1t8 -1.5t6.5 -5.5q-2 -12 -25 -29q-9 -12 -6 -35q-24 -13 -55 -41t-51 -53q0 -23 -13 -29q-18 -10 -44.5 -18t-37.5 -8q-48 -4 -90 22t-67.5 67t-40.5 84t-17 79zM20 997q0 10 9.5 25t27.5 35t19 22 q25 -14 71 -14q0 -5 11 -11.5t22 -6.5l2 -5q1 -4 2 -8.5t0 -9.5t-6 -8q1 -4 6 -8.5t13.5 -9t11.5 -7.5q-9 -17 -19.5 -54t-19.5 -54q-7 0 -27.5 -2t-27.5 -2q-5 0 -28 9.5t-30 10.5q2 17 -18 62zM285 1010q4 3 24.5 12t28.5 14q1 5 -0.5 12t-1.5 9q18 4 29 18q5 -8 -5 -18 q20 -35 64 -45q0 -16 33 -25v-94q-2 -3 -8 -14.5t-12.5 -19t-12.5 -7.5h-23q-8 0 -33 11t-44 24q8 18 -9 63q-1 9 -14.5 32t-15.5 28zM418 1022l8 14l6 -2l-6 -14z" />
<glyph unicode="&#xf1;" horiz-adv-x="849" d="M2 154q0 2 8.5 48t9.5 70q14 25 27 64q4 15 7 48.5t7 49.5q81 236 152 422q0 3 -1 18.5t-1 24.5q46 41 57 45q5 -7 18 -22t19 -23q11 11 6 35q35 -25 51 -29q0 -3 -2 -10.5t-2 -14t4 -10.5h3q3 0 5.5 1.5t6.5 2.5l2 -22q1 -6 -2 -13.5t-8 -17t-7 -16.5q-2 -14 -8 -60 t-10 -69q0 -13 -12 -29q-16 -49 -13 -90q2 2 49.5 61.5t71.5 69.5q7 3 29.5 6t36.5 11q9 -7 24 -31q22 13 29 14q3 0 7.5 -2.5t11 -8t11.5 -10t12.5 -11t10.5 -9.5v-2q0 -2 -4 -6q0 -8 13 -8q9 -17 17.5 -33t11.5 -22.5t6.5 -12.5t4 -9.5l1 -7t1 -12.5t1.5 -18q2 -6 0 -55.5 t-5 -104t0 -102.5q-2 -23 -1.5 -34.5t3 -38t3.5 -40.5q11 -7 26 -4q20 0 76 34t65 38h-2q-8 0 -4 -4l-2 -4h8q7 1 34 21t42 28q-10 -18 -14 -43q-3 -3 0 -11t2 -8l-7 -6q-7 -7 -11 -12q8 -4 16 -4l-2 -2q-6 -6 -8 -4q-3 -3 -6 -16t-11 -19q3 -5 3.5 -16.5t4.5 -16.5 q-1 -1 -10 -8.5t-13 -13.5t-5 -13q-5 -10 -31 -26.5t-33 -24.5q-13 -6 -37 -45q-16 -1 -47.5 1.5t-33.5 2.5q-18 0 -69.5 28t-55.5 42q-58 110 -68 190q-7 28 -12 181q-3 1 -2 5t-2 5q-29 -34 -91 -114.5t-88 -111.5q-3 -3 0 -14q-34 -66 -65 -104q-14 -19 -40.5 -45 t-33.5 -27q-7 0 -18.5 9.5t-16.5 8.5q-7 -1 -7 -3q-2 -3 -5 -3q-23 -3 -37.5 21t-21 53t-8.5 31q-18 14 -21 37zM258 1116q6 5 42.5 38.5t51.5 44.5t45 25.5t56 14.5q8 0 31 -12t32 -15q-6 6 -12 0q3 -2 4 -5t10 -3q8 0 8 2q3 4 6 4q4 0 13.5 -14.5t23.5 -33t27 -25.5 q60 -45 133 -45q27 0 125 24q3 -15 0 -18q0 -4 2 -4q0 -1 1 -2t1 -2q12 -10 12 -23q0 -3 11 -29q-5 -5 -50 -55q0 -10 17 -10q-85 -37 -117 -37q-67 0 -142 47.5t-134 122.5q-4 4 -10.5 5t-18 0t-14.5 -1q-17 0 -50 -20t-40 -31q-2 2 -3 6.5t-4 7t-10 2.5q-5 0 -20 -8 t-19 -8q0 10 8 18q-16 27 -16 39zM551 672l2 -10l14 2l-2 10z" />
<glyph unicode="&#xf2;" horiz-adv-x="598" d="M4 190q0 58 37.5 155t60.5 134q3 3 5 16t6 17q5 9 23 34.5t24 39.5q4 3 16 6q4 1 6 10t6 14q5 10 25.5 25t26.5 23q4 5 6 19.5t6 21.5q-1 0 -7 2t-11 0.5t-9 -7.5q0 9 -4 13q-6 -3 -6 -17q0 15 -14 15l4 2q2 0 8 6q-4 35 27.5 60.5t75 43t49.5 23.5q4 -10 11 -12.5 t18 -2.5t20 -4q10 -8 63 -61l4 -8q3 -10 8 -15q1 0 9 -1t12 -5q106 -148 106 -256q0 -198 -268 -432q-4 -3 -9 -15.5t-7 -15.5q-70 -43 -127 -43q-18 0 -33.5 3.5t-31 13t-24 15.5t-25.5 20.5t-23 19.5q-4 3 -19 32.5t-29 29.5q-16 67 -16 81zM205 213q11 7 30 23t33.5 27 t18.5 11q7 0 2.5 -6t3.5 -6q12 0 56 65t50 79q8 12 27.5 74t19.5 67q0 21 -24 76q-13 -24 -47 -69t-41 -58q-38 -69 -83.5 -161.5t-45.5 -103.5v-18zM229 1151q0 5 8 21.5t3 25.5q12 0 16 4q-3 4 -7 7.5t-10 7t-10 6.5v24q17 3 22.5 3t10.5 -2.5t8 -2.5q12 0 33 17 q17 -23 37 -23q5 0 16.5 5t16.5 5q4 -3 4.5 -5.5t-1 -6t-1.5 -6.5q32 -25 47 -45q101 -106 131 -160q3 -4 3.5 -9.5t-0.5 -14.5t-1 -13q0 -3 12 -11t13 -13q8 -13 8 -35q0 -8 -10.5 -27.5t-10.5 -28.5q-36 0 -45 -4q-16 -3 -6 -10q-14 2 -35.5 11.5t-34.5 21.5 q-25 25 -96 101.5t-110 115.5q-11 33 -11 41zM389 639h10v31h-10v-31z" />
<glyph unicode="&#xf3;" horiz-adv-x="595" d="M4 190q0 58 37.5 155t60.5 134q3 3 5 16t6 17q5 9 23 34.5t24 39.5q4 3 16 6q4 1 6 10t6 14q5 10 25.5 25t26.5 23q4 5 6 19.5t6 21.5q-1 0 -7 2t-11 0.5t-9 -7.5q0 9 -4 13q-6 -3 -6 -17q0 15 -14 15l4 2q2 0 8 6q-4 35 27.5 60.5t75 43t49.5 23.5q4 -10 11 -12.5 t18 -2.5t20 -4q10 -8 63 -61l4 -8q3 -10 8 -15q1 0 9 -1t12 -5q106 -148 106 -256q0 -198 -268 -432q-4 -3 -9 -15.5t-7 -15.5q-70 -43 -127 -43q-18 0 -33.5 3.5t-31 13t-24 15.5t-25.5 20.5t-23 19.5q-4 3 -19 32.5t-29 29.5q-16 67 -16 81zM205 213q11 7 30 23t33.5 27 t18.5 11q7 0 2.5 -6t3.5 -6q12 0 56 65t50 79q8 12 27.5 74t19.5 67q0 21 -24 76q-13 -24 -47 -69t-41 -58q-38 -69 -83.5 -161.5t-45.5 -103.5v-18zM324 948q0 17 13.5 37.5t4.5 38.5l6 12q0 -3 -1 -6t-0.5 -5t3.5 -5q4 3 6 11.5t6 12.5q44 39 98.5 77t110 72t66.5 42 l22 -6l-8 12h6q7 0 9 2l2 -8q6 0 48.5 22t63.5 27q15 -19 15 -39q0 -19 -19 -41q12 -18 -6 -39q-39 -37 -152 -118q-16 -12 -36.5 -32t-40.5 -36q-10 -6 -45 -41q-53 -53 -72 -53q-12 0 -43 9.5t-47 16.5q0 5 -5 18.5t-5 18.5zM389 639h10v31h-10v-31z" />
<glyph unicode="&#xf4;" horiz-adv-x="598" d="M4 190q0 58 37.5 155t60.5 134q3 3 5 16t6 17q5 9 23 34.5t24 39.5q4 3 16 6q4 1 6 10t6 14q5 10 25.5 25t26.5 23q4 5 6 19.5t6 21.5q-1 0 -7 2t-11 0.5t-9 -7.5q0 9 -4 13q-6 -3 -6 -17q0 15 -14 15l4 2q2 0 8 6q-4 35 27.5 60.5t75 43t49.5 23.5q4 -10 11 -12.5 t18 -2.5t20 -4q10 -8 63 -61l4 -8q3 -10 8 -15q1 0 9 -1t12 -5q106 -148 106 -256q0 -198 -268 -432q-4 -3 -9 -15.5t-7 -15.5q-70 -43 -127 -43q-18 0 -33.5 3.5t-31 13t-24 15.5t-25.5 20.5t-23 19.5q-4 3 -19 32.5t-29 29.5q-16 67 -16 81zM176 895q2 5 9.5 25.5 t13.5 29.5q23 29 57 56q59 66 80 102q51 54 108 98q36 -28 52 -57l8 8q96 -209 96 -223q0 -2 -5.5 -6t-7 -10.5t6.5 -26.5q-63 -21 -72 -21q-4 0 -10 5t-16 15l-9 11q-4 6 -11.5 19t-13 21.5t-14.5 19.5t-18 20q-70 -62 -151 -109q-2 2 -6 3.5t-5.5 4.5t-1.5 9 q-6 -3 -23 -13.5t-26 -13.5q19 12 23 37l-2 2q-2 1 -5.5 -3.5t-11.5 -4.5q-6 0 -6.5 1.5t1 3.5t-2.5 5l-12 -14q-7 0 -11 2q-6 0 -14 4zM205 213q11 7 30 23t33.5 27t18.5 11q7 0 2.5 -6t3.5 -6q12 0 56 65t50 79q8 12 27.5 74t19.5 67q0 21 -24 76q-13 -24 -47 -69t-41 -58 q-38 -69 -83.5 -161.5t-45.5 -103.5v-18zM389 639h10v31h-10v-31z" />
<glyph unicode="&#xf5;" horiz-adv-x="602" d="M4 190q0 58 37.5 155t60.5 134q3 3 5 16t6 17q5 9 23 34.5t24 39.5q4 3 16 6q4 1 6 10t6 14q5 10 25.5 25t26.5 23q4 5 6 19.5t6 21.5q-1 0 -7 2t-11 0.5t-9 -7.5q0 9 -4 13q-6 -3 -6 -17q0 15 -14 15l4 2q2 0 8 6q-4 35 27.5 60.5t75 43t49.5 23.5q4 -10 11 -12.5 t18 -2.5t20 -4q10 -8 63 -61l4 -8q3 -10 8 -15q1 0 9 -1t12 -5q106 -148 106 -256q0 -198 -268 -432q-4 -3 -9 -15.5t-7 -15.5q-70 -43 -127 -43q-18 0 -33.5 3.5t-31 13t-24 15.5t-25.5 20.5t-23 19.5q-4 3 -19 32.5t-29 29.5q-16 67 -16 81zM137 1057q6 5 42.5 38.5 t51.5 44.5t45 25.5t56 14.5q8 0 31 -12t32 -15q-6 6 -12 0q3 -2 4 -5t10 -3q4 0 6 0.5t2 1.5v2t1.5 1.5t5.5 0.5t13 -15t23 -33.5t27 -25.5q60 -45 133 -45q22 0 125 25q3 -16 0 -19q0 -4 2 -4q0 -1 1 -2t1 -2q13 -10 13 -22q0 -6 10 -29q-1 0 -49 -55q0 -11 16 -11 q-83 -36 -117 -36q-67 0 -142 47.5t-134 122.5q-4 4 -10.5 5t-18 0t-14.5 -1q-15 0 -49 -21t-41 -31l-3 9q-4 8 -14 8q-5 0 -20 -8.5t-19 -8.5q0 10 9 19q-17 28 -17 39zM205 213q11 7 30 23t33.5 27t18.5 11q7 0 2.5 -6t3.5 -6q12 0 56 65t50 79q8 12 27.5 74t19.5 67 q0 21 -24 76q-13 -24 -47 -69t-41 -58q-38 -69 -83.5 -161.5t-45.5 -103.5v-18zM389 639h10v31h-10v-31z" />
<glyph unicode="&#xf9;" horiz-adv-x="823" d="M4 160q0 43 6.5 81.5t18 86t16.5 78.5q24 24 35 69q0 4 -2.5 17.5t-1.5 19.5q11 25 30 39q4 4 6.5 13t4.5 21t4 19q1 4 8 9t10 8q0 3 -1.5 7.5t-0.5 8.5q10 18 30 62.5t33.5 70.5t40.5 49t60 23q5 0 18.5 -4.5t22.5 -1.5q1 -7 6.5 -16t14.5 -20t12 -16q0 -3 3 -12.5 t3 -17.5q0 -23 -13 -56.5t-38 -84t-33 -70.5q-2 -5 -24 -50.5t-31 -68.5t-32.5 -70.5t-31.5 -66.5q0 -18 4 -25q-7 -11 -12 -24t-10 -32.5t-8 -27.5v-14h4q15 17 77.5 87t83.5 95.5t64 79.5t71 97.5t52 90.5q37 71 59 101q4 -4 16 -11t17 -12q2 0 3 1t1 3t-0.5 4t-1 5 t-0.5 4l8 -9q7 -8 15 -8q3 0 4 1t0 2t0 2t4 1q2 0 8.5 -7.5t20 -17.5t30.5 -14q10 -13 19.5 -38.5t9.5 -38.5q0 -3 -8 -18.5t-18.5 -36t-14.5 -33.5q-32 -77 -47 -152l-2 -4q-6 -3 -6 -8q-17 -91 -17 -127q0 -16 14 -19q8 -4 15 -4q3 0 55 10l74 21q14 4 31.5 11.5t29 14.5 t32 19.5t28.5 17.5l14 -12q-12 -8 -33 -29q3 -3 10 -14.5t13 -17.5q-17 -24 -31 -49q-8 -11 0 -15q-6 -8 -31 -33q11 -10 23 2q0 -16 -17 -16q-7 0 -8 1.5t1 3.5t-1 5q-3 -3 -5.5 -11.5t-6.5 -12.5q-17 -23 -35 -33q-18 -14 -48 -30.5t-40 -16.5q-53 0 -147 35 q-29 22 -39 39q-14 27 -64 147q-4 6 -4.5 16.5t1 24t1.5 16.5q0 20 -8 33q-13 -16 -55 -65.5t-62.5 -75t-50.5 -69t-51 -83.5q-19 -14 -41 -24l-4 -2q0 -3 6 -6q-8 0 -31 3t-35 3q-5 10 -26.5 27t-26.5 22q-31 31 -33 49q-14 32 -14 74zM305 1110q0 4 7.5 21t2.5 26 q13 0 17 4q-3 4 -7 7.5t-10 7t-10 6.5v24q17 3 22.5 3t10.5 -2.5t8 -2.5q12 0 33 17q17 -23 37 -23q5 0 16.5 5t16.5 5q4 -3 4.5 -5.5t-1 -6t-1.5 -6.5q32 -25 47 -45q101 -106 131 -160q3 -4 3.5 -9.5t-0.5 -14.5t-1 -13q0 -3 11.5 -11t12.5 -13q9 -15 9 -35 q0 -8 -10.5 -27t-10.5 -28q-33 0 -45 -5q-16 -3 -6 -10q-14 2 -35.5 11.5t-34.5 21.5q-25 25 -96.5 101.5t-110.5 115.5q-10 30 -10 41z" />
<glyph unicode="&#xfa;" horiz-adv-x="821" d="M4 160q0 43 6.5 81.5t18 86t16.5 78.5q24 24 35 69q0 4 -2.5 17.5t-1.5 19.5q11 25 30 39q4 4 6.5 13t4.5 21t4 19q1 4 8 9t10 8q0 3 -1.5 7.5t-0.5 8.5q10 18 30 62.5t33.5 70.5t40.5 49t60 23q5 0 18.5 -4.5t22.5 -1.5q1 -7 6.5 -16t14.5 -20t12 -16q0 -3 3 -12.5 t3 -17.5q0 -23 -13 -56.5t-38 -84t-33 -70.5q-2 -5 -24 -50.5t-31 -68.5t-32.5 -70.5t-31.5 -66.5q0 -18 4 -25q-7 -11 -12 -24t-10 -32.5t-8 -27.5v-14h4q15 17 77.5 87t83.5 95.5t64 79.5t71 97.5t52 90.5q37 71 59 101q4 -4 16 -11t17 -12q2 0 3 1t1 3t-0.5 4t-1 5 t-0.5 4l8 -9q7 -8 15 -8q3 0 4 1t0 2t0 2t4 1q2 0 8.5 -7.5t20 -17.5t30.5 -14q10 -13 19.5 -38.5t9.5 -38.5q0 -3 -8 -18.5t-18.5 -36t-14.5 -33.5q-32 -77 -47 -152l-2 -4q-6 -3 -6 -8q-17 -91 -17 -127q0 -16 14 -19q8 -4 15 -4q3 0 55 10l74 21q14 4 31.5 11.5t29 14.5 t32 19.5t28.5 17.5l14 -12q-12 -8 -33 -29q3 -3 10 -14.5t13 -17.5q-17 -24 -31 -49q-8 -11 0 -15q-6 -8 -31 -33q11 -10 23 2q0 -16 -17 -16q-7 0 -8 1.5t1 3.5t-1 5q-3 -3 -5.5 -11.5t-6.5 -12.5q-17 -23 -35 -33q-18 -14 -48 -30.5t-40 -16.5q-53 0 -147 35 q-29 22 -39 39q-14 27 -64 147q-4 6 -4.5 16.5t1 24t1.5 16.5q0 20 -8 33q-13 -16 -55 -65.5t-62.5 -75t-50.5 -69t-51 -83.5q-19 -14 -41 -24l-4 -2q0 -3 6 -6q-8 0 -31 3t-35 3q-5 10 -26.5 27t-26.5 22q-31 31 -33 49q-14 32 -14 74zM436 881q0 17 14 37t5 38l6 13 q0 -3 -1 -6.5t-0.5 -5.5t3.5 -5q4 3 6 12t6 13q44 39 98.5 77t109.5 71.5t67 41.5l22 -6l-8 13h6q6 0 8 2q-8 -8 -6.5 -8.5t8.5 -0.5q6 0 49 22.5t64 27.5q14 -18 14 -39q0 -20 -18 -41q12 -18 -6 -39q-44 -41 -152 -119q-16 -12 -37 -32t-41 -36q-10 -6 -45 -41 q-53 -53 -71 -53q-30 0 -91 27q0 5 -5 18.5t-5 18.5z" />
<glyph unicode="&#xfb;" horiz-adv-x="823" d="M4 160q0 43 6.5 81.5t18 86t16.5 78.5q24 24 35 69q0 4 -2.5 17.5t-1.5 19.5q11 25 30 39q4 4 6.5 13t4.5 21t4 19q1 4 8 9t10 8q0 3 -1.5 7.5t-0.5 8.5q10 18 30 62.5t33.5 70.5t40.5 49t60 23q5 0 18.5 -4.5t22.5 -1.5q1 -7 6.5 -16t14.5 -20t12 -16q0 -3 3 -12.5 t3 -17.5q0 -23 -13 -56.5t-38 -84t-33 -70.5q-2 -5 -24 -50.5t-31 -68.5t-32.5 -70.5t-31.5 -66.5q0 -18 4 -25q-7 -11 -12 -24t-10 -32.5t-8 -27.5v-14h4q15 17 77.5 87t83.5 95.5t64 79.5t71 97.5t52 90.5q37 71 59 101q4 -4 16 -11t17 -12q2 0 3 1t1 3t-0.5 4t-1 5 t-0.5 4l8 -9q7 -8 15 -8q3 0 4 1t0 2t0 2t4 1q2 0 8.5 -7.5t20 -17.5t30.5 -14q10 -13 19.5 -38.5t9.5 -38.5q0 -3 -8 -18.5t-18.5 -36t-14.5 -33.5q-32 -77 -47 -152l-2 -4q-6 -3 -6 -8q-17 -91 -17 -127q0 -16 14 -19q8 -4 15 -4q3 0 55 10l74 21q14 4 31.5 11.5t29 14.5 t32 19.5t28.5 17.5l14 -12q-12 -8 -33 -29q3 -3 10 -14.5t13 -17.5q-17 -24 -31 -49q-8 -11 0 -15q-6 -8 -31 -33q11 -10 23 2q0 -16 -17 -16q-7 0 -8 1.5t1 3.5t-1 5q-3 -3 -5.5 -11.5t-6.5 -12.5q-17 -23 -35 -33q-18 -14 -48 -30.5t-40 -16.5q-53 0 -147 35 q-29 22 -39 39q-14 27 -64 147q-4 6 -4.5 16.5t1 24t1.5 16.5q0 20 -8 33q-13 -16 -55 -65.5t-62.5 -75t-50.5 -69t-51 -83.5q-19 -14 -41 -24l-4 -2q0 -3 6 -6q-8 0 -31 3t-35 3q-5 10 -26.5 27t-26.5 22q-31 31 -33 49q-14 32 -14 74zM322 922q3 6 9.5 26t12.5 29 q21 27 57 55q57 64 80 103q48 51 109 98q34 -26 51 -57l8 8q96 -209 96 -223q0 -2 -5.5 -6t-7 -10.5t6.5 -26.5q-63 -21 -71 -21q-4 0 -10 5t-16 16l-9 10q-41 65 -58 80q-70 -62 -151 -109q-2 2 -4.5 3t-4 2t-2.5 3.5t-1 7.5q-6 -3 -23.5 -13t-26.5 -13q19 12 23 37l-2 2 q-2 1 -5 -3.5t-11 -4.5q-7 0 -7 2q-2 7 -2 8l-12 -15q-4 0 -10 3q-6 0 -14 4z" />
<glyph unicode="&#xfc;" horiz-adv-x="823" d="M4 160q0 43 6.5 81.5t18 86t16.5 78.5q24 24 35 69q0 4 -2.5 17.5t-1.5 19.5q11 25 30 39q4 4 6.5 13t4.5 21t4 19q1 4 8 9t10 8q0 3 -1.5 7.5t-0.5 8.5q10 18 30 62.5t33.5 70.5t40.5 49t60 23q5 0 18.5 -4.5t22.5 -1.5q1 -7 6.5 -16t14.5 -20t12 -16q0 -3 3 -12.5 t3 -17.5q0 -23 -13 -56.5t-38 -84t-33 -70.5q-2 -5 -24 -50.5t-31 -68.5t-32.5 -70.5t-31.5 -66.5q0 -18 4 -25q-7 -11 -12 -24t-10 -32.5t-8 -27.5v-14h4q15 17 77.5 87t83.5 95.5t64 79.5t71 97.5t52 90.5q37 71 59 101q4 -4 16 -11t17 -12q2 0 3 1t1 3t-0.5 4t-1 5 t-0.5 4l8 -9q7 -8 15 -8q3 0 4 1t0 2t0 2t4 1q2 0 8.5 -7.5t20 -17.5t30.5 -14q10 -13 19.5 -38.5t9.5 -38.5q0 -3 -8 -18.5t-18.5 -36t-14.5 -33.5q-32 -77 -47 -152l-2 -4q-6 -3 -6 -8q-17 -91 -17 -127q0 -16 14 -19q8 -4 15 -4q3 0 55 10l74 21q14 4 31.5 11.5t29 14.5 t32 19.5t28.5 17.5l14 -12q-12 -8 -33 -29q3 -3 10 -14.5t13 -17.5q-17 -24 -31 -49q-8 -11 0 -15q-6 -8 -31 -33q11 -10 23 2q0 -16 -17 -16q-7 0 -8 1.5t1 3.5t-1 5q-3 -3 -5.5 -11.5t-6.5 -12.5q-17 -23 -35 -33q-18 -14 -48 -30.5t-40 -16.5q-53 0 -147 35 q-29 22 -39 39q-14 27 -64 147q-4 6 -4.5 16.5t1 24t1.5 16.5q0 20 -8 33q-13 -16 -55 -65.5t-62.5 -75t-50.5 -69t-51 -83.5q-19 -14 -41 -24l-4 -2q0 -3 6 -6q-8 0 -31 3t-35 3q-5 10 -26.5 27t-26.5 22q-31 31 -33 49q-14 32 -14 74zM297 1014q0 10 9 24.5t28 35.5l18 22 q27 -15 72 -15q0 -5 11 -11.5t22 -6.5l1 -5q2 -4 3 -8.5t0 -9.5t-6 -8q1 -4 6 -8t13 -8.5t11 -7.5q-9 -17 -19.5 -54.5t-19.5 -54.5q-7 0 -27.5 -2t-27.5 -2q-5 0 -27.5 9.5t-29.5 10.5q2 15 -19 62zM561 1026q4 3 24.5 13t28.5 14q1 5 -0.5 11.5t-1.5 8.5q17 3 29 19 q6 -9 -4 -19q20 -35 63 -45q0 -15 33 -24v-95q-2 -3 -8 -14.5t-12.5 -19t-12.5 -7.5h-22q-8 0 -33.5 11t-44.5 24q9 20 -8 64q-1 9 -15 31t-16 28zM694 1038l8 15l7 -2l-7 -15z" />
<glyph unicode="&#xff;" horiz-adv-x="841" d="M6 236q-6 63 56.5 226t99.5 234q14 19 40 64t38 63q34 11 71 -14t37 -53q2 -14 2 -25q-13 -18 -51 -102q-16 -35 -51 -121t-53 -127q-17 -21 -21 -31q-5 -12 -2 -49l453 541q105 -37 138.5 -66t37.5 -98q2 -11 -3 -50.5t-16 -62.5q3 -18 3.5 -23t-2.5 -22.5t-3 -19.5 q-3 -14 -15 -47.5t-15 -51.5q0 -2 1 -9t0.5 -13t-3.5 -10q-9 -47 -33 -144t-33 -141l-14 -14q-6 -25 -25.5 -109.5t-31 -139.5t-19.5 -110q-4 -4 -1.5 -31t1.5 -34q-14 -25 -17 -39q0 -26 -4.5 -67.5t-8 -72t-1.5 -36.5l2 -31q3 -2 4 -5t3.5 -4t9.5 -1q15 3 29 10.5t31.5 20 t27.5 18.5l8 -70q-15 -5 -21.5 -16.5t-5.5 -22t-0.5 -19.5t-7.5 -11q-5 0 -7 0.5t-1.5 1.5t-1 1.5t-4.5 0.5q-8 -1 -23 -11.5t-22 -11.5q-6 0 -60 23q-13 6 -37 47q-21 25 -42 63.5t-25 71.5q-9 95 11.5 260.5t56 334t61 279t41.5 168.5l-2 2q0 5 -2 7 q-27 -31 -100.5 -119.5t-125 -147.5t-106.5 -118q-21 -21 -55 -41q-40 -24 -62 -27q-40 -5 -70 22t-43 61t-16 69zM317 1075q0 10 9.5 25t27.5 35t19 22q25 -14 71 -14q0 -5 11 -12t22 -7l1 -4q2 -4 3 -8.5t0 -9.5t-6 -8q1 -4 6 -8.5t13.5 -9t11.5 -7.5q-9 -17 -19.5 -54.5 t-19.5 -53.5q-7 0 -27.5 -2.5t-27.5 -2.5q-5 0 -28 10t-30 11q2 16 -18 61zM582 1087q4 3 24.5 13t28.5 14q1 5 -0.5 12t-1.5 9q18 4 29 18q5 -8 -5 -18q20 -35 64 -45q0 -16 33 -25v-94q-2 -3 -8 -14.5t-12.5 -19t-12.5 -7.5h-23q-8 0 -33 11t-44 24q8 18 -9 63 q-1 9 -14.5 31.5t-15.5 27.5zM715 1100l8 14l6 -2l-6 -14z" />
<glyph unicode="&#x152;" horiz-adv-x="1832" d="M23 274q0 29 1.5 55.5t6 55t6.5 45t10.5 48t11 41.5t14 47.5t13.5 45.5q15 46 39 101.5t40.5 89.5t52.5 106t48 95q14 18 44 63.5t58 83t54 61.5q3 9 -4 9q10 17 30.5 59.5t34.5 60.5q36 50 101 99q9 5 21.5 13.5t20 12.5t13.5 4q20 0 41 -8q4 -4 9.5 -4t12 2t9.5 2 q10 -13 18 -16q43 -7 81 -33.5t60 -49t29 -22.5t59 13.5t56 13.5q8 0 25 -2t20 -2q9 0 43 6q31 8 43 8q8 0 15.5 -2t10.5 -2q7 0 15.5 6t15.5 6l408 46q5 0 6 0.5t2.5 3.5t3.5 6l10 -10q4 3 14 4.5t13 5.5l8 -10q21 5 58.5 11t52.5 9q4 -1 3 -7t3 -13h4q1 0 3 1t3 1 q0 -3 -0.5 -3.5t-3 -2t-4.5 -3.5q1 -3 9 -6t13 -8q-9 -6 -14 -6q0 -18 -14 -29q4 -1 7 -5.5t6 -12t5 -10.5q-25 -25 -37 -25q-9 0 -9 -2t5 -2q-10 -3 -29 -11.5t-34 -15t-19 -6.5q-7 0 -6 2q-5 2 -6 2q-3 0 -13 -5t-25.5 -11.5t-29.5 -9.5q-26 -6 -69 -16.5t-78.5 -18.5 t-67.5 -12q-29 -21 -86 -21q-5 0 -10 2t-10 2q-4 0 -11.5 -7.5t-11.5 -8.5q-12 -3 -36 -12t-29 -9t-10.5 -1t-10.5 -1q-28 0 -78 -16q-9 -1 -22 -10t-16 -9q-7 0 -8.5 2t-8.5 2q-51 0 -51 -145q-2 -8 -7 -33t-8.5 -46t-4.5 -40q4 -2 20 -6.5t25 -9.5l284 72v-4q0 -3 8 -3 q3 0 30 8t40 9q2 1 5 6.5t11 5.5q4 0 5 -2l4 -4q7 0 82 34t79 34q5 0 6 -3q1 -2 5 -2q6 0 11 7.5t9 9.5q0 -3 -5 -9.5t-5 -9.5q6 -3 9 -0.5t3 5.5q14 -5 25 -13q0 -5 -8 -12.5t-11 -15.5l15 -17q-19 -19 -23 -22q3 -4 3 -7t3 -6h4q-1 -1 -0.5 -3.5t1 -5.5t-0.5 -7 q-33 -54 -69 -78q-14 -10 -111 -39q-5 -2 -27 -16t-28 -14q-8 0 -10 2t-7 2q-3 0 -16.5 -6t-32.5 -14.5t-30 -12.5q-8 -4 -22 -7.5t-35 -7t-33 -6.5q-46 -26 -60 -26h-10q-2 2 -4 6q-2 -3 -3 -6.5t-1.5 -6t-1.5 -4.5t-4 -2q-7 0 -16.5 2.5t-16.5 2.5q-11 0 -64 -17 q-1 0 -4 -1q-9 -2 -4 -7q-17 3 -30 2.5t-31.5 -2.5t-22.5 -2t-10.5 4t-11.5 4q-13 -19 -13 -47q-18 -222 -18 -227q0 -21 8 -81.5t12 -64.5q4 -12 27.5 -28.5t34.5 -16.5q4 0 22 4t25 4q2 0 2.5 -1.5t0.5 -3.5t0.5 -4t3 -3.5t7.5 -1.5q7 0 21.5 8t26.5 16l12 9l4 -1v-1 q2 -2 4 -2q3 0 30 19.5t33 19.5q4 0 2.5 -4.5t3.5 -4.5q12 0 82 70q23 22 74 67t76 70q-6 -4 -12 -13.5t-12 -22t-9 -17.5v-2h8q4 0 16.5 12t30.5 31t27 27q2 -2 4 -2q2 -2 6 -2q0 -9 -8 -17q0 -8 12 -14q0 -2 -4 -2t-4 2q-15 -15 -29 -47v-13q0 -12 19 13l4 4h6 q-5 -7 -19.5 -20t-21.5 -23.5t-4 -22.5q4 4 9 11.5t9.5 12.5t8.5 5q6 0 6 -1.5t-2 -3.5t2 -5l22 22l-57 -88q-58 -96 -111 -137q-43 -33 -96 -68.5t-61 -35.5l-4 1v1q-2 2 -4 2q-4 0 -25 -11.5t-29 -11.5q-5 0 -6 2t-6 2q-8 0 -12 -7t-8 -7q-11 0 -56 6.5t-78 15.5 q-4 1 -8.5 4.5t-9.5 9t-8 7.5q-27 15 -48 33.5t-36 44t-23.5 42.5t-21.5 50t-19 47q-1 3 -1 14t-1 15q-4 12 -10 18q-3 0 -18 -18q-186 -301 -410 -301q-55 0 -79.5 10.5t-86.5 60.5q-6 5 -11.5 13.5t-8 15.5t-8 20t-7.5 17q-22 45 -28 77t-6 78zM174 262q0 -48 12 -98 q6 -3 22 -9.5t23 -9.5q9 4 25.5 4.5t19.5 0.5q8 1 21 9.5t18 10.5q7 3 26 3.5t24 4.5q24 17 53.5 50t70 86.5t46.5 60.5q3 4 7.5 7.5t8.5 7.5l4 3q20 34 43 79t37.5 72.5t21.5 35.5q19 31 30 62t19.5 74t12.5 56l10 45q6 37 17 75.5t30.5 98t24.5 74.5q3 10 11 27t13.5 29.5 t5.5 15.5q0 6 -32 38t-41 52q-6 9 -6 20t26 31q-57 51 -67 51q-3 0 -14 -7t-26.5 -16.5t-25.5 -13.5q12 -7 12 -30q-11 -13 -26.5 -39.5t-24.5 -34.5q-4 -3 -18 -11t-17 -12q-36 -36 -75 -87t-54 -79q-17 -30 -48 -98.5t-44 -91.5q-50 -87 -113 -266.5t-63 -280.5zM432 1233 l6 -2l4 18h-6zM1276 399q14 19 14 23q0 -5 -1.5 -8.5t-3 -5l-4.5 -4.5z" />
<glyph unicode="&#x153;" horiz-adv-x="987" d="M12 211q0 78 36.5 168t101.5 203q-4 4 -16.5 4.5t-18.5 3.5q20 31 32 82q4 3 58 34.5t84 51.5q6 5 23 24.5t26 24.5q-4 4 0 4h2q4 0 6 2q34 41 80 41q8 0 23 -6t20 -6q10 0 20 10q-3 -3 -8 -6t-8 -6q3 -13 -8 -41t-10 -39q4 -1 13 -10.5t17 -14.5q5 -3 14 -7t13.5 -8 t7.5 -11q2 2 24.5 35t37.5 49q26 29 88 81q3 1 8.5 1.5t9.5 1.5q4 18 25 18q18 0 51 -8q4 4 -2 10q12 -5 30 -4.5t19 0.5q2 -1 11.5 -6t13.5 -6q7 -11 20.5 -24t29 -25.5t19.5 -16.5q16 -16 25.5 -60t9.5 -65q0 -20 -2 -28q-3 -4 -6 -14t-6 -23.5t-6 -22.5l-35 -43 q-41 -89 -64 -121l-33 -28q0 -4 -2 -8t-2 -7q-8 -13 -49.5 -47.5t-52.5 -34.5q-4 0 -14.5 -4t-14.5 -4q-5 0 -15.5 -2t-14.5 -2q-16 0 -29 8q-29 -29 -29 -59q0 -36 22 -57t58 -21q47 0 72 -2l10 6q5 0 13 -2t16 -2q11 0 87 25t95 36q-11 -11 14 -36l-4 -4q10 -13 25 -13 q-5 -9 -7 -25.5t-8.5 -29t-23.5 -19.5q4 -3 4.5 -5t3.5 -5q3 3 9 4t10 4q-20 -20 -52 -34q-2 -2 -2 -13q-113 -49 -143 -49q-99 0 -136.5 11t-136.5 68q-19 11 -30 17q-13 -13 -38.5 -36t-65.5 -50.5t-58 -27.5q-3 0 -31.5 -4t-36.5 -4q-30 0 -53 10q-10 1 -32 18.5 t-31 22.5q-3 3 -13.5 5t-13.5 5q-8 8 -29 45q-5 6 -12.5 11t-9.5 7q-7 8 -10 15q-15 78 -15 90zM180 203q0 -26 13 -39q74 24 133 110q60 79 65 95q7 21 11 45.5t6 53.5t4 42t16 37.5t14 46.5q0 20 -1.5 29.5t-9 17.5t-23.5 8q-14 0 -29 -31q0 -1 1 -3t1 -3v-2 q-17 -8 -47 -57q-13 -19 -35.5 -62.5t-26.5 -50.5t-25.5 -47t-32.5 -63t-22.5 -60t-11.5 -67zM432 868l6 9l17 -9h-23zM451 836h14v8h-14v-8zM629 522q11 13 50.5 59t53.5 66q1 8 6 23.5t6 19.5q-15 -21 -46 -59t-45.5 -60t-24.5 -49z" />
<glyph unicode="&#x178;" horiz-adv-x="946" d="M-10 465q0 3 3 26.5t3 32.5q0 40 6.5 80.5t22 104t18.5 77.5q27 92 63 177q-2 0 -2 4q0 1 -1 2t-1 2q14 29 70 157.5t99 211.5t61 83q27 0 63 -12q4 -12 21.5 -36.5t17.5 -31.5q0 -25 -20 -65q0 -4 8 -12q-5 -12 -28.5 -64.5t-36 -84.5t-17.5 -50q-9 -27 -25 -59 q-52 -104 -82 -224q-47 -143 -57 -202q-1 -4 -4.5 -11t-9 -16.5t-8.5 -15.5q-7 -21 -11 -45t-6.5 -57t-5.5 -52q12 9 26.5 23t24 24t28 29.5t23.5 25.5q18 6 27 17q26 29 56 60.5t49 51t53.5 53.5t48.5 48q234 234 387 538q6 12 4 29t-8 23q9 12 18 12q6 0 20 -7.5t17 -8.5 q4 -1 15.5 -1t22 -2t18.5 -6q2 -2 6.5 -8.5t10 -12t11.5 -9.5q3 -3 18.5 -10.5t18.5 -16.5q12 -12 12 -45q0 -5 -12 -70t-29.5 -153t-29.5 -144l-80 -262q-1 -1 -8.5 -39.5t-22.5 -54.5q-3 -71 -55 -225q-25 -83 -31 -111q-37 -191 -74 -334q-1 -8 -9 -27t-9 -28 q-13 -66 -27 -166q15 6 21 21q-9 -18 -2 -29l10 8q-9 -20 8 -37q-4 -4 -4 -18v-2q0 -4 4 -4q-4 -4 -4 -21l6 -2q0 -12 -14 -35q3 -3 4.5 -3.5t4 0.5t5.5 1q-1 -6 -33 -104q-6 -13 9 -19l-10 1q-10 1 -15 1q-7 0 -12.5 -2t-12.5 -2t-21.5 7.5t-21.5 7.5q-3 0 -4 -1t0 -2t0 -2 t-4 -1q-15 0 -43 40t-28 50q-19 64 -21 90l86 452q80 339 96 398q4 18 30 101t32 130q1 4 1 35t3 49q10 28 22 80l-2 18q-82 -117 -172 -182q-8 -7 -26 -29t-31 -34q-5 -6 -20 -15.5t-17 -11.5q-6 -6 -49 -59t-85.5 -102t-96 -91.5t-88.5 -42.5q-10 0 -39 8.5t-39 18.5 q-41 31 -78 129q-10 27 -10 92zM489 1669q0 10 9.5 25t27.5 35t19 22q25 -14 71 -14q0 -5 11 -12t22 -7l1 -4q2 -4 3 -8.5t0 -9.5t-6 -8q1 -4 6 -8.5t13.5 -9t11.5 -7.5q-9 -17 -19.5 -54.5t-19.5 -54.5q-7 0 -27.5 -2t-27.5 -2q-5 0 -28 10t-30 11q2 16 -18 61zM754 1681 q4 3 24.5 13t28.5 14q1 5 -0.5 12t-1.5 9q18 4 29 18q5 -8 -5 -18q20 -36 64 -46q0 -15 33 -24v-94q-2 -3 -8 -14.5t-12.5 -19t-12.5 -7.5h-23q-8 0 -33 11t-44 24q8 18 -9 63q-1 9 -14.5 31.5t-15.5 27.5zM887 1694l8 14l6 -2l-6 -14z" />
<glyph unicode="&#x192;" horiz-adv-x="866" d="M61 -90q0 19 11 37q0 2 -3 11.5t1 10.5q15 13 29 31.5t23.5 26.5t24.5 8q4 0 18 -7.5t32.5 -17.5t29.5 -14q-3 -13 7.5 -28t5.5 -31l2 -5q0 -4 4 -4q15 -4 57 -4q57 0 66 21q25 44 33.5 102t8.5 140.5t3 113.5q3 7 2.5 11t-2.5 13.5t-2 16.5q0 10 4 28t4 25l-60 824 q0 69 31 233q6 19 -6 37q2 4 12.5 17.5t14.5 21.5q6 7 10 17t7 22.5t5 17.5q6 13 56 32t79 19q8 0 48 -8.5t69 -17.5t55 -25q10 -7 29 -33q9 0 21 -12q0 -7 7 -22.5t7 -22.5q0 -5 -12.5 -27t-16.5 -36l-2 2q-3 0 -5.5 1t-6.5 1t-8 -5t-9 -14t-8 -12q-13 3 -34 10.5t-38 11.5 t-34 5q5 18 -11.5 28t-29.5 10q-3 0 -9 1t-9 0.5t-7 -3t-8.5 -9.5t-9.5 -19v-23q-12 -16 -16 -41.5t-4 -58.5t-3 -49q0 -10 -2 -25.5t-2 -19.5q0 -6 3 -28.5t3 -35.5q4 -17 4 -84q3 -93 22 -269.5t23 -262.5q6 -6 9 -15q0 -30 2 -77t4 -83.5t2 -39.5q0 -2 -4 -50t-4 -69 q-2 -107 -15 -187t-45 -167q0 -9 -61.5 -44.5t-91.5 -35.5h-135q-11 0 -45.5 8.5t-49.5 17.5q-20 8 -26 37q-24 16 -32.5 23.5t-15 19.5t-6.5 29zM115 -164h14v-10h-14v10z" />
<glyph unicode="&#x2c6;" horiz-adv-x="935" d="M260 1182q2 4 9.5 25t13.5 30q21 27 57 55q57 64 80 103q51 54 108 98q36 -28 52 -57l8 8q96 -209 96 -223q0 -2 -5.5 -6t-7 -10.5t6.5 -26.5q-63 -21 -72 -21q-4 0 -10 5t-16 16l-9 10q-4 6 -11.5 19t-13 21.5t-14.5 19.5t-18 20q-68 -60 -152 -109q-2 2 -5.5 3.5 t-5 4.5t-1.5 9q-6 -3 -23 -13.5t-26 -13.5q19 12 23 37l-2 2q-2 1 -5.5 -3.5t-11.5 -4.5q-6 0 -6.5 1.5t1 3.5t-2.5 5l-12 -14q-7 0 -11 2q-6 0 -14 4z" />
<glyph unicode="&#x2da;" horiz-adv-x="796" d="M293 1260q0 51 49 133t90 112q3 3 22.5 5t28.5 6q6 4 20.5 14.5t23 14.5t14.5 1q11 3 19.5 -2.5t17.5 -18t14 -16.5q-8 0 -17 -18q0 -2 5 -5t10 -3q-2 -4 -9 -16t-10.5 -20.5t-3.5 -14.5q0 -4 3.5 -8.5t9.5 -12.5t10 -14l4 -3q3 -2 6.5 -6t7.5 -8q15 -26 15 -53 q0 -55 -21 -96q-8 -35 -59.5 -81t-83.5 -46q-10 0 -21 8q-4 -4 -4 -14h-22q-11 0 -44.5 26t-33.5 35q-3 2 -19 29q-22 69 -22 72zM434 1264q4 -9 10 -15q11 -4 24 2.5t15 14.5q17 34 17 53q0 12 -23 22q-17 -17 -30 -40t-13 -37z" />
</font>
</defs>
</svg>
